{
.appVersion = "3109";
.formatVersion = 3;
DisplayStrings = (
"/centerdot/uni0714.fina"
);
axes = (
{
name = Weight;
tag = wght;
},
{
name = Width;
tag = wdth;
}
);
classes = (
{
code = "uni0713.init uni0713.medi uni0714.init uni0714.medi uni072E.init uni072E.medi";
name = gamal_initmedi;
},
{
code = "uni0713.fina uni0713.medi uni0714.fina uni0714.medi uni072E.fina uni072E.medi";
name = class7;
},
{
code = "uni0713.init uni0713.medi uni0713.medi.wide uni0713.medi.wide2 uni0714.init uni0714.medi uni0714.medi.wide uni0714.medi.wide2 uni072E.init uni072E.medi uni072E.medi.wide uni072E.medi.wide2";
name = class8;
},
{
code = "FC5E FC5F FC60 FC61 FC62 FC63 uni0303 uni0304 uni0308 uni064B uni064B0651 uni064C uni064E uni064F uni0651 uni0652 uni0653 uni0654 uni0654064B uni0654064C uni0654064E uni0654064F uni06540652 uni0730 uni0733 uni0736 uni073A uni073D uni0745 uni0747 uni0749 uni074A";
name = class9;
},
{
code = "FC5E FC5F FC60 FC61 FC62 FC63 uni0303 uni0304 uni0307 uni0308 uni064B uni064B0651 uni064C uni064E uni064F uni0651 uni0652 uni0653 uni0654 uni0654064B uni0654064C uni0654064E uni0654064F uni06540652 uni0670 uni0711 uni0730 uni0732.above uni0733 uni0735 uni0736 uni073A uni073D uni073F uni0740 uni0743 uni0745 uni0747 uni0749 uni074A";
name = class10;
},
{
code = "uni0320 uni0324 uni032D uni032E uni0330 uni0331 uni064D uni0650 uni0655 uni0655064D uni06550650 uni0731 uni0734 uni0737 uni0738 uni0739 uni073B uni073E uni0746 uni0748";
name = class17;
},
{
code = "uni0320 uni0323 uni0324 uni032D uni032E uni0330 uni0331 uni064D uni0650 uni0655 uni0655064D uni06550650 uni0731 uni0732.below uni0734 uni0737 uni0738 uni0739 uni073B uni073C uni073E uni0744 uni0746 uni0748";
name = class18;
},
{
code = "uni0731 uni0734 uni0737 uni0738 uni0739 uni073B uni073C uni073E uni0744 uni0746 uni0748 uni0320 uni0323 uni0324 uni032D uni032E uni0330 uni0331 uni064D uni0650 uni0655 uni0732.below";
name = markAttachmentSet2;
},
{

glyphs = (
{
glyphname = .notdef;
lastChange = "2022-12-16 12:05:34 +0000";
layers = (
{
layerId = m01;
shapes = (
{
closed = 1;
nodes = (
(94,714,l),
(94,0,l),
(505,0,l),
(505,714,l)
);
},
{
closed = 1;
nodes = (
(454,51,l),
(145,51,l),
(145,663,l),
(454,663,l)
);
}
);
width = 600;
},
{
layerId = "8E9A709A-C666-43E5-8831-9AE42D64DE83";
shapes = (
{
closed = 1;
nodes = (
(94,714,l),
(94,0,l),
(505,0,l),
(505,714,l)
);
},
{
closed = 1;
nodes = (
(454,51,l),
(145,51,l),
(145,663,l),
(454,663,l)
);
}
);
width = 600;
},
{
layerId = "7FDEFC05-49C3-46A7-9C1D-65D39809C804";
shapes = (
{
closed = 1;
nodes = (
(94,714,l),
(94,0,l),
(505,0,l),
(505,714,l)
);
},
{
closed = 1;
nodes = (
(454,51,l),
(145,51,l),
(145,663,l),
(454,663,l)
);
}
);
width = 600;
}
);
note = ".notdef";
},
{
glyphname = uni200E;
lastChange = "2022-12-16 12:05:34 +0000";
layers = (
{
layerId = m01;
shapes = (
{
closed = 1;
nodes = (
(-18,0,l),
(17,0,l),
(17,603,l),
(147,603,l),
(80,539,l),
(104,515,l),
(210,620,l),
(104,725,l),
(80,701,l),
(147,637,l),
(-18,637,l)
);
}
);
width = 0;
},
{
layerId = "8E9A709A-C666-43E5-8831-9AE42D64DE83";
shapes = (
{
closed = 1;
nodes = (
(-18,0,l),
(17,0,l),
(17,603,l),
(147,603,l),
(80,539,l),
(104,515,l),
(210,620,l),
(104,725,l),
(80,701,l),
(147,637,l),
(-18,637,l)
);
}
);
width = 0;
},
{
layerId = "7FDEFC05-49C3-46A7-9C1D-65D39809C804";
shapes = (
{
closed = 1;
nodes = (
(-16,0,l),
(15,0,l),
(15,551,l),
(136,551,l),
(74,491,l),
(96,469,l),
(195,566,l),
(96,662,l),
(74,640,l),
(136,583,l),
(-16,583,l)
);
}
);
width = 0;
}
);
note = uni200E;
unicode = 8206;
},
{
glyphname = uni200F;
lastChange = "2022-12-16 12:05:34 +0000";
layers = (
{
layerId = m01;
shapes = (
{
closed = 1;
nodes = (
(-18,0,l),
(17,0,l),
(17,637,l),
(-147,637,l),
(-81,701,l),
(-104,725,l),
(-210,620,l),
(-104,515,l),
(-81,539,l),
(-147,603,l),
(-18,603,l)
);
}
);
width = 0;
},
{
layerId = "8E9A709A-C666-43E5-8831-9AE42D64DE83";
shapes = (
{
closed = 1;
nodes = (
(-18,0,l),
(17,0,l),
(17,637,l),
(-147,637,l),
(-81,701,l),
(-104,725,l),
(-210,620,l),
(-104,515,l),
(-81,539,l),
(-147,603,l),
(-18,603,l)
);
}
);
width = 0;
},
{
layerId = "7FDEFC05-49C3-46A7-9C1D-65D39809C804";
shapes = (
{
closed = 1;
nodes = (
(-16,0,l),
(15,0,l),
(15,583,l),
(-136,583,l),
(-75,640,l),
(-96,662,l),
(-195,566,l),
(-96,469,l),
(-75,491,l),
(-136,551,l),
(-16,551,l)
);
}
);
width = 0;
}
);
note = uni200F;
unicode = 8207;
},
{
glyphname = uni0710;
lastChange = "2022-12-16 12:05:34 +0000";
layers = (
{
anchors = (
{
name = bottom;
pos = (124,-196);
},
{
name = top;
pos = (136,763);
}
);
layerId = m01;
shapes = (
{
closed = 1;
nodes = (
(133,680,l),
(85,623,l),
(134,574,o),
(158,544,o),
(158,487,cs),
(158,442,o),
(146,389,o),
(119,326,cs),
(85,246,o),
(68,171,o),
(68,103,cs),
(68,44,o),
(76,-29,o),
(110,-90,c),
(123,-90,l),
(174,-53,l),
(147,19,o),
(143,64,o),
(143,114,cs),
(143,155,o),
(147,203,o),
(182,296,cs),
(220,396,o),
(229,448,o),
(229,498,cs),
(229,567,o),
(208,622,o),
(138,680,c)
);
}
);
width = 292;
},
{
anchors = (
{
name = bottom;
pos = (121,-193);
},
{
name = top;
pos = (121,743);
}
);
layerId = "8E9A709A-C666-43E5-8831-9AE42D64DE83";
shapes = (
{
closed = 1;
nodes = (
(126,660,l),
(109,641,l),
(149,602,o),
(173,566,o),
(173,500,cs),
(173,448,o),
(158,383,o),
(133,315,cs),
(102,232,o),
(83,152,o),
(83,85,cs),
(83,33,o),
(88,-32,o),
(112,-88,c),
(116,-88,l),
(137,-76,l),
(114,-10,o),
(109,38,o),
(109,91,cs),
(109,137,o),
(116,191,o),
(152,292,cs),
(189,396,o),
(199,448,o),
(199,502,cs),
(199,564,o),
(180,612,o),
(129,660,c)
);
}
);
width = 272;
},
{
anchors = (
{
name = bottom;
pos = (137,-228);
},
{
name = top;
pos = (171,772);
}
);
layerId = "7FDEFC05-49C3-46A7-9C1D-65D39809C804";
shapes = (
{
closed = 1;
nodes = (
(182,692,l),
(71,590,l),
(116,545,o),
(134,500,o),
(134,441,cs),
(134,397,o),
(117,349,o),
(98,295,cs),
(76,231,o),
(62,152,o),
(62,87,cs),
(62,10,o),
(79,-62,o),
(119,-123,c),
(137,-123,l),
(256,-55,l),
(229,5,o),
(219,57,o),
(219,117,cs),
(219,154,o),
(225,197,o),
(249,272,cs),
(278,363,o),
(292,416,o),
(292,462,cs),
(292,562,o),
(247,642,o),
(187,692,c)
);
}
);
width = 348;
}
);
note = uni0710;
unicode = 1808;
},
{
glyphname = uni0710.fin3;
lastChange = "2022-12-16 12:05:34 +0000";
layers = (
{
anchors = (
{
name = bottom;
pos = (104,-195);
},
{
name = top;
pos = (132,763);
}
);
layerId = m01;
shapes = (
{
closed = 1;
nodes = (
(166,674,l),
(93,674,l),
(93,141,ls),
(93,40,o),
(78,-29,o),
(58,-64,c),
(118,-94,l),
(153,-50,o),
(166,31,o),
(166,142,cs)
);
}
);
width = 251;
},
{
anchors = (
{
name = bottom;
pos = (94,-195);
},
{
name = top;
pos = (121,743);
}
);
layerId = "8E9A709A-C666-43E5-8831-9AE42D64DE83";
shapes = (
{
closed = 1;
nodes = (
(134,654,l),
(108,654,l),
(108,110,ls),
(108,16,o),
(96,-34,o),
(75,-77,c),
(96,-88,l),
(122,-41,o),
(134,22,o),
(134,122,cs)
);
}
);
width = 234;
},
{
anchors = (
{
name = bottom;
pos = (137,-206);
},
{
name = top;
pos = (160,774);
}
);
layerId = "7FDEFC05-49C3-46A7-9C1D-65D39809C804";
shapes = (
{
closed = 1;
nodes = (
(241,684,l),
(87,684,l),
(87,207,ls),
(87,91,o),
(68,-4,o),
(44,-60,c),
(174,-116,l),
(229,-34,o),
(241,111,o),
(241,175,cs)
);
}
);
width = 321;
}
);
note = uni0710.fin3;
},
{
glyphname = uni0710.fin2;
lastChange = "2022-12-16 12:05:34 +0000";
layers = (
{
anchors = (
{
name = bottom;
pos = (104,-195);
},
{
name = top;
pos = (132,763);
}
);
layerId = m01;
shapes = (
{
closed = 1;
nodes = (
(166,674,l),
(93,674,l),
(93,141,ls),
(93,40,o),
(78,-29,o),
(58,-64,c),
(118,-94,l),
(153,-50,o),
(166,31,o),
(166,142,cs)
);
}
);
width = 251;
},
{
anchors = (
{
name = bottom;
pos = (94,-195);
},
{
name = top;
pos = (121,743);
}
);
layerId = "8E9A709A-C666-43E5-8831-9AE42D64DE83";
shapes = (
{
closed = 1;
nodes = (
(134,654,l),
(108,654,l),
(108,110,ls),
(108,16,o),
(96,-34,o),
(75,-77,c),
(96,-88,l),
(122,-41,o),
(134,22,o),
(134,122,cs)
);
}
);
width = 234;
},
{
anchors = (
{
name = bottom;
pos = (131,-205);
},
{
name = top;
pos = (160,774);
}
);
layerId = "7FDEFC05-49C3-46A7-9C1D-65D39809C804";
shapes = (
{
closed = 1;
nodes = (
(241,684,l),
(87,684,l),
(87,207,ls),
(87,91,o),
(68,-4,o),
(44,-60,c),
(174,-116,l),
(229,-34,o),
(241,111,o),
(241,175,cs)
);
}
);
width = 327;
}
);
note = uni0710.fin2;
},
{
glyphname = uni0710.fina;
lastChange = "2022-12-16 12:22:00 +0000";
layers = (
{
anchors = (
{
name = bottom;
pos = (104,-195);
},
{
name = top;
pos = (132,763);
}
);
layerId = m01;
shapes = (
{
closed = 1;
nodes = (
(165,122,o),
(166,131,o),
(166,142,cs),
(166,674,l),
(93,674,l),
(93,141,ls),
(93,40,o),
(78,-29,o),
(58,-64,c),
(118,-94,l),
(139,-67,o),
(152,-25,o),
(160,30,c),
(162,30,l),
(181,9,o),
(213,0,o),
(264,0,c),
(264,76,l),
(232,76,o),
(166,76,o),
(165,111,cs)
);
}
);
width = 264;
},
{
anchors = (
{
name = bottom;
pos = (94,-195);
},
{
name = top;
pos = (121,743);
}
);
layerId = "8E9A709A-C666-43E5-8831-9AE42D64DE83";
shapes = (
{
closed = 1;
nodes = (
(134,93,o),
(134,100,o),
(134,108,c),
(134,654,l),
(108,654,l),
(108,110,ls),
(108,16,o),
(96,-34,o),
(75,-77,c),
(96,-88,l),
(116,-53,o),
(125,-12,o),
(131,39,c),
(133,39,l),
(153,5,o),
(201,0,o),
(253,0,c),
(253,25,l),
(184,25,o),
(143,35,o),
(134,85,c)
);
}
);
width = 233;
},
{
anchors = (
{
name = bottom;
pos = (131,-205);
},
{
name = top;
pos = (160,774);
}
);
layerId = "7FDEFC05-49C3-46A7-9C1D-65D39809C804";
shapes = (
{
closed = 1;
nodes = (
(241,230,o),
(241,238,o),
(241,247,c),
(241,684,l),
(87,684,l),
(87,207,ls),
(87,91,o),
(68,-4,o),
(44,-60,c),
(172,-116,l),
(201,-73,o),
(218,-16,o),
(228,49,c),
(232,49,l),
(254,13,o),
(302,0,o),
(337,0,c),
(337,185,l),
(283,185,o),
(252,195,o),
(241,221,c)
);
}
);
width = 337;
}
);
note = uni0710.fina;
},
{
glyphname = uni0710.med2;
lastChange = "2022-12-16 14:35:54 +0000";
layers = (
{
anchors = (
{
name = bottom;
pos = (104,-195);
},
{
name = top;
pos = (132,763);
}
);
layerId = m01;
shapes = (
{
closed = 1;
nodes = (
(165,122,o),
(166,131,o),
(166,142,cs),
(166,674,l),
(93,674,l),
(93,141,ls),
(93,40,o),
(78,-29,o),
(58,-64,c),
(118,-94,l),
(139,-67,o),
(152,-25,o),
(160,30,c),
(162,30,l),
(181,9,o),
(213,0,o),
(264,0,c),
(264,76,l),
(232,76,o),
(166,76,o),
(165,111,cs)
);
}
);
width = 264;
},
{
anchors = (
{
name = bottom;
pos = (94,-195);
},
{
name = top;
pos = (121,743);
}
);
layerId = "8E9A709A-C666-43E5-8831-9AE42D64DE83";
shapes = (
{
closed = 1;
nodes = (
(134,92,o),
(134,98,o),
(134,105,c),
(134,654,l),
(108,654,l),
(108,110,ls),
(108,16,o),
(96,-34,o),
(75,-77,c),
(96,-88,l),
(116,-53,o),
(125,-12,o),
(131,39,c),
(133,39,l),
(153,5,o),
(201,0,o),
(253,0,c),
(253,25,l),
(184,25,o),
(143,35,o),
(134,85,c)
);
}
);
width = 253;
},
{
anchors = (
{
name = bottom;
pos = (131,-205);
},
{
name = top;
pos = (160,774);
}
);
layerId = "7FDEFC05-49C3-46A7-9C1D-65D39809C804";
shapes = (
{
closed = 1;
nodes = (
(241,232,o),
(241,242,o),
(241,253,c),
(241,684,l),
(87,684,l),
(87,207,ls),
(87,91,o),
(68,-4,o),
(44,-60,c),
(172,-116,l),
(201,-73,o),
(218,-16,o),
(228,49,c),
(232,49,l),
(254,13,o),
(302,0,o),
(337,0,c),
(337,185,l),
(283,185,o),
(252,195,o),
(241,221,c)
);
}
);
width = 337;
}
);
note = uni0710.med2;
},
{
category = Mark;
glyphname = uni0711;
lastChange = "2022-12-16 12:05:34 +0000";
layers = (
{
anchors = (
{
name = _cantillation_above;
pos = (0,540);
},
{
name = _top;
pos = (0,542);
}
);
layerId = m01;
shapes = (
{
closed = 1;
nodes = (
(-29,793,l),
(-11,778,o),
(-3,761,o),
(-3,743,cs),
(-3,728,o),
(-6,713,o),
(-17,687,cs),
(-28,660,o),
(-35,632,o),
(-35,608,cs),
(-35,586,o),
(-30,566,o),
(-20,547,c),
(13,562,l),
(4,587,o),
(3,597,o),
(3,610,cs),
(3,626,o),
(4,641,o),
(16,674,cs),
(29,711,o),
(34,726,o),
(34,748,cs),
(34,775,o),
(25,795,o),
(-2,818,c)
);
}
);
width = 0;
},
{
anchors = (
{
name = _cantillation_above;
pos = (0,540);
},
{
name = _top;
pos = (0,542);
}
);
layerId = "8E9A709A-C666-43E5-8831-9AE42D64DE83";
shapes = (
{
closed = 1;
nodes = (
(-15,791,l),
(2,775,o),
(7,758,o),
(7,737,cs),
(7,723,o),
(3,708,o),
(-7,683,cs),
(-17,658,o),
(-24,636,o),
(-24,614,cs),
(-24,598,o),
(-21,580,o),
(-10,563,c),
(8,571,l),
(-1,588,o),
(-4,598,o),
(-4,617,cs),
(-4,632,o),
(-1,648,o),
(11,677,cs),
(25,711,o),
(27,726,o),
(27,740,cs),
(27,765,o),
(19,786,o),
(0,803,c)
);
}
);
width = 0;
},
{
anchors = (
{
name = _cantillation_above;
pos = (0,540);
},
{
name = _top;
pos = (0,542);
}
);
layerId = "7FDEFC05-49C3-46A7-9C1D-65D39809C804";
shapes = (
{
closed = 1;
nodes = (
(-43,807,l),
(-21,788,o),
(-17,772,o),
(-17,753,cs),
(-17,736,o),
(-22,718,o),
(-33,687,cs),
(-46,650,o),
(-53,621,o),
(-53,591,cs),
(-53,565,o),
(-47,540,o),
(-35,517,c),
(23,543,l),
(16,562,o),
(13,578,o),
(13,594,cs),
(13,613,o),
(14,631,o),
(27,671,cs),
(42,716,o),
(48,734,o),
(48,761,cs),
(48,794,o),
(38,821,o),
(2,849,c)
);
}
);
width = 0;
}
);
note = uni0711;
subCategory = Nonspacing;
unicode = 1809;
},
{
glyphname = uni0712;
lastChange = "2022-12-16 12:05:34 +0000";
layers = (
{
anchors = (
{
name = bottom;
pos = (436,-98);
},
{
name = bottomright;
pos = (748,-68);
},
{
name = top;
pos = (506,513);
},
{
name = topright;
pos = (749,439);
}
);
layerId = m01;
shapes = (
{
closed = 1;
nodes = (
(664,0,ls),
(785,0,o),
(823,60,o),
(823,131,cs),
(823,232,o),
(770,302,o),
(686,356,cs),
(627,394,o),
(562,414,o),
(481,414,cs),
(444,414,o),
(375,402,o),
(343,387,c),
(359,326,l),
(397,337,o),
(448,339,o),
(471,339,cs),
(607,339,o),
(749,250,o),
(749,134,cs),
(749,107,o),
(734,76,o),
(679,76,cs),
(282,76,ls),
(168,76,o),
(127,139,o),
(127,213,cs),
(127,220,l),
(61,216,l),
(60,211,o),
(59,189,o),
(59,186,cs),
(59,71,o),
(136,0,o),
(273,0,cs)
);
}
);
width = 891;
},
{
anchors = (
{
name = bottom;
pos = (407,-98);
},
{
name = bottomright;
pos = (681,-68);
},
{
name = top;
pos = (464,474);
},
{
name = topright;
pos = (697,399);
}
);
layerId = "8E9A709A-C666-43E5-8831-9AE42D64DE83";
shapes = (
{
closed = 1;
nodes = (
(626,0,ls),
(727,0,o),
(756,52,o),
(756,113,cs),
(756,218,o),
(690,295,o),
(601,337,cs),
(550,361,o),
(492,374,o),
(435,374,cs),
(404,374,o),
(359,366,o),
(324,352,c),
(331,331,l),
(367,342,o),
(411,349,o),
(433,349,cs),
(580,349,o),
(729,262,o),
(729,113,cs),
(729,57,o),
(702,25,o),
(627,25,cs),
(270,25,ls),
(151,25,o),
(86,71,o),
(86,176,cs),
(86,180,l),
(63,179,l),
(62,173,o),
(62,168,o),
(62,165,cs),
(62,45,o),
(145,0,o),
(266,0,cs)
);
}
);
width = 834;
},
{
anchors = (
{
name = bottom;
pos = (468,-98);
},
{
name = bottomright;
pos = (813,-68);
},
{
name = top;
pos = (556,601);
},
{
name = topright;
pos = (830,526);
}
);
layerId = "7FDEFC05-49C3-46A7-9C1D-65D39809C804";
shapes = (
{
closed = 1;
nodes = (
(705,0,ls),
(855,0,o),
(910,99,o),
(910,199,cs),
(910,303,o),
(860,380,o),
(784,431,cs),
(708,482,o),
(637,501,o),
(543,501,cs),
(508,501,o),
(414,492,o),
(359,462,c),
(394,325,l),
(432,330,o),
(468,332,o),
(500,332,cs),
(649,332,o),
(753,266,o),
(753,214,cs),
(753,197,o),
(743,185,o),
(719,185,cs),
(324,185,ls),
(226,185,o),
(194,231,o),
(186,284,cs),
(185,291,l),
(47,288,l),
(45,273,o),
(45,257,o),
(45,251,cs),
(45,77,o),
(171,0,o),
(357,0,cs)
);
}
);
width = 966;
}
);
note = uni0712;
unicode = 1810;
},
{
glyphname = uni0712.fina;
lastChange = "2022-12-16 12:05:34 +0000";
layers = (
{
anchors = (
{
name = bottom;
pos = (436,-98);
},
{
name = bottomright;
pos = (747,-104);
},
{
name = top;
pos = (504,512);
},
{
name = topright;
pos = (749,439);
}
);
layerId = m01;
shapes = (
{
closed = 1;
nodes = (
(896,0,l),
(896,76,l),
(872,76,ls),
(853,76,o),
(828,76,o),
(804,74,c),
(803,78,l),
(817,95,o),
(823,122,o),
(823,146,cs),
(823,233,o),
(767,305,o),
(686,356,cs),
(627,393,o),
(562,414,o),
(481,414,cs),
(444,414,o),
(375,402,o),
(343,387,c),
(359,326,l),
(397,337,o),
(448,339,o),
(471,339,cs),
(607,339,o),
(749,250,o),
(749,134,cs),
(749,107,o),
(734,76,o),
(679,76,cs),
(282,76,ls),
(168,76,o),
(127,139,o),
(127,213,cs),
(127,220,l),
(61,216,l),
(60,211,o),
(59,189,o),
(59,186,cs),
(59,71,o),
(136,0,o),
(273,0,cs)
);
}
);
width = 896;
},
{
anchors = (
{
name = bottom;
pos = (407,-98);
},
{
name = bottomright;
pos = (680,-104);
},
{
name = top;
pos = (464,474);
},
{
name = topright;
pos = (696,400);
}
);
layerId = "8E9A709A-C666-43E5-8831-9AE42D64DE83";
shapes = (
{
closed = 1;
nodes = (
(829,0,l),
(829,25,l),
(780,25,ls),
(761,25,o),
(729,24,o),
(707,23,c),
(707,24,l),
(735,38,o),
(756,67,o),
(756,113,cs),
(756,223,o),
(684,298,o),
(601,337,cs),
(548,362,o),
(492,374,o),
(435,374,cs),
(404,374,o),
(359,366,o),
(324,352,c),
(331,331,l),
(367,342,o),
(411,349,o),
(433,349,cs),
(580,349,o),
(729,262,o),
(729,112,cs),
(729,58,o),
(702,25,o),
(627,25,cs),
(270,25,ls),
(151,25,o),
(86,71,o),
(86,176,cs),
(86,180,l),
(63,179,l),
(62,173,o),
(62,168,o),
(62,165,cs),
(62,45,o),
(145,0,o),
(266,0,cs)
);
}
);
width = 829;
},
{
anchors = (
{
name = bottom;
pos = (469,-98);
},
{
name = bottomright;
pos = (813,-104);
},
{
name = top;
pos = (556,600);
},
{
name = topright;
pos = (830,525);
}
);
layerId = "7FDEFC05-49C3-46A7-9C1D-65D39809C804";
shapes = (
{
closed = 1;
nodes = (
(991,0,l),
(991,185,l),
(955,185,ls),
(950,185,o),
(917,185,o),
(908,183,c),
(908,185,ls),
(909,190,o),
(910,210,o),
(910,213,cs),
(910,301,o),
(860,380,o),
(784,431,cs),
(708,482,o),
(637,501,o),
(543,501,cs),
(508,501,o),
(414,492,o),
(359,462,c),
(394,325,l),
(432,330,o),
(468,332,o),
(500,332,cs),
(650,332,o),
(753,266,o),
(753,214,cs),
(753,197,o),
(743,185,o),
(719,185,cs),
(324,185,ls),
(226,185,o),
(194,231,o),
(186,284,cs),
(185,291,l),
(47,288,l),
(45,273,o),
(45,257,o),
(45,251,cs),
(45,77,o),
(171,0,o),
(357,0,cs)
);
}
);
width = 991;
}
);
note = uni0712.fina;
},
{
glyphname = uni0712.medi;
lastChange = "2022-12-16 12:05:34 +0000";
layers = (
{
anchors = (
{
name = bottom;
pos = (207,-98);
},
{
name = bottomright;
pos = (464,-104);
},
{
name = top;
pos = (226,513);
},
{
name = topright;
pos = (480,439);
}
);
layerId = m01;
shapes = (
{
closed = 1;
nodes = (
(612,0,l),
(612,76,l),
(587,76,ls),
(568,76,o),
(543,76,o),
(520,74,c),
(518,78,l),
(533,95,o),
(539,123,o),
(539,146,cs),
(539,233,o),
(483,304,o),
(401,356,cs),
(342,394,o),
(278,414,o),
(196,414,cs),
(159,414,o),
(91,402,o),
(58,387,c),
(75,326,l),
(112,337,o),
(163,339,o),
(186,339,cs),
(323,339,o),
(464,250,o),
(464,134,cs),
(464,107,o),
(449,76,o),
(394,76,cs),
(0,76,ls),
(-21,76,o),
(-39,61,o),
(-39,38,cs),
(-39,14,o),
(-21,0,o),
(0,0,cs)
);
}
);
width = 612;
},
{
anchors = (
{
name = bottom;
pos = (207,-98);
},
{
name = bottomright;
pos = (426,-104);
},
{
name = top;
pos = (209,474);
},
{
name = topright;
pos = (441,399);
}
);
layerId = "8E9A709A-C666-43E5-8831-9AE42D64DE83";
shapes = (
{
closed = 1;
nodes = (
(574,0,l),
(574,25,l),
(525,25,ls),
(506,25,o),
(474,24,o),
(452,23,c),
(452,24,l),
(480,38,o),
(501,67,o),
(501,113,cs),
(501,223,o),
(429,298,o),
(346,337,cs),
(293,362,o),
(237,374,o),
(180,374,cs),
(149,374,o),
(104,367,o),
(69,353,c),
(76,332,l),
(112,343,o),
(157,349,o),
(178,349,cs),
(325,349,o),
(474,262,o),
(474,112,cs),
(474,58,o),
(447,25,o),
(372,25,cs),
(0,25,ls),
(-19,25,o),
(-40,21,o),
(-40,13,cs),
(-40,4,o),
(-19,0,o),
(0,0,cs)
);
}
);
width = 574;
},
{
anchors = (
{
name = bottom;
pos = (237,-98);
},
{
name = bottomright;
pos = (528,-104);
},
{
name = top;
pos = (252,600);
},
{
name = topright;
pos = (539,526);
}
);
layerId = "7FDEFC05-49C3-46A7-9C1D-65D39809C804";
shapes = (
{
closed = 1;
nodes = (
(707,0,l),
(707,185,l),
(671,185,ls),
(666,185,o),
(633,185,o),
(624,183,c),
(624,185,ls),
(625,190,o),
(626,210,o),
(626,213,cs),
(626,301,o),
(575,379,o),
(498,429,cs),
(422,479,o),
(348,501,o),
(237,501,cs),
(194,501,o),
(100,489,o),
(49,462,c),
(84,325,l),
(122,330,o),
(167,332,o),
(204,332,cs),
(353,332,o),
(469,266,o),
(469,214,cs),
(469,197,o),
(459,185,o),
(435,185,cs),
(0,185,ls),
(-24,185,o),
(-40,141,o),
(-40,92,cs),
(-40,42,o),
(-24,0,o),
(0,0,cs)
);
}
);
width = 707;
}
);
note = uni0712.medi;
},
{
glyphname = uni0712.init;
lastChange = "2022-12-16 12:05:34 +0000";
layers = (
{
anchors = (
{
name = bottom;
pos = (207,-98);
},
{
name = bottomright;
pos = (464,-68);
},
{
name = top;
pos = (225,514);
},
{
name = topright;
pos = (480,438);
}
);
layerId = m01;
shapes = (
{
closed = 1;
nodes = (
(379,0,ls),
(500,0,o),
(538,60,o),
(538,131,cs),
(538,232,o),
(485,301,o),
(401,356,cs),
(343,394,o),
(278,414,o),
(196,414,cs),
(159,414,o),
(91,402,o),
(58,387,c),
(75,326,l),
(112,337,o),
(163,339,o),
(186,339,cs),
(323,339,o),
(464,250,o),
(464,134,cs),
(464,107,o),
(449,76,o),
(394,76,cs),
(0,76,ls),
(-21,76,o),
(-39,61,o),
(-39,38,cs),
(-39,14,o),
(-21,0,o),
(0,0,cs)
);
}
);
width = 606;
},
{
anchors = (
{
name = bottom;
pos = (207,-98);
},
{
name = bottomright;
pos = (426,-68);
},
{
name = top;
pos = (209,474);
},
{
name = topright;
pos = (442,399);
}
);
layerId = "8E9A709A-C666-43E5-8831-9AE42D64DE83";
shapes = (
{
closed = 1;
nodes = (
(371,0,ls),
(472,0,o),
(501,52,o),
(501,113,cs),
(501,218,o),
(435,295,o),
(346,337,cs),
(295,361,o),
(238,374,o),
(180,374,cs),
(149,374,o),
(104,367,o),
(69,353,c),
(76,332,l),
(112,343,o),
(157,349,o),
(178,349,cs),
(325,349,o),
(474,262,o),
(474,113,cs),
(474,57,o),
(447,25,o),
(372,25,cs),
(0,25,ls),
(-19,25,o),
(-40,21,o),
(-40,13,cs),
(-40,4,o),
(-19,0,o),
(0,0,cs)
);
}
);
width = 579;
},
{
anchors = (
{
name = bottom;
pos = (232,-98);
},
{
name = bottomright;
pos = (528,-68);
},
{
name = top;
pos = (252,600);
},
{
name = topright;
pos = (540,525);
}
);
layerId = "7FDEFC05-49C3-46A7-9C1D-65D39809C804";
shapes = (
{
closed = 1;
nodes = (
(421,0,ls),
(571,0,o),
(626,101,o),
(626,194,cs),
(626,304,o),
(575,378,o),
(498,429,cs),
(422,479,o),
(328,501,o),
(232,501,cs),
(189,501,o),
(100,489,o),
(49,462,c),
(84,323,l),
(122,330,o),
(167,332,o),
(204,332,cs),
(355,332,o),
(470,265,o),
(470,214,cs),
(470,197,o),
(460,185,o),
(436,185,cs),
(0,185,ls),
(-24,185,o),
(-40,141,o),
(-40,92,cs),
(-40,42,o),
(-24,0,o),
(0,0,cs)
);
}
);
width = 682;
}
);
note = uni0712.init;
},
{
glyphname = uni0713;
lastChange = "2022-12-16 12:05:34 +0000";
layers = (
{
anchors = (
{
name = bottom;
pos = (443,-444);
},
{
name = bottomright;
pos = (693,-477);
},
{
name = top;
pos = (390,356);
},
{
name = topright;
pos = (507,161);
}
);
layerId = m01;
shapes = (
{
closed = 1;
nodes = (
(523,-328,ls),
(584,-374,o),
(634,-391,o),
(683,-391,cs),
(794,-391,o),
(843,-319,o),
(843,-259,cs),
(843,-220,o),
(828,-189,o),
(787,-159,cs),
(389,139,l),
(344,76,l),
(744,-220,ls),
(759,-231,o),
(767,-244,o),
(767,-259,cs),
(767,-292,o),
(731,-315,o),
(685,-315,cs),
(642,-315,o),
(610,-296,o),
(580,-273,cs),
(214,0,ls),
(157,42,o),
(132,85,o),
(132,138,cs),
(132,161,o),
(137,178,o),
(147,199,c),
(91,234,l),
(70,207,o),
(59,169,o),
(59,130,cs),
(59,60,o),
(93,-6,o),
(165,-60,cs)
);
}
);
width = 848;
},
{
anchors = (
{
name = bottom;
pos = (409,-429);
},
{
name = bottomright;
pos = (658,-461);
},
{
name = top;
pos = (371,331);
},
{
name = topright;
pos = (488,138);
}
);
layerId = "8E9A709A-C666-43E5-8831-9AE42D64DE83";
shapes = (
{
closed = 1;
nodes = (
(501,-319,ls),
(553,-358,o),
(599,-374,o),
(644,-374,cs),
(739,-374,o),
(782,-320,o),
(782,-268,cs),
(782,-226,o),
(760,-199,o),
(724,-172,cs),
(350,109,l),
(335,89,l),
(708,-191,ls),
(743,-217,o),
(756,-240,o),
(756,-267,cs),
(756,-319,o),
(706,-349,o),
(646,-349,cs),
(595,-349,o),
(551,-325,o),
(516,-299,cs),
(179,-45,ls),
(116,2,o),
(87,45,o),
(87,109,cs),
(87,134,o),
(92,169,o),
(104,188,c),
(86,199,l),
(68,175,o),
(62,133,o),
(62,106,cs),
(62,37,o),
(97,-15,o),
(164,-65,cs)
);
}
);
width = 776;
},
{
anchors = (
{
name = bottom;
pos = (520,-463);
},
{
name = bottomright;
pos = (799,-496);
},
{
name = top;
pos = (449,454);
},
{
name = topright;
pos = (616,279);
}
);
layerId = "7FDEFC05-49C3-46A7-9C1D-65D39809C804";
shapes = (
{
closed = 1;
nodes = (
(570,-326,ls),
(648,-384,o),
(711,-410,o),
(789,-410,cs),
(922,-410,o),
(1011,-322,o),
(1011,-216,cs),
(1011,-140,o),
(966,-91,o),
(909,-48,cs),
(498,257,l),
(395,122,l),
(826,-190,ls),
(846,-205,o),
(852,-217,o),
(852,-228,cs),
(852,-245,o),
(838,-255,o),
(814,-255,cs),
(781,-255,o),
(765,-245,o),
(734,-223,cs),
(295,99,ls),
(244,136,o),
(206,175,o),
(206,226,cs),
(206,245,o),
(211,267,o),
(217,281,c),
(94,350,l),
(64,318,o),
(45,263,o),
(45,200,cs),
(45,93,o),
(107,13,o),
(191,-48,cs)
);
}
);
width = 1016;
}
);
note = uni0713;
unicode = 1811;
},
{
glyphname = uni0713.fina;
lastChange = "2022-12-16 12:05:34 +0000";
layers = (
{
anchors = (
{
name = bottom;
pos = (443,-444);
},
{
name = bottomright;
pos = (693,-477);
},
{
name = top;
pos = (391,357);
},
{
name = topright;
pos = (507,161);
}
);
layerId = m01;
shapes = (
{
closed = 1;
nodes = (
(523,-328,ls),
(584,-374,o),
(634,-391,o),
(683,-391,cs),
(794,-391,o),
(843,-319,o),
(843,-259,cs),
(843,-220,o),
(828,-189,o),
(787,-159,cs),
(645,-53,ls),
(629,-41,o),
(567,1,o),
(556,7,c),
(556,10,l),
(586,5,o),
(626,0,o),
(642,0,cs),
(647,0,l),
(647,76,l),
(473,76,l),
(389,139,l),
(344,76,l),
(744,-220,ls),
(759,-231,o),
(767,-244,o),
(767,-259,cs),
(767,-292,o),
(731,-315,o),
(685,-315,cs),
(642,-315,o),
(610,-296,o),
(580,-273,cs),
(214,0,ls),
(157,42,o),
(132,85,o),
(132,138,cs),
(132,161,o),
(137,178,o),
(147,199,c),
(91,234,l),
(70,207,o),
(59,169,o),
(59,130,cs),
(59,60,o),
(93,-6,o),
(165,-60,cs)
);
}
);
width = 647;
},
{
anchors = (
{
name = bottom;
pos = (409,-428);
},
{
name = bottomright;
pos = (658,-461);
},
{
name = top;
pos = (371,331);
},
{
name = topright;
pos = (488,136);
}
);
layerId = "8E9A709A-C666-43E5-8831-9AE42D64DE83";
shapes = (
{
closed = 1;
nodes = (
(501,-319,ls),
(553,-358,o),
(599,-374,o),
(644,-374,cs),
(739,-374,o),
(782,-320,o),
(782,-268,cs),
(782,-226,o),
(760,-199,o),
(724,-172,cs),
(583,-66,ls),
(567,-54,o),
(501,-5,o),
(490,1,c),
(490,3,l),
(507,1,o),
(546,0,o),
(562,0,cs),
(602,0,l),
(602,25,l),
(462,25,l),
(363,99,l),
(348,79,l),
(708,-191,ls),
(743,-217,o),
(756,-240,o),
(756,-267,cs),
(756,-319,o),
(706,-349,o),
(646,-349,cs),
(595,-349,o),
(551,-325,o),
(516,-299,cs),
(179,-45,ls),
(116,2,o),
(87,45,o),
(87,109,cs),
(87,134,o),
(92,169,o),
(104,188,c),
(86,199,l),
(68,175,o),
(62,133,o),
(62,106,cs),
(62,37,o),
(97,-15,o),
(164,-65,cs)
);
}
);
width = 602;
},
{
anchors = (
{
name = bottom;
pos = (520,-463);
},
{
name = bottomright;
pos = (799,-496);
},
{
name = top;
pos = (449,454);
},
{
name = topright;
pos = (616,279);
}
);
layerId = "7FDEFC05-49C3-46A7-9C1D-65D39809C804";
shapes = (
{
closed = 1;
nodes = (
(570,-326,ls),
(648,-384,o),
(711,-410,o),
(789,-410,cs),
(922,-410,o),
(1011,-322,o),
(1011,-216,cs),
(1011,-140,o),
(966,-91,o),
(909,-48,cs),
(893,-36,ls),
(877,-24,o),
(822,10,o),
(790,28,c),
(800,39,l),
(843,18,o),
(884,0,o),
(916,0,cs),
(921,0,l),
(921,185,l),
(596,185,l),
(498,257,l),
(395,122,l),
(826,-190,ls),
(846,-205,o),
(852,-217,o),
(852,-228,cs),
(852,-245,o),
(838,-255,o),
(814,-255,cs),
(781,-255,o),
(765,-245,o),
(734,-223,cs),
(295,99,ls),
(244,136,o),
(206,175,o),
(206,226,cs),
(206,245,o),
(211,267,o),
(217,281,c),
(94,350,l),
(64,318,o),
(45,263,o),
(45,200,cs),
(45,93,o),
(107,13,o),
(191,-48,cs)
);
}
);
width = 921;
}
);
note = uni0713.fina;
},
{
glyphname = uni0713.medi;
lastChange = "2022-12-16 12:05:34 +0000";
layers = (
{
anchors = (
{
name = bottom;
pos = (428,-444);
},
{
name = bottomright;
pos = (677,-477);
},
{
name = top;
pos = (373,357);
},
{
name = topright;
pos = (492,161);
}
);
layerId = m01;
shapes = (
{
closed = 1;
nodes = (
(456,76,l),
(374,139,l),
(329,76,l),
(728,-220,ls),
(743,-231,o),
(751,-244,o),
(751,-259,cs),
(751,-292,o),
(716,-315,o),
(669,-315,cs),
(626,-315,o),
(595,-296,o),
(564,-273,cs),
(187,9,ls),
(145,40,o),
(94,76,o),
(26,76,cs),
(0,76,ls),
(-21,76,o),
(-39,62,o),
(-39,38,cs),
(-39,15,o),
(-21,0,o),
(0,0,cs),
(17,0,ls),
(64,0,o),
(102,-24,o),
(138,-51,cs),
(508,-328,ls),
(568,-373,o),
(619,-391,o),
(667,-391,cs),
(779,-391,o),
(828,-319,o),
(828,-259,cs),
(828,-220,o),
(812,-190,o),
(771,-159,cs),
(629,-53,ls),
(614,-42,o),
(551,1,o),
(540,7,c),
(540,10,l),
(570,5,o),
(611,0,o),
(626,0,cs),
(631,0,l),
(631,76,l)
);
}
);
width = 631;
},
{
anchors = (
{
name = bottom;
pos = (391,-429);
},
{
name = bottomright;
pos = (640,-462);
},
{
name = top;
pos = (354,331);
},
{
name = topright;
pos = (471,135);
}
);
layerId = "8E9A709A-C666-43E5-8831-9AE42D64DE83";
shapes = (
{
closed = 1;
nodes = (
(445,25,l),
(346,99,l),
(331,79,l),
(691,-191,ls),
(726,-217,o),
(739,-240,o),
(739,-267,cs),
(739,-319,o),
(689,-349,o),
(629,-349,cs),
(578,-349,o),
(534,-325,o),
(499,-299,cs),
(158,-42,ls),
(107,-3,o),
(63,25,o),
(5,25,cs),
(0,25,ls),
(-19,25,o),
(-40,21,o),
(-40,13,cs),
(-40,4,o),
(-19,0,o),
(0,0,cs),
(5,0,ls),
(58,0,o),
(98,-28,o),
(141,-60,cs),
(484,-319,ls),
(536,-358,o),
(582,-374,o),
(627,-374,cs),
(722,-374,o),
(765,-320,o),
(765,-268,cs),
(765,-226,o),
(743,-199,o),
(707,-172,cs),
(566,-66,ls),
(550,-54,o),
(484,-5,o),
(473,1,c),
(473,3,l),
(490,1,o),
(529,0,o),
(545,0,cs),
(586,0,l),
(586,25,l)
);
}
);
width = 586;
},
{
anchors = (
{
name = bottom;
pos = (447,-462);
},
{
name = bottomright;
pos = (727,-493);
},
{
name = top;
pos = (343,478);
},
{
name = topright;
pos = (510,304);
}
);
layerId = "7FDEFC05-49C3-46A7-9C1D-65D39809C804";
shapes = (
{
closed = 1;
nodes = (
(523,185,l),
(391,282,l),
(288,147,l),
(753,-190,ls),
(773,-205,o),
(779,-217,o),
(779,-228,cs),
(779,-245,o),
(765,-255,o),
(741,-255,cs),
(708,-255,o),
(692,-245,o),
(661,-223,cs),
(237,88,ls),
(162,143,o),
(102,185,o),
(21,185,cs),
(0,185,ls),
(-24,185,o),
(-40,141,o),
(-40,92,cs),
(-40,42,o),
(-24,0,o),
(0,0,cs),
(5,0,ls),
(50,0,o),
(82,-22,o),
(115,-46,cs),
(497,-326,ls),
(575,-383,o),
(636,-410,o),
(716,-410,cs),
(849,-410,o),
(938,-322,o),
(938,-216,cs),
(938,-140,o),
(893,-91,o),
(836,-48,cs),
(820,-36,ls),
(804,-24,o),
(749,10,o),
(717,28,c),
(727,39,l),
(770,18,o),
(811,0,o),
(843,0,cs),
(848,0,l),
(848,185,l)
);
}
);
width = 848;
}
);
note = uni0713.medi;
},
{
glyphname = uni0713.init;
lastChange = "2022-12-16 12:05:34 +0000";
layers = (
{
anchors = (
{
name = bottom;
pos = (428,-444);
},
{
name = bottomright;
pos = (677,-477);
},
{
name = top;
pos = (375,357);
},
{
name = topright;
pos = (492,161);
}
);
layerId = m01;
shapes = (
{
closed = 1;
nodes = (
(348,158,l),
(303,95,l),
(728,-220,ls),
(743,-231,o),
(751,-244,o),
(751,-259,cs),
(751,-292,o),
(716,-315,o),
(669,-315,cs),
(626,-315,o),
(595,-296,o),
(564,-273,cs),
(187,9,ls),
(145,41,o),
(94,76,o),
(26,76,cs),
(0,76,ls),
(-21,76,o),
(-39,62,o),
(-39,38,cs),
(-39,15,o),
(-21,0,o),
(0,0,cs),
(17,0,ls),
(64,0,o),
(102,-24,o),
(138,-51,cs),
(508,-328,ls),
(568,-373,o),
(619,-391,o),
(667,-391,cs),
(779,-391,o),
(828,-319,o),
(828,-259,cs),
(828,-220,o),
(812,-189,o),
(771,-159,cs)
);
}
);
width = 833;
},
{
anchors = (
{
name = bottom;
pos = (391,-429);
},
{
name = bottomright;
pos = (641,-461);
},
{
name = top;
pos = (354,330);
},
{
name = topright;
pos = (472,135);
}
);
layerId = "8E9A709A-C666-43E5-8831-9AE42D64DE83";
shapes = (
{
closed = 1;
nodes = (
(333,109,l),
(318,89,l),
(691,-191,ls),
(726,-217,o),
(739,-240,o),
(739,-267,cs),
(739,-319,o),
(689,-349,o),
(629,-349,cs),
(578,-349,o),
(534,-325,o),
(499,-299,cs),
(158,-42,ls),
(107,-3,o),
(63,25,o),
(5,25,cs),
(0,25,ls),
(-17,25,o),
(-40,21,o),
(-40,13,cs),
(-40,4,o),
(-17,0,o),
(0,0,cs),
(5,0,ls),
(58,0,o),
(98,-28,o),
(141,-60,cs),
(484,-319,ls),
(536,-358,o),
(582,-374,o),
(627,-374,cs),
(722,-374,o),
(765,-320,o),
(765,-268,cs),
(765,-226,o),
(743,-199,o),
(707,-172,cs)
);
}
);
width = 759;
},
{
anchors = (
{
name = bottom;
pos = (449,-463);
},
{
name = bottomright;
pos = (728,-496);
},
{
name = top;
pos = (330,488);
},
{
name = topright;
pos = (495,313);
}
);
layerId = "7FDEFC05-49C3-46A7-9C1D-65D39809C804";
shapes = (
{
closed = 1;
nodes = (
(377,291,l),
(274,156,l),
(753,-190,ls),
(773,-205,o),
(779,-217,o),
(779,-228,cs),
(779,-245,o),
(765,-255,o),
(741,-255,cs),
(708,-255,o),
(692,-245,o),
(661,-223,cs),
(237,88,ls),
(162,143,o),
(102,185,o),
(21,185,cs),
(0,185,ls),
(-24,185,o),
(-40,141,o),
(-40,92,cs),
(-40,42,o),
(-24,0,o),
(0,0,cs),
(5,0,ls),
(50,0,o),
(82,-22,o),
(115,-46,cs),
(497,-326,ls),
(575,-383,o),
(636,-410,o),
(716,-410,cs),
(849,-410,o),
(938,-322,o),
(938,-216,cs),
(938,-140,o),
(893,-90,o),
(836,-48,cs)
);
}
);
width = 943;
}
);
note = uni0713.init;
},
{
glyphname = uni0714;
lastChange = "2022-12-16 15:04:51 +0000";
layers = (
{
anchors = (
{
name = bottom;
pos = (443,-444);
},
{
name = bottomright;
pos = (693,-477);
},
{
name = top;
pos = (391,357);
},
{
name = topright;
pos = (507,161);
}
);
layerId = m01;
shapes = (
{
closed = 1;
nodes = (
(523,-328,ls),
(584,-373,o),
(634,-391,o),
(683,-391,cs),
(794,-391,o),
(843,-319,o),
(843,-259,cs),
(843,-220,o),
(828,-189,o),
(787,-159,cs),
(389,139,l),
(344,76,l),
(744,-220,ls),
(759,-231,o),
(767,-244,o),
(767,-259,cs),
(767,-292,o),
(731,-315,o),
(685,-315,cs),
(642,-315,o),
(610,-296,o),
(580,-273,cs),
(214,0,ls),
(157,42,o),
(132,85,o),
(132,138,cs),
(132,161,o),
(137,178,o),
(147,199,c),
(91,234,l),
(70,207,o),
(59,169,o),
(59,130,cs),
(59,60,o),
(92,-6,o),
(165,-60,cs)
);
},
{
pos = (16,0);
ref = centerdot;
}
);
width = 848;
},
{
anchors = (
{
name = bottom;
pos = (409,-430);
},
{
name = bottomright;
pos = (657,-464);
},
{
name = top;
pos = (371,331);
},
{
name = topright;
pos = (488,135);
}
);
layerId = "8E9A709A-C666-43E5-8831-9AE42D64DE83";
shapes = (
{
closed = 1;
nodes = (
(501,-319,ls),
(553,-358,o),
(599,-374,o),
(644,-374,cs),
(739,-374,o),
(782,-320,o),
(782,-268,cs),
(782,-226,o),
(760,-199,o),
(724,-172,cs),
(350,109,l),
(335,89,l),
(708,-191,ls),
(743,-217,o),
(756,-240,o),
(756,-267,cs),
(756,-319,o),
(706,-349,o),
(646,-349,cs),
(595,-349,o),
(551,-325,o),
(516,-299,cs),
(179,-45,ls),
(116,2,o),
(87,45,o),
(87,109,cs),
(87,134,o),
(92,169,o),
(104,188,c),
(86,199,l),
(68,175,o),
(62,133,o),
(62,106,cs),
(62,37,o),
(97,-15,o),
(164,-65,cs)
);
},
{
pos = (15,0);
ref = centerdot;
}
);
width = 776;
},
{
anchors = (
{
name = bottom;
pos = (520,-461);
},
{
name = bottomright;
pos = (800,-498);
},
{
name = top;
pos = (449,453);
},
{
name = topright;
pos = (617,279);
}
);
background = {
shapes = (
{
closed = 0;
nodes = (
(593,-21,l),
(591,-21,o),
(590,-21,o),
(588,-22,c),
(663,-79,l),
(663,-78,o),
(663,-78,o),
(663,-77,cs),
(663,-72,l)
);
},
{
closed = 0;
nodes = (
(609,-132,l),
(614,-131,o),
(619,-131,o),
(624,-129,c),
(541,-65,l),
(540,-69,o),
(540,-73,o),
(540,-77,cs),
(540,-81,l)
);
},
{
closed = 1;
nodes = (
(588,-22,l),
(565,-26,o),
(546,-39,o),
(541,-65,c),
(624,-129,l),
(645,-123,o),
(662,-108,o),
(663,-79,c)
);
}
);
};
layerId = "7FDEFC05-49C3-46A7-9C1D-65D39809C804";
shapes = (
{
closed = 1;
nodes = (
(570,-326,ls),
(648,-383,o),
(711,-410,o),
(789,-410,cs),
(922,-410,o),
(1011,-322,o),
(1011,-216,cs),
(1011,-140,o),
(966,-91,o),
(909,-48,cs),
(498,257,l),
(395,122,l),
(826,-190,l),
(846,-205,o),
(852,-217,o),
(852,-228,cs),
(852,-245,o),
(838,-255,o),
(814,-255,cs),
(781,-255,o),
(765,-245,o),
(734,-223,c),
(295,99,l),
(244,136,o),
(206,175,o),
(206,226,cs),
(206,245,o),
(211,267,o),
(217,281,c),
(94,350,l),
(64,318,o),
(45,263,o),
(45,200,cs),
(45,93,o),
(107,13,o),
(191,-48,cs)
);
},
{
pos = (70,-1);
ref = centerdot;
}
);
width = 1016;
}
);
note = uni0714;
unicode = 1812;
},
{
glyphname = uni0714.fina;
lastChange = "2022-12-16 15:06:20 +0000";
layers = (
{
anchors = (
{
name = bottom;
pos = (443,-444);
},
{
name = bottomright;
pos = (693,-478);
},
{
name = top;
pos = (391,357);
},
{
name = topright;
pos = (508,161);
}
);
layerId = m01;
shapes = (
{
closed = 1;
nodes = (
(523,-328,ls),
(584,-374,o),
(634,-391,o),
(683,-391,cs),
(794,-391,o),
(843,-319,o),
(843,-259,cs),
(843,-220,o),
(828,-189,o),
(787,-159,cs),
(645,-53,ls),
(629,-41,o),
(567,1,o),
(556,7,c),
(556,10,l),
(586,5,o),
(626,0,o),
(642,0,cs),
(647,0,l),
(647,76,l),
(473,76,l),
(389,139,l),
(344,76,l),
(744,-220,ls),
(759,-231,o),
(767,-244,o),
(767,-259,cs),
(767,-292,o),
(731,-315,o),
(685,-315,cs),
(642,-315,o),
(610,-296,o),
(580,-273,cs),
(214,0,ls),
(157,42,o),
(132,85,o),
(132,138,cs),
(132,161,o),
(137,178,o),
(147,199,c),
(91,234,l),
(70,207,o),
(59,169,o),
(59,130,cs),
(59,60,o),
(93,-5,o),
(166,-60,cs)
);
},
{
pos = (16,0);
ref = centerdot;
}
);
width = 647;
},
{
anchors = (
{
name = bottom;
pos = (408,-430);
},
{
name = bottomright;
pos = (658,-462);
},
{
name = top;
pos = (371,331);
},
{
name = topright;
pos = (488,136);
}
);
background = {
shapes = (
{
closed = 1;
nodes = (
(392,-112,o),
(396,-125,o),
(414,-125,cs),
(436,-125,o),
(438,-112,o),
(438,-97,cs),
(438,-83,o),
(436,-69,o),
(414,-69,cs),
(396,-69,o),
(392,-83,o),
(392,-97,cs)
);
}
);
};
layerId = "8E9A709A-C666-43E5-8831-9AE42D64DE83";
shapes = (
{
closed = 1;
nodes = (
(501,-319,ls),
(553,-358,o),
(599,-374,o),
(644,-374,cs),
(739,-374,o),
(782,-320,o),
(782,-268,cs),
(782,-226,o),
(760,-199,o),
(724,-172,cs),
(583,-66,ls),
(567,-54,o),
(501,-5,o),
(490,1,c),
(490,3,l),
(507,1,o),
(546,0,o),
(562,0,cs),
(602,0,l),
(602,25,l),
(462,25,l),
(363,99,l),
(348,79,l),
(708,-191,ls),
(743,-217,o),
(756,-240,o),
(756,-267,cs),
(756,-319,o),
(706,-349,o),
(646,-349,cs),
(595,-349,o),
(551,-325,o),
(516,-299,cs),
(179,-45,ls),
(116,2,o),
(87,45,o),
(87,109,cs),
(87,134,o),
(92,169,o),
(104,188,c),
(86,199,l),
(68,175,o),
(62,133,o),
(62,106,cs),
(62,37,o),
(97,-15,o),
(164,-65,cs)
);
},
{
pos = (13,0);
ref = centerdot;
}
);
width = 602;
},
{
anchors = (
{
name = bottom;
pos = (520,-463);
},
{
name = bottomright;
pos = (799,-496);
},
{
name = top;
pos = (448,455);
},
{
name = topright;
pos = (616,279);
}
);
layerId = "7FDEFC05-49C3-46A7-9C1D-65D39809C804";
shapes = (
{
closed = 1;
nodes = (
(570,-326,ls),
(648,-383,o),
(711,-410,o),
(789,-410,cs),
(922,-410,o),
(1011,-322,o),
(1011,-216,cs),
(1011,-140,o),
(966,-91,o),
(909,-48,cs),
(893,-36,ls),
(877,-24,o),
(822,10,o),
(790,28,c),
(800,39,l),
(843,18,o),
(884,0,o),
(916,0,cs),
(921,0,l),
(921,185,l),
(596,185,l),
(498,257,l),
(395,122,l),
(826,-190,l),
(846,-205,o),
(852,-217,o),
(852,-228,cs),
(852,-245,o),
(838,-255,o),
(814,-255,cs),
(781,-255,o),
(765,-245,o),
(734,-223,c),
(295,99,l),
(244,136,o),
(206,175,o),
(206,226,cs),
(206,245,o),
(211,267,o),
(217,281,c),
(94,350,l),
(64,318,o),
(45,263,o),
(45,200,cs),
(45,93,o),
(107,13,o),
(191,-48,cs)
);
},
{
pos = (70,0);
ref = centerdot;
}
);
width = 921;
}
);
note = uni0714.fina;
},
{
glyphname = uni0714.medi;
lastChange = "2022-12-16 15:03:31 +0000";
layers = (
{
anchors = (
{
name = bottom;
pos = (428,-444);
},
{
name = bottomright;
pos = (677,-476);
},
{
name = top;
pos = (375,357);
},
{
name = topright;
pos = (492,161);
}
);
layerId = m01;
shapes = (
{
closed = 1;
nodes = (
(456,76,l),
(374,139,l),
(329,76,l),
(728,-220,ls),
(743,-231,o),
(751,-244,o),
(751,-259,cs),
(751,-292,o),
(716,-315,o),
(669,-315,cs),
(626,-315,o),
(595,-296,o),
(564,-273,cs),
(187,9,ls),
(145,41,o),
(94,76,o),
(26,76,cs),
(0,76,ls),
(-21,76,o),
(-39,62,o),
(-39,38,cs),
(-39,15,o),
(-21,0,o),
(0,0,cs),
(17,0,ls),
(64,0,o),
(102,-24,o),
(138,-51,cs),
(508,-328,ls),
(568,-373,o),
(619,-391,o),
(667,-391,cs),
(779,-391,o),
(828,-319,o),
(828,-259,cs),
(828,-220,o),
(812,-190,o),
(771,-159,cs),
(629,-53,ls),
(614,-42,o),
(551,1,o),
(540,7,c),
(540,10,l),
(570,5,o),
(611,0,o),
(626,0,cs),
(631,0,l),
(631,76,l)
);
},
{
ref = centerdot;
}
);
width = 631;
},
{
anchors = (
{
name = bottom;
pos = (391,-428);
},
{
name = bottomright;
pos = (641,-462);
},
{
name = top;
pos = (354,332);
},
{
name = topright;
pos = (471,136);
}
);
background = {
shapes = (
{
closed = 1;
nodes = (
(379,-112,o),
(383,-125,o),
(401,-125,cs),
(423,-125,o),
(425,-112,o),
(425,-97,cs),
(425,-83,o),
(423,-69,o),
(401,-69,cs),
(383,-69,o),
(379,-83,o),
(379,-97,cs)
);
}
);
};
layerId = "8E9A709A-C666-43E5-8831-9AE42D64DE83";
shapes = (
{
closed = 1;
nodes = (
(445,25,l),
(346,99,l),
(331,79,l),
(691,-191,ls),
(726,-217,o),
(739,-240,o),
(739,-267,cs),
(739,-319,o),
(689,-349,o),
(629,-349,cs),
(578,-349,o),
(534,-325,o),
(499,-299,cs),
(158,-42,ls),
(107,-3,o),
(63,25,o),
(5,25,cs),
(0,25,ls),
(-19,25,o),
(-40,21,o),
(-40,13,cs),
(-40,4,o),
(-19,0,o),
(0,0,cs),
(5,0,ls),
(58,0,o),
(98,-28,o),
(141,-60,cs),
(484,-319,ls),
(536,-358,o),
(582,-374,o),
(627,-374,cs),
(722,-374,o),
(765,-320,o),
(765,-268,cs),
(765,-226,o),
(743,-199,o),
(707,-172,cs),
(566,-66,ls),
(550,-54,o),
(484,-5,o),
(473,1,c),
(473,3,l),
(490,1,o),
(529,0,o),
(545,0,cs),
(586,0,l),
(586,25,l)
);
},
{
ref = centerdot;
}
);
width = 586;
},
{
anchors = (
{
name = bottom;
pos = (448,-465);
},
{
name = bottomright;
pos = (727,-496);
},
{
name = top;
pos = (342,480);
},
{
name = topright;
pos = (509,304);
}
);
layerId = "7FDEFC05-49C3-46A7-9C1D-65D39809C804";
shapes = (
{
closed = 1;
nodes = (
(523,185,l),
(391,282,l),
(288,147,l),
(753,-190,l),
(773,-205,o),
(779,-217,o),
(779,-228,cs),
(779,-245,o),
(765,-255,o),
(741,-255,cs),
(708,-255,o),
(692,-245,o),
(661,-223,c),
(237,88,l),
(162,143,o),
(102,185,o),
(21,185,cs),
(0,185,ls),
(-24,185,o),
(-40,141,o),
(-40,92,cs),
(-40,42,o),
(-24,0,o),
(0,0,cs),
(5,0,ls),
(50,0,o),
(82,-22,o),
(115,-46,cs),
(497,-326,ls),
(575,-383,o),
(636,-410,o),
(716,-410,cs),
(849,-410,o),
(938,-322,o),
(938,-216,cs),
(938,-140,o),
(893,-91,o),
(836,-48,cs),
(820,-36,ls),
(804,-24,o),
(749,10,o),
(717,28,c),
(727,39,l),
(770,18,o),
(811,0,o),
(843,0,cs),
(848,0,l),
(848,185,l)
);
},
{
ref = centerdot;
}
);
width = 848;
}
);
note = uni0714.medi;
},
{
glyphname = uni0714.init;
lastChange = "2022-12-16 15:02:42 +0000";
layers = (
{
anchors = (
{
name = bottom;
pos = (428,-444);
},
{
name = bottomright;
pos = (677,-477);
},
{
name = top;
pos = (375,357);
},
{
name = topright;
pos = (492,161);
}
);
layerId = m01;
shapes = (
{
closed = 1;
nodes = (
(348,158,l),
(303,95,l),
(728,-220,ls),
(743,-231,o),
(751,-244,o),
(751,-259,cs),
(751,-292,o),
(716,-315,o),
(669,-315,cs),
(626,-315,o),
(595,-296,o),
(564,-273,cs),
(187,9,ls),
(145,41,o),
(94,76,o),
(26,76,cs),
(0,76,ls),
(-21,76,o),
(-39,62,o),
(-39,38,cs),
(-39,15,o),
(-21,0,o),
(0,0,cs),
(17,0,ls),
(64,0,o),
(102,-24,o),
(138,-51,cs),
(508,-328,ls),
(568,-373,o),
(619,-391,o),
(667,-391,cs),
(779,-391,o),
(828,-319,o),
(828,-259,cs),
(828,-220,o),
(812,-189,o),
(771,-159,cs)
);
},
{
ref = centerdot;
}
);
width = 833;
},
{
anchors = (
{
name = bottom;
pos = (390,-428);
},
{
name = bottomright;
pos = (641,-462);
},
{
name = top;
pos = (354,330);
},
{
name = topright;
pos = (472,135);
}
);
layerId = "8E9A709A-C666-43E5-8831-9AE42D64DE83";
shapes = (
{
closed = 1;
nodes = (
(333,109,l),
(318,89,l),
(691,-191,ls),
(726,-217,o),
(739,-240,o),
(739,-267,cs),
(739,-319,o),
(689,-349,o),
(629,-349,cs),
(578,-349,o),
(534,-325,o),
(499,-299,cs),
(158,-42,ls),
(107,-3,o),
(63,25,o),
(5,25,cs),
(0,25,ls),
(-17,25,o),
(-40,21,o),
(-40,13,cs),
(-40,4,o),
(-17,0,o),
(0,0,cs),
(5,0,ls),
(58,0,o),
(98,-28,o),
(141,-60,cs),
(484,-319,ls),
(536,-358,o),
(582,-374,o),
(627,-374,cs),
(722,-374,o),
(765,-320,o),
(765,-268,cs),
(765,-226,o),
(743,-199,o),
(707,-172,cs)
);
},
{
ref = centerdot;
}
);
width = 759;
},
{
anchors = (
{
name = bottom;
pos = (448,-464);
},
{
name = bottomright;
pos = (727,-496);
},
{
name = top;
pos = (328,488);
},
{
name = topright;
pos = (496,315);
}
);
layerId = "7FDEFC05-49C3-46A7-9C1D-65D39809C804";
shapes = (
{
closed = 1;
nodes = (
(377,291,l),
(274,156,l),
(753,-190,l),
(773,-205,o),
(779,-217,o),
(779,-228,cs),
(779,-245,o),
(765,-255,o),
(741,-255,cs),
(708,-255,o),
(692,-245,o),
(661,-223,c),
(237,88,l),
(162,143,o),
(102,185,o),
(21,185,cs),
(0,185,ls),
(-24,185,o),
(-40,141,o),
(-40,92,cs),
(-40,42,o),
(-24,0,o),
(0,0,cs),
(5,0,ls),
(50,0,o),
(82,-22,o),
(115,-46,cs),
(497,-326,ls),
(575,-383,o),
(636,-410,o),
(716,-410,cs),
(849,-410,o),
(938,-322,o),
(938,-216,cs),
(938,-140,o),
(893,-90,o),
(836,-48,cs)
);
},
{
ref = centerdot;
}
);
width = 943;
}
);
note = uni0714.init;
},
{
glyphname = uni0715;
lastChange = "2022-12-16 12:27:43 +0000";
layers = (
{
anchors = (
{
name = bottom;
pos = (155,-379);
},
{
name = bottomright;
pos = (300,-70);
},
{
name = top;
pos = (172,363);
},
{
name = topright;
pos = (331,298);
}
);
background = {
shapes = (
{
closed = 1;
nodes = (
(99,280,o),
(60,205,o),
(60,153,cs),
(60,104,o),
(84,72,o),
(133,32,cs),
(142,25,o),
(151,17,o),
(160,10,c),
(140,-21,o),
(116,-57,o),
(85,-89,c),
(132,-130,l),
(207,-53,o),
(290,42,o),
(290,135,cs),
(290,212,o),
(246,280,o),
(174,280,cs)
);
},
{
closed = 1;
nodes = (
(107,-298,o),
(127,-314,o),
(156,-314,cs),
(189,-314,o),
(208,-295,o),
(208,-258,cs),
(208,-221,o),
(189,-201,o),
(156,-201,cs),
(125,-201,o),
(107,-221,o),
(107,-258,cs)
);
}
);
};
layerId = m01;
shapes = (
{
closed = 1;
nodes = (
(107,-298,o),
(127,-314,o),
(156,-314,cs),
(189,-314,o),
(208,-295,o),
(208,-258,cs),
(208,-221,o),
(189,-201,o),
(156,-201,cs),
(125,-201,o),
(107,-221,o),
(107,-258,cs)
);
},
{
ref = uni0716;
}
);
width = 349;
},
{
anchors = (
{
name = bottom;
pos = (124,-277);
},
{
name = bottomright;
pos = (246,-38);
},
{
name = top;
pos = (147,300);
},
{
name = topright;
pos = (274,263);
}
);
layerId = "8E9A709A-C666-43E5-8831-9AE42D64DE83";
shapes = (
{
closed = 1;
nodes = (
(102,-198,o),
(106,-211,o),
(124,-211,cs),
(146,-211,o),
(148,-198,o),
(148,-183,cs),
(148,-169,o),
(146,-155,o),
(124,-155,cs),
(106,-155,o),
(102,-169,o),
(102,-183,cs)
);
},
{
ref = uni0716;
}
);
width = 289;
},
{
anchors = (
{
name = bottom;
pos = (194,-463);
},
{
name = bottomright;
pos = (351,-83);
},
{
name = top;
pos = (230,458);
},
{
name = topright;
pos = (376,377);
}
);
layerId = "7FDEFC05-49C3-46A7-9C1D-65D39809C804";
shapes = (
{
closed = 1;
nodes = (
(101,-373,o),
(146,-397,o),
(194,-397,cs),
(241,-397,o),
(288,-373,o),
(288,-313,cs),
(288,-251,o),
(241,-228,o),
(194,-228,cs),
(146,-228,o),
(101,-251,o),
(101,-313,cs)
);
},
{
ref = uni0716;
}
);
width = 435;
}
);
note = uni0715;
unicode = 1813;
},
{
glyphname = uni0715.fina;
lastChange = "2022-12-16 14:48:53 +0000";
layers = (
{
anchors = (
{
name = bottom;
pos = (122,-389);
},
{
name = bottomright;
pos = (245,-77);
},
{
name = top;
pos = (139,287);
},
{
name = topright;
pos = (233,254);
}
);
background = {
shapes = (
{
closed = 1;
nodes = (
(92,203,o),
(56,162,o),
(56,114,cs),
(56,68,o),
(78,39,o),
(122,14,c),
(117,-11,o),
(89,-60,o),
(59,-102,c),
(101,-138,l),
(141,-98,o),
(176,-41,o),
(195,4,c),
(217,1,o),
(266,0,o),
(275,0,c),
(275,76,l),
(266,76,o),
(226,77,o),
(212,83,c),
(213,92,o),
(213,96,o),
(213,100,cs),
(213,158,o),
(186,203,o),
(135,203,cs)
);
}
);
};
layerId = m01;
shapes = (
{
closed = 1;
nodes = (
(74,-308,o),
(94,-324,o),
(123,-324,cs),
(156,-324,o),
(175,-305,o),
(175,-268,cs),
(175,-231,o),
(156,-211,o),
(123,-211,cs),
(92,-211,o),
(74,-231,o),
(74,-268,cs)
);
},
{
ref = uni0716.fina;
}
);
width = 275;
},
{
anchors = (
{
name = bottom;
pos = (100,-286);
},
{
name = bottomright;
pos = (199,-74);
},
{
name = top;
pos = (111,220);
},
{
name = topright;
pos = (199,226);
}
);
layerId = "8E9A709A-C666-43E5-8831-9AE42D64DE83";
shapes = (
{
closed = 1;
nodes = (
(77,-207,o),
(81,-220,o),
(99,-220,cs),
(121,-220,o),
(123,-207,o),
(123,-192,cs),
(123,-178,o),
(121,-164,o),
(99,-164,cs),
(81,-164,o),
(77,-178,o),
(77,-192,cs)
);
},
{
ref = uni0716.fina;
}
);
width = 251;
},
{
anchors = (
{
name = bottom;
pos = (179,-465);
},
{
name = bottomright;
pos = (322,-90);
},
{
name = top;
pos = (202,419);
},
{
name = topright;
pos = (296,371);
}
);
background = {
shapes = (
{
closed = 1;
nodes = (
(121,320,o),
(64,257,o),
(64,180,cs),
(64,133,o),
(85,90,o),
(135,45,c),
(119,4,o),
(99,-28,o),
(62,-84,c),
(154,-160,l),
(193,-128,o),
(259,-50,o),
(285,7,c),
(323,0,o),
(365,0,o),
(380,0,c),
(380,185,l),
(367,185,o),
(337,185,o),
(327,189,c),
(323,207,o),
(319,223,o),
(312,238,cs),
(291,284,o),
(257,320,o),
(196,320,cs)
);
}
);
};
layerId = "7FDEFC05-49C3-46A7-9C1D-65D39809C804";
shapes = (
{
closed = 1;
nodes = (
(88,-375,o),
(133,-399,o),
(181,-399,cs),
(228,-399,o),
(275,-375,o),
(275,-315,cs),
(275,-253,o),
(228,-230,o),
(181,-230,cs),
(133,-230,o),
(88,-253,o),
(88,-315,cs)
);
},
{
ref = uni0716.fina;
}
);
width = 380;
}
);
note = uni0715.fina;
},
{
glyphname = uni0716;
lastChange = "2022-12-16 12:32:42 +0000";
layers = (
{
anchors = (
{
name = bottom;
pos = (138,-216);
},
{
name = bottomright;
pos = (286,-95);
},
{
name = top;
pos = (172,363);
},
{
name = topright;
pos = (332,293);
}
);
layerId = m01;
shapes = (
{
closed = 1;
nodes = (
(99,280,o),
(60,205,o),
(60,153,cs),
(60,104,o),
(84,72,o),
(133,32,cs),
(142,25,o),
(151,17,o),
(160,10,c),
(140,-21,o),
(116,-57,o),
(85,-89,c),
(132,-130,l),
(207,-53,o),
(290,42,o),
(290,135,cs),
(290,212,o),
(246,280,o),
(174,280,cs)
);
},
{
closed = 1;
nodes = (
(186,151,o),
(186,151,o),
(186,151,cs),
(186,151,o),
(186,152,o),
(186,152,c),
(186,152,ls),
(186,151,o),
(186,151,o),
(186,151,cs),
(186,151,o),
(186,151,o),
(186,151,cs)
);
}
);
width = 349;
},
{
anchors = (
{
name = bottom;
pos = (103,-183);
},
{
name = bottomright;
pos = (246,-38);
},
{
name = top;
pos = (153,299);
},
{
name = topright;
pos = (274,263);
}
);
layerId = "8E9A709A-C666-43E5-8831-9AE42D64DE83";
shapes = (
{
closed = 1;
nodes = (
(86,244,o),
(56,187,o),
(56,146,cs),
(56,106,o),
(71,76,o),
(111,39,cs),
(122,29,o),
(133,18,o),
(144,8,c),
(129,-11,o),
(103,-41,o),
(74,-71,c),
(91,-87,l),
(198,27,o),
(233,77,o),
(233,139,cs),
(233,198,o),
(202,244,o),
(143,244,cs)
);
},
{
closed = 1;
nodes = (
(185,219,o),
(208,183,o),
(208,137,cs),
(208,105,o),
(191,65,o),
(161,29,c),
(128,59,ls),
(96,89,o),
(81,110,o),
(81,146,cs),
(81,177,o),
(100,219,o),
(142,219,cs)
);
}
);
width = 289;
},
{
anchors = (
{
name = bottom;
pos = (165,-246);
},
{
name = bottomright;
pos = (312,-125);
},
{
name = top;
pos = (223,458);
},
{
name = topright;
pos = (368,376);
}
);
layerId = "7FDEFC05-49C3-46A7-9C1D-65D39809C804";
shapes = (
{
closed = 1;
nodes = (
(104,364,o),
(55,267,o),
(55,200,cs),
(55,142,o),
(83,98,o),
(120,63,cs),
(132,51,o),
(144,41,o),
(157,31,c),
(121,-11,o),
(93,-45,o),
(63,-75,c),
(158,-160,l),
(247,-82,o),
(373,46,o),
(373,170,cs),
(373,284,o),
(297,364,o),
(210,364,cs)
);
},
{
closed = 1;
nodes = (
(236,181,o),
(236,181,o),
(236,181,cs),
(236,181,o),
(236,182,o),
(236,182,c),
(236,182,ls),
(236,181,o),
(236,181,o),
(236,181,cs),
(236,181,o),
(236,181,o),
(236,181,cs)
);
}
);
width = 428;
}
);
note = uni0716;
unicode = 1814;
},
{
glyphname = uni0716.fina;
lastChange = "2022-12-16 14:33:59 +0000";
layers = (
{
anchors = (
{
name = bottom;
pos = (101,-226);
},
{
name = bottomright;
pos = (248,-106);
},
{
name = top;
pos = (139,287);
},
{
name = topright;
pos = (235,253);
}
);
layerId = m01;
shapes = (
{
closed = 1;
nodes = (
(92,203,o),
(56,162,o),
(56,114,cs),
(56,68,o),
(78,39,o),
(122,14,c),
(117,-11,o),
(89,-60,o),
(59,-102,c),
(101,-138,l),
(141,-98,o),
(176,-41,o),
(195,4,c),
(217,1,o),
(266,0,o),
(275,0,c),
(275,76,l),
(266,76,o),
(226,77,o),
(212,83,c),
(213,92,o),
(213,96,o),
(213,100,cs),
(213,158,o),
(186,203,o),
(135,203,cs)
);
},
{
closed = 1;
nodes = (
(138,113,o),
(138,113,o),
(138,113,cs),
(138,113,o),
(138,113,o),
(138,113,cs),
(138,113,o),
(138,113,o),
(138,113,cs),
(138,113,o),
(138,113,o),
(138,113,c)
);
}
);
width = 275;
},
{
anchors = (
{
name = bottom;
pos = (92,-184);
},
{
name = bottomright;
pos = (198,-73);
},
{
name = top;
pos = (112,220);
},
{
name = topright;
pos = (198,226);
}
);
layerId = "8E9A709A-C666-43E5-8831-9AE42D64DE83";
shapes = (
{
closed = 1;
nodes = (
(72,175,o),
(44,142,o),
(44,100,cs),
(44,47,o),
(79,17,o),
(124,6,c),
(113,-17,o),
(94,-49,o),
(65,-82,c),
(82,-96,l),
(112,-65,o),
(135,-28,o),
(150,3,c),
(179,0,o),
(241,0,o),
(251,0,c),
(251,25,l),
(233,25,o),
(173,26,o),
(159,27,c),
(168,51,o),
(172,73,o),
(172,96,cs),
(172,136,o),
(155,175,o),
(109,175,cs)
);
},
{
closed = 1;
nodes = (
(102,35,o),
(68,54,o),
(68,100,cs),
(68,128,o),
(82,152,o),
(109,152,cs),
(137,152,o),
(148,123,o),
(148,93,cs),
(148,69,o),
(140,43,o),
(134,29,c)
);
}
);
width = 251;
},
{
anchors = (
{
name = bottom;
pos = (154,-248);
},
{
name = bottomright;
pos = (301,-127);
},
{
name = top;
pos = (202,419);
},
{
name = topright;
pos = (295,371);
}
);
layerId = "7FDEFC05-49C3-46A7-9C1D-65D39809C804";
shapes = (
{
closed = 1;
nodes = (
(121,320,o),
(64,257,o),
(64,180,cs),
(64,133,o),
(85,90,o),
(135,45,c),
(119,4,o),
(99,-28,o),
(62,-84,c),
(154,-160,l),
(193,-128,o),
(259,-50,o),
(285,7,c),
(323,0,o),
(365,0,o),
(380,0,c),
(380,185,l),
(367,185,o),
(337,185,o),
(327,189,c),
(323,207,o),
(319,223,o),
(312,238,cs),
(291,284,o),
(257,320,o),
(196,320,cs)
);
},
{
closed = 1;
nodes = (
(208,182,o),
(208,182,o),
(208,182,cs),
(208,182,o),
(208,182,o),
(208,182,cs),
(208,182,o),
(208,182,o),
(208,182,cs),
(208,182,o),
(208,182,o),
(208,182,c)
);
}
);
width = 380;
}
);
note = uni0716.fina;
},
{
glyphname = uni0717;
lastChange = "2022-12-16 12:05:34 +0000";
layers = (
{
anchors = (
{
name = bottom;
pos = (333,-98);
},
{
name = top;
pos = (341,507);
}
);
layerId = m01;
shapes = (
{
closed = 1;
nodes = (
(566,280,l),
(570,266,o),
(575,229,o),
(575,189,cs),
(575,121,o),
(564,43,o),
(556,4,c),
(620,-7,l),
(638,56,o),
(644,122,o),
(644,201,cs),
(644,261,o),
(630,346,o),
(606,399,c),
(549,387,l),
(527,344,o),
(501,295,o),
(475,260,c),
(472,260,l),
(449,354,o),
(366,417,o),
(251,417,cs),
(139,417,o),
(45,337,o),
(45,211,cs),
(45,87,o),
(132,0,o),
(260,0,cs),
(372,0,o),
(456,62,o),
(477,158,c),
(508,195,o),
(544,244,o),
(562,279,c)
);
},
{
closed = 1;
nodes = (
(173,76,o),
(117,137,o),
(117,216,cs),
(117,294,o),
(178,344,o),
(251,344,cs),
(348,344,o),
(409,286,o),
(409,208,cs),
(409,119,o),
(343,76,o),
(270,76,cs)
);
}
);
width = 717;
},
{
anchors = (
{
name = bottom;
pos = (324,-98);
},
{
name = top;
pos = (332,507);
}
);
layerId = "8E9A709A-C666-43E5-8831-9AE42D64DE83";
shapes = (
{
closed = 1;
nodes = (
(570,320,l),
(577,298,o),
(589,240,o),
(589,177,cs),
(589,117,o),
(587,64,o),
(574,0,c),
(598,-4,l),
(611,51,o),
(615,109,o),
(615,179,cs),
(615,240,o),
(602,309,o),
(585,360,c),
(559,355,l),
(542,318,o),
(505,246,o),
(454,185,c),
(452,185,l),
(452,295,o),
(369,377,o),
(247,377,cs),
(140,377,o),
(55,294,o),
(55,185,cs),
(55,80,o),
(134,-4,o),
(256,-4,cs),
(355,-4,o),
(429,56,o),
(448,145,c),
(501,203,o),
(536,258,o),
(568,320,c)
);
},
{
closed = 1;
nodes = (
(145,21,o),
(82,96,o),
(82,187,cs),
(82,280,o),
(155,352,o),
(246,352,cs),
(356,352,o),
(426,283,o),
(426,186,cs),
(426,77,o),
(343,21,o),
(259,21,cs)
);
}
);
width = 698;
},
{
anchors = (
{
name = bottom;
pos = (405,-104);
},
{
name = top;
pos = (416,590);
}
);
layerId = "7FDEFC05-49C3-46A7-9C1D-65D39809C804";
shapes = (
{
closed = 1;
nodes = (
(649,303,l),
(649,271,o),
(647,197,o),
(644,148,cs),
(641,98,o),
(636,47,o),
(629,11,c),
(767,-12,l),
(787,67,o),
(796,160,o),
(796,255,cs),
(796,313,o),
(787,422,o),
(758,491,c),
(622,473,l),
(617,456,o),
(580,391,o),
(552,350,c),
(548,350,l),
(503,456,o),
(403,500,o),
(294,500,cs),
(175,500,o),
(50,419,o),
(50,254,cs),
(50,84,o),
(175,-5,o),
(307,-5,cs),
(438,-5,o),
(517,61,o),
(557,157,c),
(593,207,o),
(632,262,o),
(645,304,c)
);
},
{
closed = 1;
nodes = (
(250,175,o),
(208,214,o),
(208,259,cs),
(208,306,o),
(248,330,o),
(302,330,cs),
(380,330,o),
(425,289,o),
(425,250,cs),
(425,204,o),
(379,175,o),
(322,175,cs)
);
}
);
width = 856;
}
);
note = uni0717;
unicode = 1815;
},
{
glyphname = uni0717.fina;
lastChange = "2022-12-16 12:05:34 +0000";
layers = (
{
anchors = (
{
name = bottom;
pos = (334,-98);
},
{
name = top;
pos = (342,506);
}
);
layerId = m01;
shapes = (
{
closed = 1;
nodes = (
(139,417,o),
(45,337,o),
(45,211,cs),
(45,87,o),
(132,0,o),
(260,0,cs),
(372,0,o),
(456,62,o),
(477,158,c),
(508,195,o),
(544,244,o),
(562,279,c),
(566,280,l),
(570,266,o),
(575,229,o),
(575,189,cs),
(575,121,o),
(564,43,o),
(556,4,c),
(620,-7,l),
(624,8,o),
(628,23,o),
(631,39,c),
(634,39,l),
(652,15,o),
(683,0,o),
(742,0,c),
(742,76,l),
(711,76,o),
(645,81,o),
(641,113,c),
(643,141,o),
(644,169,o),
(644,201,cs),
(644,261,o),
(630,346,o),
(606,399,c),
(549,387,l),
(527,344,o),
(501,295,o),
(475,260,c),
(472,260,l),
(449,354,o),
(366,417,o),
(251,417,cs)
);
},
{
closed = 1;
nodes = (
(173,76,o),
(117,137,o),
(117,216,cs),
(117,294,o),
(178,344,o),
(251,344,cs),
(348,344,o),
(409,286,o),
(409,208,cs),
(409,119,o),
(343,76,o),
(270,76,cs)
);
}
);
width = 742;
},
{
anchors = (
{
name = bottom;
pos = (325,-98);
},
{
name = top;
pos = (333,506);
}
);
layerId = "8E9A709A-C666-43E5-8831-9AE42D64DE83";
shapes = (
{
closed = 1;
nodes = (
(140,377,o),
(55,294,o),
(55,185,cs),
(55,80,o),
(134,-4,o),
(256,-4,cs),
(355,-4,o),
(429,56,o),
(448,145,c),
(501,203,o),
(536,258,o),
(568,320,c),
(570,320,l),
(577,298,o),
(589,240,o),
(589,177,cs),
(589,117,o),
(587,64,o),
(574,0,c),
(598,-4,l),
(602,11,o),
(605,26,o),
(607,42,c),
(609,42,l),
(629,5,o),
(689,0,o),
(731,0,c),
(731,25,l),
(682,25,o),
(620,33,o),
(612,87,c),
(614,116,o),
(615,146,o),
(615,179,cs),
(615,240,o),
(602,309,o),
(585,360,c),
(559,355,l),
(542,318,o),
(505,246,o),
(454,185,c),
(452,185,l),
(452,295,o),
(369,377,o),
(247,377,cs)
);
},
{
closed = 1;
nodes = (
(145,21,o),
(82,96,o),
(82,187,cs),
(82,280,o),
(155,352,o),
(246,352,cs),
(356,352,o),
(426,283,o),
(426,186,cs),
(426,77,o),
(343,21,o),
(259,21,cs)
);
}
);
width = 731;
},
{
anchors = (
{
name = bottom;
pos = (406,-104);
},
{
name = top;
pos = (416,587);
}
);
layerId = "7FDEFC05-49C3-46A7-9C1D-65D39809C804";
shapes = (
{
closed = 1;
nodes = (
(175,500,o),
(50,419,o),
(50,254,cs),
(50,84,o),
(175,-5,o),
(307,-5,cs),
(438,-5,o),
(517,61,o),
(557,157,c),
(593,207,o),
(632,262,o),
(645,304,c),
(649,303,l),
(649,271,o),
(646,197,o),
(642,148,cs),
(638,98,o),
(632,47,o),
(624,11,c),
(762,-12,l),
(767,10,o),
(772,33,o),
(776,57,c),
(780,57,l),
(796,23,o),
(839,0,o),
(890,0,c),
(890,185,l),
(846,185,o),
(807,191,o),
(794,220,c),
(796,243,o),
(796,246,o),
(796,265,cs),
(796,323,o),
(787,422,o),
(758,491,c),
(622,473,l),
(617,456,o),
(580,391,o),
(552,350,c),
(548,350,l),
(503,456,o),
(403,500,o),
(294,500,cs)
);
},
{
closed = 1;
nodes = (
(250,175,o),
(208,214,o),
(208,260,cs),
(208,306,o),
(248,330,o),
(302,330,cs),
(380,330,o),
(425,289,o),
(425,251,cs),
(425,204,o),
(379,175,o),
(322,175,cs)
);
}
);
width = 890;
}
);
note = uni0717.fina;
},
{
glyphname = uni0718;
lastChange = "2022-12-16 12:05:34 +0000";
layers = (
{
anchors = (
{
name = bottom;
pos = (254,-98);
},
{
name = top;
pos = (264,507);
}
);
layerId = m01;
shapes = (
{
closed = 1;
nodes = (
(137,408,o),
(45,335,o),
(45,212,cs),
(45,91,o),
(133,0,o),
(256,0,cs),
(377,0,o),
(468,69,o),
(468,196,cs),
(468,314,o),
(377,408,o),
(246,408,cs)
);
},
{
closed = 1;
nodes = (
(170,76,o),
(118,138,o),
(118,216,cs),
(118,291,o),
(177,335,o),
(246,335,cs),
(337,335,o),
(395,275,o),
(395,198,cs),
(395,113,o),
(334,76,o),
(265,76,cs)
);
}
);
width = 518;
},
{
anchors = (
{
name = bottom;
pos = (247,-98);
},
{
name = top;
pos = (255,507);
}
);
layerId = "8E9A709A-C666-43E5-8831-9AE42D64DE83";
shapes = (
{
closed = 1;
nodes = (
(133,366,o),
(55,292,o),
(55,185,cs),
(55,85,o),
(131,-4,o),
(250,-4,cs),
(358,-4,o),
(438,66,o),
(438,180,cs),
(438,285,o),
(356,366,o),
(238,366,cs)
);
},
{
closed = 1;
nodes = (
(141,21,o),
(81,101,o),
(81,188,cs),
(81,279,o),
(147,341,o),
(237,341,cs),
(345,341,o),
(412,270,o),
(412,178,cs),
(412,75,o),
(338,21,o),
(253,21,cs)
);
}
);
width = 493;
},
{
anchors = (
{
name = bottom;
pos = (302,-103);
},
{
name = top;
pos = (298,589);
}
);
layerId = "7FDEFC05-49C3-46A7-9C1D-65D39809C804";
shapes = (
{
closed = 1;
nodes = (
(175,490,o),
(50,412,o),
(50,250,cs),
(50,86,o),
(165,-5,o),
(302,-5,cs),
(457,-5,o),
(561,94,o),
(561,241,cs),
(561,379,o),
(466,490,o),
(291,490,cs)
);
},
{
closed = 1;
nodes = (
(244,172,o),
(205,209,o),
(205,258,cs),
(205,301,o),
(244,325,o),
(292,325,cs),
(369,325,o),
(406,284,o),
(406,247,cs),
(406,196,o),
(371,172,o),
(315,172,cs)
);
}
);
width = 611;
}
);
note = uni0718;
unicode = 1816;
},
{
glyphname = uni0718.fina;
lastChange = "2022-12-16 12:05:34 +0000";
layers = (
{
anchors = (
{
name = bottom;
pos = (254,-98);
},
{
name = top;
pos = (264,506);
}
);
layerId = m01;
shapes = (
{
closed = 1;
nodes = (
(137,408,o),
(45,335,o),
(45,212,cs),
(45,91,o),
(127,0,o),
(277,0,cs),
(539,0,l),
(539,76,l),
(505,76,ls),
(483,76,o),
(444,75,o),
(423,74,c),
(423,77,l),
(448,103,o),
(468,146,o),
(468,196,cs),
(468,314,o),
(377,408,o),
(246,408,cs)
);
},
{
closed = 1;
nodes = (
(170,76,o),
(118,138,o),
(118,216,cs),
(118,291,o),
(177,335,o),
(246,335,cs),
(337,335,o),
(395,275,o),
(395,198,cs),
(395,113,o),
(334,76,o),
(265,76,cs)
);
}
);
width = 539;
},
{
anchors = (
{
name = bottom;
pos = (247,-98);
},
{
name = top;
pos = (256,506);
}
);
layerId = "8E9A709A-C666-43E5-8831-9AE42D64DE83";
shapes = (
{
closed = 1;
nodes = (
(133,366,o),
(55,294,o),
(55,187,cs),
(55,87,o),
(126,0,o),
(258,0,cs),
(500,0,l),
(500,25,l),
(419,25,ls),
(396,25,o),
(366,24,o),
(339,21,c),
(339,23,l),
(403,47,o),
(438,110,o),
(438,180,cs),
(438,285,o),
(356,366,o),
(238,366,cs)
);
},
{
closed = 1;
nodes = (
(141,25,o),
(81,103,o),
(81,190,cs),
(81,281,o),
(147,341,o),
(237,341,cs),
(345,341,o),
(412,270,o),
(412,178,cs),
(412,75,o),
(338,25,o),
(253,25,cs)
);
}
);
width = 500;
},
{
anchors = (
{
name = bottom;
pos = (290,-103);
},
{
name = top;
pos = (297,589);
}
);
layerId = "7FDEFC05-49C3-46A7-9C1D-65D39809C804";
shapes = (
{
closed = 1;
nodes = (
(175,490,o),
(50,416,o),
(50,254,cs),
(50,87,o),
(177,0,o),
(352,0,cs),
(621,0,l),
(621,185,l),
(601,185,ls),
(582,185,o),
(566,185,o),
(539,183,c),
(539,185,l),
(554,205,o),
(561,244,o),
(561,266,cs),
(561,399,o),
(459,490,o),
(291,490,cs)
);
},
{
closed = 1;
nodes = (
(244,172,o),
(205,209,o),
(205,258,cs),
(205,304,o),
(244,325,o),
(292,325,cs),
(369,325,o),
(406,285,o),
(406,247,cs),
(406,196,o),
(371,172,o),
(315,172,cs)
);
}
);
width = 621;
}
);
note = uni0718.fina;
},
{
glyphname = uni0719;
lastChange = "2022-12-16 12:05:34 +0000";
layers = (
{
anchors = (
{
name = bottom;
pos = (109,-195);
},
{
name = top;
pos = (134,537);
}
);
layerId = m01;
shapes = (
{
closed = 1;
nodes = (
(171,416,l),
(98,416,l),
(98,141,ls),
(98,40,o),
(83,-29,o),
(63,-64,c),
(123,-94,l),
(158,-50,o),
(171,31,o),
(171,142,cs)
);
}
);
width = 264;
},
{
anchors = (
{
name = bottom;
pos = (86,-195);
},
{
name = top;
pos = (122,537);
}
);
layerId = "8E9A709A-C666-43E5-8831-9AE42D64DE83";
shapes = (
{
closed = 1;
nodes = (
(134,376,l),
(108,376,l),
(108,110,ls),
(108,16,o),
(96,-34,o),
(75,-77,c),
(96,-88,l),
(123,-40,o),
(134,25,o),
(134,123,cs)
);
}
);
width = 237;
},
{
anchors = (
{
name = bottom;
pos = (128,-205);
},
{
name = top;
pos = (154,608);
}
);
layerId = "7FDEFC05-49C3-46A7-9C1D-65D39809C804";
shapes = (
{
closed = 1;
nodes = (
(238,486,l),
(84,486,l),
(84,207,ls),
(84,91,o),
(68,-4,o),
(44,-60,c),
(169,-116,l),
(218,-46,o),
(238,64,o),
(238,197,cs)
);
}
);
width = 318;
}
);
note = uni0719;
unicode = 1817;
},
{
glyphname = uni0719.fina;
lastChange = "2022-12-16 14:41:06 +0000";
layers = (
{
anchors = (
{
name = bottom;
pos = (107,-194);
},
{
name = top;
pos = (134,537);
}
);
layerId = m01;
shapes = (
{
closed = 1;
nodes = (
(170,122,o),
(171,131,o),
(171,142,cs),
(171,416,l),
(98,416,l),
(98,141,ls),
(98,40,o),
(83,-29,o),
(63,-64,c),
(123,-94,l),
(145,-66,o),
(158,-23,o),
(165,33,c),
(168,33,l),
(187,11,o),
(215,0,o),
(269,0,c),
(269,76,l),
(237,76,o),
(172,76,o),
(170,111,cs)
);
}
);
width = 269;
},
{
anchors = (
{
name = bottom;
pos = (86,-194);
},
{
name = top;
pos = (122,537);
}
);
layerId = "8E9A709A-C666-43E5-8831-9AE42D64DE83";
shapes = (
{
closed = 1;
nodes = (
(134,91,o),
(134,98,o),
(134,104,c),
(134,376,l),
(108,376,l),
(108,110,ls),
(108,16,o),
(96,-34,o),
(75,-77,c),
(96,-88,l),
(116,-53,o),
(125,-12,o),
(131,39,c),
(133,39,l),
(153,5,o),
(201,0,o),
(253,0,c),
(253,25,l),
(184,25,o),
(143,35,o),
(134,85,c)
);
}
);
width = 253;
},
{
anchors = (
{
name = bottom;
pos = (144,-206);
},
{
name = top;
pos = (167,608);
}
);
layerId = "7FDEFC05-49C3-46A7-9C1D-65D39809C804";
shapes = (
{
closed = 1;
nodes = (
(239,231,o),
(239,241,o),
(239,251,c),
(239,486,l),
(84,486,l),
(84,207,ls),
(84,91,o),
(68,-4,o),
(44,-60,c),
(170,-116,l),
(199,-73,o),
(216,-16,o),
(226,49,c),
(230,49,l),
(252,13,o),
(300,0,o),
(335,0,c),
(335,185,l),
(281,185,o),
(250,195,o),
(239,221,c)
);
}
);
width = 335;
}
);
note = uni0719.fina;
},
{
glyphname = uni071A;
lastChange = "2022-12-16 14:43:50 +0000";
layers = (
{
anchors = (
{
name = bottom;
pos = (402,-98);
},
{
name = top;
pos = (531,366);
}
);
layerId = m01;
shapes = (
{
closed = 1;
nodes = (
(683,177,o),
(671,210,o),
(640,210,cs),
(621,210,o),
(608,200,o),
(594,174,cs),
(554,102,o),
(542,82,o),
(529,82,cs),
(525,82,ls),
(513,82,o),
(506,92,o),
(470,149,cs),
(441,195,o),
(430,203,o),
(408,203,cs),
(387,203,o),
(379,195,o),
(367,177,cs),
(340,136,ls),
(310,91,o),
(285,69,o),
(236,69,cs),
(154,69,o),
(127,122,o),
(125,203,c),
(61,199,l),
(59,193,o),
(59,177,o),
(59,173,cs),
(59,58,o),
(126,-7,o),
(236,-7,cs),
(304,-7,o),
(360,20,o),
(404,70,c),
(447,16,o),
(476,0,o),
(533,0,cs),
(576,0,o),
(626,22,o),
(653,60,cs),
(672,87,o),
(683,112,o),
(683,143,cs)
);
}
);
width = 772;
},
{
anchors = (
{
name = bottom;
pos = (386,-98);
},
{
name = top;
pos = (499,366);
}
);
layerId = "8E9A709A-C666-43E5-8831-9AE42D64DE83";
shapes = (
{
closed = 1;
nodes = (
(610,149,o),
(607,155,o),
(600,155,cs),
(594,155,o),
(589,154,o),
(580,136,cs),
(533,46,o),
(515,25,o),
(495,25,cs),
(493,25,ls),
(477,25,o),
(464,37,o),
(424,111,cs),
(402,152,o),
(398,153,o),
(388,153,cs),
(379,153,o),
(375,152,o),
(361,128,cs),
(344,100,ls),
(313,48,o),
(277,18,o),
(211,18,cs),
(129,18,o),
(90,55,o),
(86,140,c),
(62,136,l),
(62,134,o),
(62,131,o),
(62,129,cs),
(62,35,o),
(123,-7,o),
(207,-7,cs),
(283,-7,o),
(331,16,o),
(387,126,c),
(438,27,o),
(456,0,o),
(494,0,cs),
(524,0,o),
(550,21,o),
(583,79,cs),
(594,98,o),
(610,126,o),
(610,144,cs)
);
}
);
width = 682;
},
{
anchors = (
{
name = bottom;
pos = (470,-98);
},
{
name = top;
pos = (626,469);
}
);
layerId = "7FDEFC05-49C3-46A7-9C1D-65D39809C804";
shapes = (
{
closed = 1;
nodes = (
(837,269,o),
(819,332,o),
(753,332,cs),
(710,332,o),
(691,309,o),
(671,266,cs),
(637,192,o),
(631,185,o),
(625,185,cs),
(614,185,ls),
(604,185,o),
(600,194,o),
(575,253,cs),
(554,303,o),
(538,329,o),
(494,329,cs),
(462,329,o),
(445,320,o),
(421,280,cs),
(392,232,ls),
(365,187,o),
(337,174,o),
(298,174,cs),
(213,174,o),
(195,228,o),
(185,300,c),
(47,297,l),
(45,282,o),
(45,261,o),
(45,255,cs),
(45,76,o),
(147,-5,o),
(292,-5,cs),
(347,-5,o),
(416,8,o),
(469,49,c),
(511,11,o),
(559,0,o),
(613,0,cs),
(701,0,o),
(765,36,o),
(804,94,cs),
(825,126,o),
(837,165,o),
(837,212,cs)
);
}
);
width = 892;
}
);
note = uni071A;
unicode = 1818;
},
{
glyphname = uni071A.fina;
lastChange = "2022-12-16 15:07:10 +0000";
layers = (
{
anchors = (
{
name = bottom;
pos = (402,-98);
},
{
name = top;
pos = (531,366);
}
);
layerId = m01;
shapes = (
{
closed = 1;
nodes = (
(784,0,l),
(784,76,l),
(774,76,o),
(745,78,o),
(735,82,c),
(726,89,o),
(701,129,o),
(690,149,cs),
(663,196,o),
(654,203,o),
(630,203,cs),
(609,203,o),
(597,191,o),
(586,172,cs),
(563,131,ls),
(545,100,o),
(534,82,o),
(525,82,cs),
(519,82,ls),
(508,82,o),
(501,92,o),
(468,147,cs),
(440,193,o),
(432,203,o),
(410,203,cs),
(389,203,o),
(380,195,o),
(368,177,cs),
(340,136,ls),
(310,91,o),
(285,69,o),
(236,69,cs),
(154,69,o),
(127,122,o),
(125,203,c),
(61,199,l),
(59,193,o),
(59,177,o),
(59,173,cs),
(59,58,o),
(121,-7,o),
(243,-7,cs),
(311,-7,o),
(364,20,o),
(408,70,c),
(451,16,o),
(481,0,o),
(515,0,cs),
(547,0,o),
(571,9,o),
(598,38,cs),
(606,47,o),
(615,58,o),
(624,70,c),
(664,17,o),
(694,0,o),
(779,0,cs)
);
}
);
width = 784;
},
{
anchors = (
{
name = bottom;
pos = (386,-98);
},
{
name = top;
pos = (498,366);
}
);
layerId = "8E9A709A-C666-43E5-8831-9AE42D64DE83";
shapes = (
{
closed = 1;
nodes = (
(736,0,l),
(736,25,l),
(718,25,o),
(704,25,o),
(692,28,c),
(683,33,o),
(663,59,o),
(633,111,cs),
(609,152,o),
(607,153,o),
(597,153,cs),
(588,153,o),
(585,152,o),
(569,126,cs),
(553,99,ls),
(517,39,o),
(507,25,o),
(492,25,cs),
(489,25,ls),
(474,25,o),
(463,40,o),
(424,111,cs),
(401,152,o),
(398,153,o),
(388,153,cs),
(379,153,o),
(375,152,o),
(361,128,cs),
(344,100,ls),
(313,48,o),
(277,18,o),
(211,18,cs),
(132,18,o),
(90,55,o),
(86,140,c),
(62,136,l),
(62,134,o),
(62,131,o),
(62,129,cs),
(62,35,o),
(126,-7,o),
(207,-7,cs),
(283,-7,o),
(331,16,o),
(387,126,c),
(439,28,o),
(455,0,o),
(490,0,cs),
(514,0,o),
(531,14,o),
(570,81,cs),
(579,96,o),
(587,111,o),
(596,126,c),
(662,7,o),
(673,0,o),
(718,0,cs)
);
}
);
width = 736;
},
{
anchors = (
{
name = bottom;
pos = (469,-98);
},
{
name = top;
pos = (627,468);
}
);
layerId = "7FDEFC05-49C3-46A7-9C1D-65D39809C804";
shapes = (
{
closed = 1;
nodes = (
(923,0,l),
(923,185,l),
(882,185,o),
(864,194,o),
(858,199,c),
(850,214,o),
(835,245,o),
(827,263,cs),
(801,321,o),
(773,329,o),
(748,329,cs),
(713,329,o),
(695,306,o),
(679,278,cs),
(665,253,ls),
(636,201,o),
(631,192,o),
(621,192,cs),
(612,192,ls),
(603,192,o),
(596,201,o),
(573,253,cs),
(552,300,o),
(538,329,o),
(495,329,cs),
(463,329,o),
(444,319,o),
(422,279,cs),
(395,231,ls),
(372,189,o),
(341,174,o),
(298,174,cs),
(213,174,o),
(195,228,o),
(185,300,c),
(47,297,l),
(45,282,o),
(45,261,o),
(45,255,cs),
(45,76,o),
(147,-5,o),
(292,-5,cs),
(347,-5,o),
(420,8,o),
(473,49,c),
(495,21,o),
(534,-3,o),
(588,-3,cs),
(628,-3,o),
(661,6,o),
(686,25,cs),
(695,32,o),
(704,40,o),
(711,49,c),
(766,11,o),
(837,0,o),
(913,0,cs)
);
}
);
width = 923;
}
);
note = uni071A.fina;
},
{
glyphname = uni071A.medi;
lastChange = "2022-12-16 12:05:34 +0000";
layers = (
{
anchors = (
{
name = bottom;
pos = (279,-98);
},
{
name = top;
pos = (288,366);
}
);
layerId = m01;
shapes = (
{
closed = 1;
nodes = (
(551,0,l),
(551,76,l),
(541,76,o),
(512,78,o),
(502,82,c),
(493,89,o),
(468,129,o),
(457,149,cs),
(430,196,o),
(421,203,o),
(397,203,cs),
(376,203,o),
(364,191,o),
(353,172,cs),
(330,131,ls),
(312,100,o),
(301,82,o),
(292,82,cs),
(286,82,ls),
(275,82,o),
(268,92,o),
(235,147,cs),
(207,193,o),
(199,203,o),
(177,203,cs),
(156,203,o),
(148,195,o),
(135,177,cs),
(106,137,ls),
(77,98,o),
(52,76,o),
(0,76,cs),
(-21,76,o),
(-39,61,o),
(-39,38,cs),
(-39,14,o),
(-21,0,o),
(0,0,cs),
(56,0,o),
(106,14,o),
(147,44,cs),
(157,52,o),
(166,60,o),
(175,70,c),
(217,10,o),
(248,0,o),
(282,0,cs),
(315,0,o),
(339,10,o),
(367,41,cs),
(375,49,o),
(383,59,o),
(391,70,c),
(431,17,o),
(461,0,o),
(546,0,cs)
);
}
);
width = 551;
},
{
anchors = (
{
name = bottom;
pos = (242,-98);
},
{
name = top;
pos = (251,366);
}
);
layerId = "8E9A709A-C666-43E5-8831-9AE42D64DE83";
shapes = (
{
closed = 1;
nodes = (
(489,0,l),
(489,25,l),
(471,25,o),
(457,25,o),
(445,28,c),
(436,33,o),
(416,59,o),
(386,111,cs),
(362,152,o),
(360,153,o),
(350,153,cs),
(341,153,o),
(338,152,o),
(322,126,cs),
(306,99,ls),
(270,39,o),
(260,25,o),
(245,25,cs),
(242,25,ls),
(227,25,o),
(216,40,o),
(177,111,cs),
(154,152,o),
(151,153,o),
(141,153,cs),
(133,153,o),
(126,151,o),
(112,126,cs),
(98,102,ls),
(73,59,o),
(45,25,o),
(0,25,cs),
(-17,25,o),
(-40,21,o),
(-40,13,cs),
(-40,4,o),
(-17,0,o),
(0,0,cs),
(55,0,o),
(90,39,o),
(114,81,cs),
(123,96,o),
(131,111,o),
(140,126,c),
(192,28,o),
(208,0,o),
(243,0,cs),
(267,0,o),
(284,14,o),
(323,81,cs),
(332,96,o),
(340,111,o),
(349,126,c),
(415,7,o),
(426,0,o),
(471,0,cs)
);
}
);
width = 489;
},
{
anchors = (
{
name = bottom;
pos = (295,-98);
},
{
name = top;
pos = (327,476);
}
);
layerId = "7FDEFC05-49C3-46A7-9C1D-65D39809C804";
shapes = (
{
closed = 1;
nodes = (
(633,0,l),
(633,185,l),
(592,185,o),
(574,194,o),
(568,199,c),
(560,214,o),
(545,245,o),
(537,263,cs),
(511,321,o),
(483,329,o),
(458,329,cs),
(423,329,o),
(405,306,o),
(389,278,cs),
(375,253,ls),
(346,201,o),
(341,192,o),
(331,192,cs),
(322,192,ls),
(313,192,o),
(306,201,o),
(283,253,cs),
(262,300,o),
(248,329,o),
(205,329,cs),
(168,329,o),
(153,315,o),
(128,276,cs),
(109,247,ls),
(80,204,o),
(58,185,o),
(-4,185,cs),
(-28,185,o),
(-44,141,o),
(-44,92,cs),
(-44,42,o),
(-28,0,o),
(-4,0,cs),
(51,0,o),
(102,7,o),
(141,25,cs),
(155,31,o),
(169,40,o),
(181,49,c),
(203,21,o),
(244,-3,o),
(298,-3,cs),
(338,-3,o),
(371,7,o),
(396,25,cs),
(405,32,o),
(414,40,o),
(421,49,c),
(476,11,o),
(547,0,o),
(623,0,cs)
);
}
);
width = 633;
}
);
note = uni071A.medi;
},
{
glyphname = uni071A.init;
lastChange = "2022-12-16 12:05:34 +0000";
layers = (
{
anchors = (
{
name = bottom;
pos = (279,-98);
},
{
name = top;
pos = (298,366);
}
);
layerId = m01;
shapes = (
{
closed = 1;
nodes = (
(454,177,o),
(442,210,o),
(411,210,cs),
(392,210,o),
(379,200,o),
(365,174,cs),
(325,102,o),
(313,82,o),
(300,82,cs),
(296,82,ls),
(284,82,o),
(277,92,o),
(241,149,cs),
(212,195,o),
(201,203,o),
(179,203,cs),
(158,203,o),
(148,195,o),
(135,177,cs),
(108,140,ls),
(78,99,o),
(53,76,o),
(0,76,cs),
(-21,76,o),
(-39,61,o),
(-39,38,cs),
(-39,14,o),
(-21,0,o),
(0,0,cs),
(56,0,o),
(106,13,o),
(147,44,cs),
(157,52,o),
(166,60,o),
(175,70,c),
(218,16,o),
(247,0,o),
(304,0,cs),
(347,0,o),
(397,22,o),
(424,60,cs),
(443,87,o),
(454,112,o),
(454,143,cs)
);
}
);
width = 530;
},
{
anchors = (
{
name = bottom;
pos = (248,-98);
},
{
name = top;
pos = (248,366);
}
);
layerId = "8E9A709A-C666-43E5-8831-9AE42D64DE83";
shapes = (
{
closed = 1;
nodes = (
(363,149,o),
(360,155,o),
(353,155,cs),
(347,155,o),
(342,154,o),
(333,136,cs),
(286,46,o),
(268,25,o),
(248,25,cs),
(246,25,ls),
(230,25,o),
(217,37,o),
(177,111,cs),
(155,152,o),
(151,153,o),
(141,153,cs),
(132,153,o),
(128,152,o),
(114,128,cs),
(97,100,ls),
(66,48,o),
(37,25,o),
(0,25,cs),
(-17,25,o),
(-40,21,o),
(-40,13,cs),
(-40,4,o),
(-17,0,o),
(0,0,cs),
(32,0,o),
(71,11,o),
(113,78,cs),
(123,94,o),
(131,109,o),
(140,126,c),
(191,27,o),
(209,0,o),
(247,0,cs),
(277,0,o),
(303,21,o),
(336,79,cs),
(347,98,o),
(363,126,o),
(363,144,cs)
);
}
);
width = 440;
},
{
anchors = (
{
name = bottom;
pos = (293,-98);
},
{
name = top;
pos = (326,476);
}
);
layerId = "7FDEFC05-49C3-46A7-9C1D-65D39809C804";
shapes = (
{
closed = 1;
nodes = (
(549,269,o),
(531,332,o),
(465,332,cs),
(422,332,o),
(403,309,o),
(383,266,cs),
(349,192,o),
(343,185,o),
(337,185,cs),
(326,185,ls),
(316,185,o),
(312,194,o),
(287,253,cs),
(266,303,o),
(248,329,o),
(207,329,cs),
(175,329,o),
(159,318,o),
(132,275,cs),
(114,247,ls),
(85,202,o),
(60,185,o),
(0,185,cs),
(-24,185,o),
(-40,141,o),
(-40,92,cs),
(-40,42,o),
(-24,0,o),
(0,0,cs),
(52,0,o),
(103,7,o),
(146,27,cs),
(158,33,o),
(170,40,o),
(181,49,c),
(223,11,o),
(271,0,o),
(325,0,cs),
(413,0,o),
(477,36,o),
(516,94,cs),
(537,126,o),
(549,165,o),
(549,212,cs)
);
}
);
width = 604;
}
);
note = uni071A.init;
},
{
glyphname = uni071B;
lastChange = "2022-12-16 12:05:34 +0000";
layers = (
{
anchors = (
{
name = bottom;
pos = (286,-381);
},
{
name = top;
pos = (298,690);
}
);
layerId = m01;
shapes = (
{
closed = 1;
nodes = (
(473,-7,o),
(394,41,o),
(282,89,c),
(313,133,o),
(347,176,o),
(376,221,cs),
(448,334,o),
(464,437,o),
(464,490,cs),
(464,554,o),
(454,602,o),
(401,655,c),
(397,655,l),
(349,594,l),
(380,559,o),
(391,527,o),
(391,484,cs),
(391,424,o),
(360,335,o),
(311,255,cs),
(278,201,o),
(248,160,o),
(218,119,c),
(175,137,o),
(119,190,o),
(93,228,c),
(88,228,l),
(49,172,l),
(83,119,o),
(123,83,o),
(174,56,c),
(140,2,o),
(117,-58,o),
(117,-134,cs),
(117,-244,o),
(189,-316,o),
(290,-316,cs),
(393,-316,o),
(473,-248,o),
(473,-127,cs)
);
},
{
closed = 1;
nodes = (
(402,-200,o),
(356,-243,o),
(292,-243,cs),
(221,-243,o),
(187,-185,o),
(187,-124,cs),
(187,-69,o),
(209,-18,o),
(240,27,c),
(333,-12,o),
(402,-44,o),
(402,-125,cs)
);
}
);
width = 526;
},
{
anchors = (
{
name = bottom;
pos = (237,-352);
},
{
name = top;
pos = (275,693);
}
);
layerId = "8E9A709A-C666-43E5-8831-9AE42D64DE83";
shapes = (
{
closed = 1;
nodes = (
(389,-38,o),
(318,14,o),
(210,60,c),
(277,155,o),
(295,182,o),
(313,213,cs),
(377,321,o),
(403,428,o),
(403,500,cs),
(403,554,o),
(394,591,o),
(361,635,c),
(359,635,l),
(342,616,l),
(367,580,o),
(377,544,o),
(377,498,cs),
(377,419,o),
(341,309,o),
(292,226,cs),
(261,174,o),
(217,114,o),
(187,71,c),
(148,89,o),
(111,115,o),
(77,164,c),
(75,164,l),
(59,146,l),
(86,103,o),
(123,75,o),
(171,51,c),
(129,-12,o),
(99,-70,o),
(99,-144,cs),
(99,-227,o),
(154,-288,o),
(238,-288,cs),
(333,-288,o),
(389,-214,o),
(389,-132,cs)
);
},
{
closed = 1;
nodes = (
(363,-210,o),
(313,-263,o),
(241,-263,cs),
(160,-263,o),
(125,-206,o),
(125,-138,cs),
(125,-70,o),
(160,-9,o),
(195,41,c),
(294,-3,o),
(363,-45,o),
(363,-133,cs)
);
}
);
width = 466;
},
{
anchors = (
{
name = bottom;
pos = (322,-421);
},
{
name = top;
pos = (252,710);
}
);
layerId = "7FDEFC05-49C3-46A7-9C1D-65D39809C804";
shapes = (
{
closed = 1;
nodes = (
(566,27,o),
(481,94,o),
(389,146,c),
(402,164,o),
(415,181,o),
(432,206,cs),
(489,291,o),
(528,371,o),
(528,462,cs),
(528,562,o),
(494,638,o),
(415,695,c),
(410,695,l),
(300,570,l),
(345,525,o),
(362,492,o),
(362,435,cs),
(362,388,o),
(346,344,o),
(312,294,cs),
(295,268,o),
(277,243,o),
(260,217,c),
(213,246,o),
(175,278,o),
(135,319,c),
(126,319,l),
(37,186,l),
(62,147,o),
(112,108,o),
(163,74,c),
(122,8,o),
(103,-47,o),
(103,-113,cs),
(103,-251,o),
(205,-335,o),
(325,-335,cs),
(440,-335,o),
(566,-259,o),
(566,-96,cs)
);
},
{
closed = 1;
nodes = (
(414,-154,o),
(376,-175,o),
(335,-175,cs),
(278,-175,o),
(255,-137,o),
(255,-95,cs),
(255,-57,o),
(272,-21,o),
(298,7,c),
(369,-21,o),
(414,-50,o),
(414,-102,cs)
);
}
);
width = 613;
}
);
note = uni071B;
unicode = 1819;
},
{
glyphname = uni071B.fina;
lastChange = "2022-12-16 12:05:34 +0000";
layers = (
{
anchors = (
{
name = bottom;
pos = (326,-381);
},
{
name = top;
pos = (281,665);
}
);
layerId = m01;
shapes = (
{
closed = 1;
nodes = (
(511,8,o),
(408,53,o),
(287,104,c),
(293,126,o),
(299,152,o),
(304,180,cs),
(315,244,o),
(320,319,o),
(320,385,cs),
(320,400,o),
(319,416,o),
(317,440,c),
(322,440,l),
(343,400,o),
(442,250,o),
(492,179,cs),
(579,55,o),
(618,0,o),
(732,0,c),
(732,76,l),
(661,76,o),
(641,100,o),
(549,226,cs),
(476,327,o),
(368,493,o),
(314,592,c),
(246,564,l),
(251,514,o),
(251,476,o),
(251,417,cs),
(251,349,o),
(245,273,o),
(235,201,cs),
(231,173,o),
(225,150,o),
(220,131,c),
(175,153,o),
(116,199,o),
(93,232,c),
(88,232,l),
(49,176,l),
(84,121,o),
(142,84,o),
(200,57,c),
(178,-8,o),
(157,-70,o),
(157,-139,cs),
(157,-249,o),
(237,-316,o),
(333,-316,cs),
(435,-316,o),
(511,-248,o),
(511,-127,cs)
);
},
{
closed = 1;
nodes = (
(440,-200,o),
(399,-243,o),
(334,-243,cs),
(267,-243,o),
(228,-189,o),
(228,-128,cs),
(228,-78,o),
(244,-22,o),
(265,32,c),
(365,-9,o),
(440,-41,o),
(440,-125,cs)
);
}
);
width = 732;
},
{
anchors = (
{
name = bottom;
pos = (261,-353);
},
{
name = top;
pos = (247,668);
}
);
layerId = "8E9A709A-C666-43E5-8831-9AE42D64DE83";
shapes = (
{
closed = 1;
nodes = (
(413,-41,o),
(356,-4,o),
(197,57,c),
(208,89,o),
(220,125,o),
(230,166,cs),
(248,238,o),
(262,346,o),
(262,454,cs),
(262,472,o),
(262,483,o),
(259,527,c),
(261,527,l),
(286,475,o),
(475,176,o),
(524,102,cs),
(590,3,o),
(622,0,o),
(669,0,c),
(669,25,l),
(629,25,o),
(608,28,o),
(545,119,cs),
(472,224,o),
(314,477,o),
(257,586,c),
(233,576,l),
(237,538,o),
(238,513,o),
(238,456,cs),
(238,348,o),
(225,241,o),
(206,169,cs),
(196,132,o),
(186,99,o),
(175,68,c),
(138,88,o),
(104,114,o),
(77,158,c),
(75,158,l),
(59,140,l),
(86,95,o),
(123,67,o),
(167,43,c),
(145,-20,o),
(126,-76,o),
(126,-143,cs),
(126,-234,o),
(189,-288,o),
(267,-288,cs),
(364,-288,o),
(413,-211,o),
(413,-140,cs)
);
},
{
closed = 1;
nodes = (
(387,-203,o),
(345,-263,o),
(270,-263,cs),
(198,-263,o),
(152,-213,o),
(152,-137,cs),
(152,-77,o),
(168,-25,o),
(188,33,c),
(325,-19,o),
(387,-47,o),
(387,-141,cs)
);
}
);
width = 669;
},
{
anchors = (
{
name = bottom;
pos = (357,-420);
},
{
name = top;
pos = (350,700);
}
);
layerId = "7FDEFC05-49C3-46A7-9C1D-65D39809C804";
shapes = (
{
closed = 1;
nodes = (
(598,41,o),
(497,108,o),
(377,169,c),
(385,201,o),
(391,233,o),
(395,264,cs),
(399,299,o),
(401,334,o),
(402,368,cs),
(402,383,o),
(403,398,o),
(403,412,c),
(408,412,l),
(466,318,o),
(531,217,o),
(591,133,cs),
(645,58,o),
(705,0,o),
(807,0,c),
(807,185,l),
(772,185,o),
(742,196,o),
(713,231,cs),
(645,314,o),
(493,554,o),
(440,639,c),
(274,590,l),
(276,561,o),
(276,520,o),
(276,502,cs),
(276,444,o),
(274,386,o),
(266,324,cs),
(262,293,o),
(257,261,o),
(249,227,c),
(204,251,o),
(157,283,o),
(124,315,c),
(115,315,l),
(39,180,l),
(68,142,o),
(135,101,o),
(194,66,c),
(162,-5,o),
(147,-60,o),
(147,-121,cs),
(147,-251,o),
(238,-336,o),
(358,-336,cs),
(471,-336,o),
(598,-265,o),
(598,-99,cs)
);
},
{
closed = 1;
nodes = (
(451,-145,o),
(419,-176,o),
(371,-176,cs),
(314,-176,o),
(295,-136,o),
(295,-93,cs),
(295,-60,o),
(306,-24,o),
(326,16,c),
(416,-25,o),
(451,-49,o),
(451,-108,cs)
);
}
);
width = 807;
}
);
note = uni071B.fina;
},
{
glyphname = uni071B.medi;
lastChange = "2022-12-16 14:47:25 +0000";
layers = (
{
anchors = (
{
name = bottom;
pos = (196,-381);
},
{
name = top;
pos = (153,664);
}
);
layerId = m01;
shapes = (
{
closed = 1;
nodes = (
(385,11,o),
(279,76,o),
(153,76,cs),
(152,76,o),
(150,76,o),
(149,76,c),
(156,103,o),
(165,139,o),
(172,178,cs),
(184,241,o),
(194,318,o),
(194,385,cs),
(194,400,o),
(193,416,o),
(191,440,c),
(196,440,l),
(218,400,o),
(316,250,o),
(366,179,cs),
(454,54,o),
(492,0,o),
(606,0,c),
(606,76,l),
(535,76,o),
(515,100,o),
(423,226,cs),
(350,326,o),
(242,493,o),
(188,592,c),
(120,564,l),
(125,514,o),
(125,476,o),
(125,417,cs),
(125,342,o),
(117,255,o),
(102,181,cs),
(94,141,o),
(86,105,o),
(77,76,c),
(0,76,ls),
(-21,76,o),
(-39,61,o),
(-39,38,cs),
(-39,14,o),
(-21,0,o),
(0,0,cs),
(53,0,l),
(39,-42,o),
(29,-96,o),
(29,-134,cs),
(29,-244,o),
(102,-316,o),
(202,-316,cs),
(305,-316,o),
(385,-248,o),
(385,-127,cs)
);
},
{
closed = 1;
nodes = (
(314,-200,o),
(269,-243,o),
(204,-243,cs),
(133,-243,o),
(100,-185,o),
(100,-124,cs),
(100,-88,o),
(109,-43,o),
(126,0,c),
(133,0,o),
(141,0,o),
(148,0,cs),
(240,0,o),
(314,-35,o),
(314,-125,cs)
);
}
);
width = 606;
},
{
anchors = (
{
name = bottom;
pos = (172,-356);
},
{
name = top;
pos = (155,665);
}
);
layerId = "8E9A709A-C666-43E5-8831-9AE42D64DE83";
shapes = (
{
closed = 1;
nodes = (
(332,-41,o),
(273,25,o),
(114,25,cs),
(107,25,o),
(101,25,o),
(94,25,c),
(106,67,o),
(121,116,o),
(135,171,cs),
(156,256,o),
(172,371,o),
(172,468,cs),
(172,476,o),
(172,493,o),
(169,527,c),
(171,527,l),
(196,475,o),
(366,204,o),
(415,130,cs),
(493,13,o),
(516,0,o),
(579,0,c),
(579,25,l),
(534,25,o),
(515,29,o),
(436,147,cs),
(365,253,o),
(224,477,o),
(167,586,c),
(143,576,l),
(147,538,o),
(148,527,o),
(148,470,cs),
(148,366,o),
(131,259,o),
(111,175,cs),
(97,118,o),
(81,69,o),
(68,25,c),
(0,25,ls),
(-19,25,o),
(-40,21,o),
(-40,13,cs),
(-40,4,o),
(-19,0,o),
(0,0,cs),
(61,0,l),
(48,-45,o),
(39,-88,o),
(39,-132,cs),
(39,-221,o),
(90,-288,o),
(179,-288,cs),
(274,-288,o),
(332,-219,o),
(332,-134,cs)
);
},
{
closed = 1;
nodes = (
(306,-214,o),
(254,-263,o),
(182,-263,cs),
(96,-263,o),
(65,-200,o),
(65,-126,cs),
(65,-88,o),
(74,-46,o),
(87,0,c),
(97,0,o),
(106,0,o),
(116,0,cs),
(234,0,o),
(306,-36,o),
(306,-135,cs)
);
}
);
width = 579;
},
{
anchors = (
{
name = bottom;
pos = (233,-421);
},
{
name = top;
pos = (221,700);
}
);
layerId = "7FDEFC05-49C3-46A7-9C1D-65D39809C804";
shapes = (
{
closed = 1;
nodes = (
(476,31,o),
(405,141,o),
(275,174,cs),
(268,176,o),
(258,178,o),
(251,179,c),
(256,203,o),
(261,233,o),
(264,259,cs),
(269,297,o),
(272,329,o),
(274,364,cs),
(275,380,o),
(275,396,o),
(275,412,c),
(280,412,l),
(338,318,o),
(403,217,o),
(463,133,cs),
(517,57,o),
(577,0,o),
(679,0,c),
(679,185,l),
(644,185,o),
(614,196,o),
(585,231,cs),
(517,314,o),
(365,554,o),
(312,639,c),
(146,590,l),
(148,561,o),
(148,529,o),
(148,511,cs),
(148,437,o),
(138,354,o),
(122,271,cs),
(116,242,o),
(110,213,o),
(103,185,c),
(0,185,ls),
(-24,185,o),
(-40,141,o),
(-40,92,cs),
(-40,42,o),
(-24,0,o),
(0,0,cs),
(39,0,l),
(24,-43,o),
(19,-76,o),
(19,-122,cs),
(19,-248,o),
(109,-335,o),
(234,-335,cs),
(348,-335,o),
(476,-272,o),
(476,-78,cs)
);
},
{
closed = 1;
nodes = (
(331,-157,o),
(288,-175,o),
(247,-175,cs),
(200,-175,o),
(168,-143,o),
(168,-87,cs),
(168,-61,o),
(178,-28,o),
(194,0,c),
(202,0,o),
(210,-1,o),
(217,-2,cs),
(299,-13,o),
(331,-46,o),
(331,-99,cs)
);
}
);
width = 679;
}
);
note = uni071B.medi;
},
{
glyphname = uni071B.init;
lastChange = "2022-12-16 14:45:47 +0000";
layers = (
{
anchors = (
{
name = bottom;
pos = (196,-381);
},
{
name = top;
pos = (210,690);
}
);
layerId = m01;
shapes = (
{
closed = 1;
nodes = (
(385,2,o),
(295,66,o),
(176,74,cs),
(171,74,o),
(166,75,o),
(161,75,c),
(183,118,o),
(221,170,o),
(251,210,cs),
(349,341,o),
(376,422,o),
(376,490,cs),
(376,554,o),
(366,602,o),
(313,655,c),
(309,655,l),
(261,594,l),
(292,559,o),
(303,527,o),
(303,484,cs),
(303,442,o),
(277,374,o),
(223,298,cs),
(177,233,o),
(115,145,o),
(82,76,c),
(0,76,ls),
(-21,76,o),
(-39,61,o),
(-39,38,cs),
(-39,14,o),
(-21,0,o),
(0,0,cs),
(52,0,l),
(38,-39,o),
(26,-83,o),
(26,-134,cs),
(26,-244,o),
(102,-316,o),
(202,-316,cs),
(305,-316,o),
(385,-248,o),
(385,-127,cs)
);
},
{
closed = 1;
nodes = (
(314,-200,o),
(269,-243,o),
(204,-243,cs),
(128,-243,o),
(97,-185,o),
(97,-124,cs),
(97,-88,o),
(106,-41,o),
(125,0,c),
(133,0,o),
(140,0,o),
(148,0,cs),
(240,0,o),
(314,-35,o),
(314,-125,cs)
);
}
);
width = 438;
},
{
anchors = (
{
name = bottom;
pos = (178,-352);
},
{
name = top;
pos = (184,691);
}
);
layerId = "8E9A709A-C666-43E5-8831-9AE42D64DE83";
shapes = (
{
closed = 1;
nodes = (
(332,-41,o),
(273,25,o),
(114,25,cs),
(110,25,o),
(106,25,o),
(102,25,c),
(137,100,o),
(188,170,o),
(224,235,cs),
(285,346,o),
(313,428,o),
(313,500,cs),
(313,554,o),
(304,591,o),
(271,635,c),
(269,635,l),
(252,616,l),
(277,580,o),
(287,544,o),
(287,498,cs),
(287,419,o),
(250,334,o),
(203,248,cs),
(160,169,o),
(108,100,o),
(75,25,c),
(0,25,ls),
(-19,25,o),
(-40,21,o),
(-40,13,cs),
(-40,4,o),
(-19,0,o),
(0,0,cs),
(64,0,l),
(49,-41,o),
(39,-84,o),
(39,-132,cs),
(39,-221,o),
(90,-288,o),
(179,-288,cs),
(274,-288,o),
(332,-219,o),
(332,-134,cs)
);
},
{
closed = 1;
nodes = (
(306,-214,o),
(254,-263,o),
(182,-263,cs),
(96,-263,o),
(65,-200,o),
(65,-126,cs),
(65,-82,o),
(75,-40,o),
(91,0,c),
(99,0,o),
(108,0,o),
(116,0,cs),
(234,0,o),
(306,-36,o),
(306,-135,cs)
);
}
);
width = 403;
},
{
anchors = (
{
name = bottom;
pos = (209,-421);
},
{
name = top;
pos = (129,709);
}
);
layerId = "7FDEFC05-49C3-46A7-9C1D-65D39809C804";
shapes = (
{
closed = 1;
nodes = (
(457,44,o),
(391,112,o),
(301,154,cs),
(293,158,o),
(286,161,o),
(280,163,c),
(290,177,o),
(301,192,o),
(311,206,cs),
(371,288,o),
(405,366,o),
(405,462,cs),
(405,562,o),
(370,638,o),
(291,695,c),
(286,695,l),
(178,571,l),
(223,526,o),
(239,490,o),
(239,435,cs),
(239,388,o),
(224,345,o),
(190,294,cs),
(163,253,o),
(145,226,o),
(116,185,c),
(0,185,ls),
(-24,185,o),
(-40,141,o),
(-40,92,cs),
(-40,42,o),
(-24,0,o),
(0,0,cs),
(17,0,l),
(4,-38,o),
(-4,-73,o),
(-4,-115,cs),
(-4,-244,o),
(91,-335,o),
(209,-335,cs),
(328,-335,o),
(457,-273,o),
(457,-77,cs)
);
},
{
closed = 1;
nodes = (
(310,-153,o),
(265,-175,o),
(224,-175,cs),
(172,-175,o),
(147,-136,o),
(147,-91,cs),
(147,-53,o),
(159,-21,o),
(177,0,c),
(184,0,o),
(193,-1,o),
(199,-2,cs),
(279,-12,o),
(310,-49,o),
(310,-99,cs)
);
}
);
width = 501;
}
);
note = uni071B.init;
},
{
glyphname = uni071C;
lastChange = "2022-12-16 12:05:34 +0000";
layers = (
{
anchors = (
{
name = bottom;
pos = (288,-381);
},
{
name = top;
pos = (299,689);
}
);
layerId = m01;
shapes = (
{
closed = 1;
nodes = (
(473,-7,o),
(394,41,o),
(282,89,c),
(313,133,o),
(347,176,o),
(376,221,cs),
(448,334,o),
(464,437,o),
(464,490,cs),
(464,554,o),
(454,602,o),
(401,655,c),
(397,655,l),
(349,594,l),
(380,559,o),
(391,527,o),
(391,484,cs),
(391,424,o),
(362,338,o),
(313,258,cs),
(280,204,o),
(248,160,o),
(218,119,c),
(175,137,o),
(119,190,o),
(93,228,c),
(88,228,l),
(49,172,l),
(83,119,o),
(123,83,o),
(174,56,c),
(140,2,o),
(117,-58,o),
(117,-134,cs),
(117,-244,o),
(189,-316,o),
(290,-316,cs),
(393,-316,o),
(473,-248,o),
(473,-127,cs)
);
},
{
closed = 1;
nodes = (
(402,-200,o),
(356,-243,o),
(292,-243,cs),
(221,-243,o),
(187,-185,o),
(187,-124,cs),
(187,-69,o),
(209,-18,o),
(240,27,c),
(333,-12,o),
(402,-44,o),
(402,-125,cs)
);
},
{
closed = 1;
nodes = (
(254,-143,o),
(270,-157,o),
(292,-157,cs),
(312,-157,o),
(329,-143,o),
(329,-116,cs),
(329,-89,o),
(312,-75,o),
(292,-75,cs),
(270,-75,o),
(254,-89,o),
(254,-116,cs)
);
}
);
width = 526;
},
{
anchors = (
{
name = bottom;
pos = (236,-353);
},
{
name = top;
pos = (275,690);
}
);
layerId = "8E9A709A-C666-43E5-8831-9AE42D64DE83";
shapes = (
{
closed = 1;
nodes = (
(389,-38,o),
(318,14,o),
(210,60,c),
(277,155,o),
(295,182,o),
(313,213,cs),
(377,321,o),
(403,428,o),
(403,500,cs),
(403,554,o),
(394,591,o),
(361,635,c),
(359,635,l),
(342,616,l),
(367,580,o),
(377,544,o),
(377,498,cs),
(377,419,o),
(341,309,o),
(292,226,cs),
(261,174,o),
(217,114,o),
(187,71,c),
(148,89,o),
(111,115,o),
(77,164,c),
(75,164,l),
(59,146,l),
(86,103,o),
(123,75,o),
(171,51,c),
(129,-12,o),
(99,-70,o),
(99,-144,cs),
(99,-227,o),
(154,-288,o),
(238,-288,cs),
(333,-288,o),
(389,-214,o),
(389,-132,cs)
);
},
{
closed = 1;
nodes = (
(363,-210,o),
(313,-263,o),
(241,-263,cs),
(160,-263,o),
(125,-206,o),
(125,-138,cs),
(125,-70,o),
(160,-9,o),
(195,41,c),
(294,-3,o),
(363,-45,o),
(363,-133,cs)
);
},
{
closed = 1;
nodes = (
(218,-131,o),
(222,-144,o),
(240,-144,cs),
(262,-144,o),
(264,-131,o),
(264,-116,cs),
(264,-102,o),
(262,-88,o),
(240,-88,cs),
(222,-88,o),
(218,-102,o),
(218,-116,cs)
);
}
);
width = 466;
},
{
anchors = (
{
name = bottom;
pos = (336,-421);
},
{
name = top;
pos = (252,708);
}
);
layerId = "7FDEFC05-49C3-46A7-9C1D-65D39809C804";
shapes = (
{
closed = 1;
nodes = (
(586,39,o),
(514,105,o),
(416,169,c),
(424,181,o),
(433,194,o),
(441,206,cs),
(499,291,o),
(537,371,o),
(537,462,cs),
(537,562,o),
(503,638,o),
(424,695,c),
(419,695,l),
(307,567,l),
(352,522,o),
(367,488,o),
(367,437,cs),
(367,386,o),
(354,344,o),
(321,294,cs),
(310,276,o),
(298,258,o),
(287,240,c),
(240,269,o),
(198,298,o),
(158,339,c),
(149,339,l),
(56,202,l),
(81,163,o),
(126,129,o),
(177,95,c),
(125,23,o),
(102,-41,o),
(102,-107,cs),
(102,-261,o),
(215,-335,o),
(335,-335,cs),
(449,-335,o),
(586,-271,o),
(586,-84,cs)
);
},
{
closed = 1;
nodes = (
(452,-188,o),
(401,-227,o),
(343,-227,cs),
(269,-227,o),
(232,-174,o),
(232,-117,cs),
(232,-56,o),
(264,-11,o),
(306,34,c),
(419,-18,o),
(452,-52,o),
(452,-122,cs)
);
},
{
closed = 1;
nodes = (
(275,-161,o),
(306,-179,o),
(341,-179,cs),
(375,-179,o),
(408,-161,o),
(408,-118,cs),
(408,-74,o),
(375,-56,o),
(341,-56,cs),
(306,-56,o),
(275,-74,o),
(275,-118,cs)
);
}
);
width = 613;
}
);
note = uni071C;
unicode = 1820;
},
{
glyphname = uni071C.fina;
lastChange = "2022-12-16 12:05:34 +0000";
layers = (
{
anchors = (
{
name = bottom;
pos = (327,-381);
},
{
name = top;
pos = (280,664);
}
);
layerId = m01;
shapes = (
{
closed = 1;
nodes = (
(511,8,o),
(408,53,o),
(287,104,c),
(293,126,o),
(299,152,o),
(304,180,cs),
(315,244,o),
(320,319,o),
(320,385,cs),
(320,400,o),
(319,416,o),
(317,440,c),
(322,440,l),
(343,400,o),
(442,250,o),
(492,179,cs),
(581,54,o),
(621,0,o),
(732,0,c),
(732,76,l),
(661,76,o),
(640,100,o),
(549,226,cs),
(477,326,o),
(368,493,o),
(314,592,c),
(246,564,l),
(251,514,o),
(251,476,o),
(251,417,cs),
(251,349,o),
(245,273,o),
(235,201,cs),
(231,173,o),
(225,150,o),
(220,131,c),
(175,153,o),
(116,199,o),
(93,232,c),
(88,232,l),
(49,176,l),
(84,121,o),
(142,84,o),
(200,57,c),
(178,-8,o),
(157,-70,o),
(157,-139,cs),
(157,-249,o),
(237,-316,o),
(333,-316,cs),
(435,-316,o),
(511,-248,o),
(511,-127,cs)
);
},
{
closed = 1;
nodes = (
(440,-200,o),
(399,-243,o),
(334,-243,cs),
(267,-243,o),
(228,-189,o),
(228,-128,cs),
(228,-78,o),
(244,-22,o),
(265,32,c),
(365,-9,o),
(440,-41,o),
(440,-125,cs)
);
},
{
closed = 1;
nodes = (
(293,-143,o),
(309,-157,o),
(331,-157,cs),
(351,-157,o),
(368,-143,o),
(368,-116,cs),
(368,-89,o),
(351,-75,o),
(331,-75,cs),
(309,-75,o),
(293,-89,o),
(293,-116,cs)
);
}
);
width = 732;
},
{
anchors = (
{
name = bottom;
pos = (261,-353);
},
{
name = top;
pos = (247,668);
}
);
layerId = "8E9A709A-C666-43E5-8831-9AE42D64DE83";
shapes = (
{
closed = 1;
nodes = (
(413,-41,o),
(356,-4,o),
(197,57,c),
(208,89,o),
(220,125,o),
(230,166,cs),
(248,238,o),
(262,346,o),
(262,454,cs),
(262,472,o),
(262,483,o),
(259,527,c),
(261,527,l),
(286,475,o),
(475,176,o),
(524,102,cs),
(590,3,o),
(622,0,o),
(669,0,c),
(669,25,l),
(629,25,o),
(608,28,o),
(545,119,cs),
(472,224,o),
(314,477,o),
(257,586,c),
(233,576,l),
(237,538,o),
(238,513,o),
(238,456,cs),
(238,348,o),
(225,241,o),
(206,169,cs),
(196,132,o),
(186,99,o),
(175,68,c),
(138,88,o),
(104,114,o),
(77,158,c),
(75,158,l),
(59,140,l),
(86,95,o),
(123,67,o),
(167,43,c),
(145,-20,o),
(126,-76,o),
(126,-143,cs),
(126,-234,o),
(189,-288,o),
(267,-288,cs),
(364,-288,o),
(413,-211,o),
(413,-140,cs)
);
},
{
closed = 1;
nodes = (
(387,-203,o),
(345,-263,o),
(270,-263,cs),
(198,-263,o),
(152,-213,o),
(152,-137,cs),
(152,-77,o),
(168,-25,o),
(188,33,c),
(325,-19,o),
(387,-47,o),
(387,-141,cs)
);
},
{
closed = 1;
nodes = (
(244,-131,o),
(248,-144,o),
(266,-144,cs),
(288,-144,o),
(290,-131,o),
(290,-116,cs),
(290,-102,o),
(288,-88,o),
(266,-88,cs),
(248,-88,o),
(244,-102,o),
(244,-116,cs)
);
}
);
width = 669;
},
{
anchors = (
{
name = bottom;
pos = (356,-427);
},
{
name = top;
pos = (349,699);
}
);
layerId = "7FDEFC05-49C3-46A7-9C1D-65D39809C804";
shapes = (
{
closed = 1;
nodes = (
(604,45,o),
(491,116,o),
(374,170,c),
(383,203,o),
(389,234,o),
(394,265,cs),
(399,299,o),
(401,322,o),
(402,357,cs),
(403,382,o),
(403,397,o),
(403,412,c),
(408,412,l),
(466,318,o),
(531,217,o),
(591,133,cs),
(645,57,o),
(705,0,o),
(807,0,c),
(807,185,l),
(772,185,o),
(742,196,o),
(713,231,cs),
(645,314,o),
(493,554,o),
(440,639,c),
(274,590,l),
(276,561,o),
(276,520,o),
(276,502,cs),
(276,445,o),
(274,385,o),
(266,323,cs),
(262,289,o),
(256,254,o),
(248,219,c),
(203,243,o),
(155,273,o),
(122,305,c),
(113,305,l),
(37,170,l),
(68,129,o),
(131,88,o),
(190,56,c),
(158,-8,o),
(138,-63,o),
(138,-124,cs),
(138,-262,o),
(237,-342,o),
(358,-342,cs),
(471,-342,o),
(604,-274,o),
(604,-109,cs)
);
},
{
closed = 1;
nodes = (
(481,-193,o),
(428,-234,o),
(370,-234,cs),
(296,-234,o),
(258,-184,o),
(258,-121,cs),
(258,-70,o),
(291,-21,o),
(320,18,c),
(463,-30,o),
(481,-65,o),
(481,-129,cs)
);
},
{
closed = 1;
nodes = (
(302,-161,o),
(333,-179,o),
(368,-179,cs),
(402,-179,o),
(435,-161,o),
(435,-118,cs),
(435,-74,o),
(402,-56,o),
(368,-56,cs),
(333,-56,o),
(302,-74,o),
(302,-118,cs)
);
}
);
width = 807;
}
);
note = uni071C.fina;
},
{
glyphname = uni071C.medi;
lastChange = "2022-12-16 14:46:06 +0000";
layers = (
{
anchors = (
{
name = bottom;
pos = (196,-381);
},
{
name = top;
pos = (155,664);
}
);
layerId = m01;
shapes = (
{
closed = 1;
nodes = (
(385,11,o),
(278,76,o),
(152,76,cs),
(151,76,o),
(150,76,o),
(149,76,c),
(156,103,o),
(165,139,o),
(172,178,cs),
(184,241,o),
(194,318,o),
(194,385,cs),
(194,400,o),
(193,416,o),
(191,440,c),
(196,440,l),
(218,400,o),
(316,250,o),
(366,179,cs),
(454,54,o),
(492,0,o),
(606,0,c),
(606,76,l),
(535,76,o),
(514,100,o),
(423,226,cs),
(350,327,o),
(242,493,o),
(188,592,c),
(120,564,l),
(125,514,o),
(125,476,o),
(125,417,cs),
(125,342,o),
(115,255,o),
(102,181,cs),
(95,141,o),
(86,105,o),
(77,76,c),
(0,76,ls),
(-21,76,o),
(-39,61,o),
(-39,38,cs),
(-39,14,o),
(-21,0,o),
(0,0,cs),
(53,0,l),
(39,-42,o),
(29,-96,o),
(29,-134,cs),
(29,-244,o),
(102,-316,o),
(202,-316,cs),
(305,-316,o),
(385,-248,o),
(385,-127,cs)
);
},
{
closed = 1;
nodes = (
(314,-200,o),
(269,-243,o),
(204,-243,cs),
(133,-243,o),
(100,-185,o),
(100,-124,cs),
(100,-88,o),
(109,-43,o),
(126,0,c),
(148,0,ls),
(240,0,o),
(314,-35,o),
(314,-125,cs)
);
},
{
closed = 1;
nodes = (
(166,-143,o),
(182,-157,o),
(204,-157,cs),
(224,-157,o),
(241,-143,o),
(241,-116,cs),
(241,-89,o),
(224,-75,o),
(204,-75,cs),
(182,-75,o),
(166,-89,o),
(166,-116,cs)
);
}
);
width = 606;
},
{
anchors = (
{
name = bottom;
pos = (170,-354);
},
{
name = top;
pos = (155,664);
}
);
layerId = "8E9A709A-C666-43E5-8831-9AE42D64DE83";
shapes = (
{
closed = 1;
nodes = (
(332,-41,o),
(273,25,o),
(114,25,cs),
(107,25,o),
(101,25,o),
(94,25,c),
(106,67,o),
(121,116,o),
(135,171,cs),
(156,256,o),
(172,371,o),
(172,468,cs),
(172,476,o),
(172,493,o),
(169,527,c),
(171,527,l),
(196,475,o),
(366,204,o),
(415,130,cs),
(493,13,o),
(516,0,o),
(579,0,c),
(579,25,l),
(534,25,o),
(515,29,o),
(436,147,cs),
(365,253,o),
(224,477,o),
(167,586,c),
(143,576,l),
(147,538,o),
(148,527,o),
(148,470,cs),
(148,366,o),
(131,259,o),
(111,175,cs),
(97,118,o),
(81,69,o),
(68,25,c),
(0,25,ls),
(-19,25,o),
(-40,21,o),
(-40,13,cs),
(-40,4,o),
(-19,0,o),
(0,0,cs),
(61,0,l),
(48,-45,o),
(39,-88,o),
(39,-132,cs),
(39,-221,o),
(90,-288,o),
(179,-288,cs),
(274,-288,o),
(332,-219,o),
(332,-134,cs)
);
},
{
closed = 1;
nodes = (
(306,-214,o),
(254,-263,o),
(182,-263,cs),
(96,-263,o),
(65,-200,o),
(65,-126,cs),
(65,-88,o),
(74,-46,o),
(87,0,c),
(116,0,ls),
(234,0,o),
(306,-36,o),
(306,-135,cs)
);
},
{
closed = 1;
nodes = (
(158,-131,o),
(162,-144,o),
(180,-144,cs),
(202,-144,o),
(204,-131,o),
(204,-116,cs),
(204,-102,o),
(202,-88,o),
(180,-88,cs),
(162,-88,o),
(158,-102,o),
(158,-116,cs)
);
}
);
width = 579;
},
{
anchors = (
{
name = bottom;
pos = (229,-428);
},
{
name = top;
pos = (214,699);
}
);
layerId = "7FDEFC05-49C3-46A7-9C1D-65D39809C804";
shapes = (
{
closed = 1;
nodes = (
(469,24,o),
(395,140,o),
(262,175,cs),
(254,177,o),
(246,179,o),
(238,180,c),
(245,208,o),
(251,232,o),
(255,260,cs),
(260,293,o),
(264,331,o),
(266,357,cs),
(267,375,o),
(268,395,o),
(268,412,c),
(273,412,l),
(331,318,o),
(396,217,o),
(456,133,cs),
(510,57,o),
(570,0,o),
(672,0,c),
(672,185,l),
(637,185,o),
(607,196,o),
(578,231,cs),
(510,314,o),
(358,554,o),
(305,639,c),
(139,590,l),
(141,561,o),
(141,520,o),
(141,502,cs),
(141,430,o),
(135,347,o),
(121,270,cs),
(116,241,o),
(110,212,o),
(102,185,c),
(0,185,ls),
(-24,185,o),
(-40,141,o),
(-40,92,cs),
(-40,42,o),
(-24,0,o),
(0,0,cs),
(38,0,l),
(24,-44,o),
(15,-84,o),
(15,-130,cs),
(15,-256,o),
(111,-342,o),
(229,-342,cs),
(343,-342,o),
(469,-285,o),
(469,-85,cs)
);
},
{
closed = 1;
nodes = (
(352,-189,o),
(311,-234,o),
(241,-234,cs),
(172,-234,o),
(129,-193,o),
(129,-126,cs),
(129,-71,o),
(153,-28,o),
(173,0,c),
(193,0,ls),
(314,0,o),
(352,-69,o),
(352,-129,cs)
);
},
{
closed = 1;
nodes = (
(173,-161,o),
(204,-179,o),
(239,-179,cs),
(273,-179,o),
(306,-161,o),
(306,-118,cs),
(306,-74,o),
(273,-56,o),
(239,-56,cs),
(204,-56,o),
(173,-74,o),
(173,-118,cs)
);
}
);
width = 672;
}
);
note = uni071C.medi;
},
{
glyphname = uni071C.init;
lastChange = "2022-12-16 14:47:06 +0000";
layers = (
{
anchors = (
{
name = bottom;
pos = (198,-381);
},
{
name = top;
pos = (211,688);
}
);
layerId = m01;
shapes = (
{
closed = 1;
nodes = (
(385,2,o),
(295,66,o),
(176,74,cs),
(171,74,o),
(166,75,o),
(161,75,c),
(183,118,o),
(221,170,o),
(251,210,cs),
(349,341,o),
(376,422,o),
(376,490,cs),
(376,554,o),
(366,602,o),
(313,655,c),
(309,655,l),
(261,594,l),
(292,559,o),
(303,527,o),
(303,484,cs),
(303,442,o),
(277,375,o),
(223,298,cs),
(177,233,o),
(115,145,o),
(82,76,c),
(0,76,ls),
(-21,76,o),
(-39,61,o),
(-39,38,cs),
(-39,14,o),
(-21,0,o),
(0,0,cs),
(52,0,l),
(38,-39,o),
(26,-83,o),
(26,-134,cs),
(26,-244,o),
(102,-316,o),
(202,-316,cs),
(305,-316,o),
(385,-248,o),
(385,-127,cs)
);
},
{
closed = 1;
nodes = (
(314,-200,o),
(269,-243,o),
(204,-243,cs),
(128,-243,o),
(97,-185,o),
(97,-124,cs),
(97,-88,o),
(106,-41,o),
(125,0,c),
(148,0,ls),
(240,0,o),
(314,-35,o),
(314,-125,cs)
);
},
{
closed = 1;
nodes = (
(165,-143,o),
(181,-157,o),
(203,-157,cs),
(223,-157,o),
(240,-143,o),
(240,-116,cs),
(240,-89,o),
(223,-75,o),
(203,-75,cs),
(181,-75,o),
(165,-89,o),
(165,-116,cs)
);
}
);
width = 438;
},
{
anchors = (
{
name = bottom;
pos = (178,-352);
},
{
name = top;
pos = (185,692);
}
);
layerId = "8E9A709A-C666-43E5-8831-9AE42D64DE83";
shapes = (
{
closed = 1;
nodes = (
(332,-41,o),
(273,25,o),
(114,25,cs),
(110,25,o),
(106,25,o),
(102,25,c),
(137,100,o),
(188,170,o),
(224,235,cs),
(285,346,o),
(313,428,o),
(313,500,cs),
(313,554,o),
(304,591,o),
(271,635,c),
(269,635,l),
(252,616,l),
(277,580,o),
(287,544,o),
(287,498,cs),
(287,419,o),
(250,334,o),
(203,248,cs),
(160,169,o),
(108,100,o),
(75,25,c),
(0,25,ls),
(-19,25,o),
(-40,21,o),
(-40,13,cs),
(-40,4,o),
(-19,0,o),
(0,0,cs),
(64,0,l),
(49,-41,o),
(39,-84,o),
(39,-132,cs),
(39,-221,o),
(90,-288,o),
(179,-288,cs),
(274,-288,o),
(332,-219,o),
(332,-134,cs)
);
},
{
closed = 1;
nodes = (
(306,-214,o),
(254,-263,o),
(182,-263,cs),
(96,-263,o),
(65,-200,o),
(65,-126,cs),
(65,-82,o),
(75,-40,o),
(91,0,c),
(116,0,ls),
(234,0,o),
(306,-36,o),
(306,-135,cs)
);
},
{
closed = 1;
nodes = (
(160,-131,o),
(164,-144,o),
(182,-144,cs),
(204,-144,o),
(206,-131,o),
(206,-116,cs),
(206,-102,o),
(204,-88,o),
(182,-88,cs),
(164,-88,o),
(160,-102,o),
(160,-116,cs)
);
}
);
width = 403;
},
{
anchors = (
{
name = bottom;
pos = (233,-429);
},
{
name = top;
pos = (147,707);
}
);
layerId = "7FDEFC05-49C3-46A7-9C1D-65D39809C804";
shapes = (
{
closed = 1;
nodes = (
(495,45,o),
(426,113,o),
(330,154,cs),
(316,160,o),
(308,163,o),
(301,165,c),
(310,179,o),
(320,192,o),
(329,206,cs),
(386,290,o),
(423,366,o),
(423,462,cs),
(423,562,o),
(388,638,o),
(309,695,c),
(304,695,l),
(191,565,l),
(236,520,o),
(257,487,o),
(257,435,cs),
(257,388,o),
(242,345,o),
(208,294,cs),
(184,258,o),
(159,221,o),
(135,185,c),
(0,185,ls),
(-24,185,o),
(-40,141,o),
(-40,92,cs),
(-40,42,o),
(-24,0,o),
(0,0,cs),
(21,0,l),
(8,-38,o),
(-1,-80,o),
(-1,-122,cs),
(-1,-257,o),
(104,-342,o),
(233,-342,cs),
(352,-342,o),
(495,-273,o),
(495,-83,cs)
);
},
{
closed = 1;
nodes = (
(355,-189,o),
(314,-234,o),
(244,-234,cs),
(173,-234,o),
(132,-188,o),
(132,-121,cs),
(132,-78,o),
(148,-38,o),
(183,0,c),
(196,0,ls),
(317,0,o),
(355,-69,o),
(355,-129,cs)
);
},
{
closed = 1;
nodes = (
(176,-161,o),
(207,-179,o),
(242,-179,cs),
(276,-179,o),
(309,-161,o),
(309,-118,cs),
(309,-74,o),
(276,-56,o),
(242,-56,cs),
(207,-56,o),
(176,-74,o),
(176,-118,cs)
);
}
);
width = 519;
}
);
note = uni071C.init;
},
{
glyphname = uni071D;
lastChange = "2022-12-16 14:42:29 +0000";
layers = (
{
anchors = (
{
name = bottom;
pos = (272,-98);
},
{
name = top;
pos = (318,341);
}
);
layerId = m01;
shapes = (
{
closed = 1;
nodes = (
(331,70,o),
(318,69,o),
(282,69,cs),
(179,69,o),
(127,113,o),
(125,198,c),
(61,194,l),
(59,189,o),
(59,175,o),
(59,171,cs),
(59,79,o),
(113,-7,o),
(267,-7,cs),
(304,-7,o),
(356,-6,o),
(383,0,cs),
(456,16,o),
(486,56,o),
(486,114,cs),
(486,157,o),
(470,203,o),
(435,203,cs),
(416,203,o),
(400,196,o),
(388,168,cs),
(377,143,o),
(356,86,o),
(349,72,c)
);
}
);
width = 559;
},
{
anchors = (
{
name = bottom;
pos = (236,-98);
},
{
name = top;
pos = (262,283);
}
);
layerId = "8E9A709A-C666-43E5-8831-9AE42D64DE83";
shapes = (
{
closed = 1;
nodes = (
(348,28,o),
(309,25,o),
(242,25,cs),
(127,25,o),
(91,69,o),
(86,146,c),
(62,142,l),
(62,141,o),
(62,139,o),
(62,138,cs),
(62,48,o),
(122,0,o),
(244,0,cs),
(312,0,o),
(362,2,o),
(387,22,cs),
(410,40,o),
(417,78,o),
(417,114,cs),
(417,130,o),
(416,146,o),
(403,146,cs),
(395,146,o),
(389,142,o),
(386,126,cs),
(379,92,o),
(371,49,o),
(365,37,c)
);
}
);
width = 498;
},
{
anchors = (
{
name = bottom;
pos = (322,-98);
},
{
name = top;
pos = (374,447);
}
);
layerId = "7FDEFC05-49C3-46A7-9C1D-65D39809C804";
shapes = (
{
closed = 1;
nodes = (
(374,174,o),
(363,174,o),
(352,174,cs),
(264,174,o),
(198,198,o),
(185,300,c),
(47,297,l),
(45,282,o),
(45,261,o),
(45,255,cs),
(45,57,o),
(191,-6,o),
(342,-6,cs),
(414,-6,o),
(455,-2,o),
(492,10,cs),
(575,37,o),
(615,113,o),
(615,192,cs),
(615,265,o),
(585,333,o),
(519,333,cs),
(473,333,o),
(448,306,o),
(432,262,cs),
(422,234,o),
(412,205,o),
(402,177,c)
);
}
);
width = 670;
}
);
note = uni071D;
unicode = 1821;
},
{
glyphname = uni071D.fina;
lastChange = "2022-12-16 14:42:37 +0000";
layers = (
{
anchors = (
{
name = bottom;
pos = (271,-98);
},
{
name = top;
pos = (318,341);
}
);
layerId = m01;
shapes = (
{
closed = 1;
nodes = (
(578,0,l),
(578,76,l),
(561,76,o),
(539,79,o),
(529,82,c),
(520,89,o),
(498,129,o),
(486,149,cs),
(459,196,o),
(449,203,o),
(423,203,cs),
(400,203,o),
(390,193,o),
(378,175,cs),
(347,129,ls),
(314,80,o),
(287,68,o),
(238,68,cs),
(152,68,o),
(127,128,o),
(125,198,c),
(61,194,l),
(59,188,o),
(59,182,o),
(59,178,cs),
(59,64,o),
(106,-7,o),
(241,-7,cs),
(327,-7,o),
(379,23,o),
(418,70,c),
(458,17,o),
(488,0,o),
(573,0,cs)
);
}
);
width = 578;
},
{
anchors = (
{
name = bottom;
pos = (236,-98);
},
{
name = top;
pos = (262,282);
}
);
layerId = "8E9A709A-C666-43E5-8831-9AE42D64DE83";
shapes = (
{
closed = 1;
nodes = (
(522,0,l),
(522,25,l),
(509,25,o),
(489,25,o),
(478,26,cs),
(468,28,o),
(453,43,o),
(423,98,cs),
(400,140,o),
(398,143,o),
(386,143,cs),
(378,143,o),
(374,141,o),
(364,126,cs),
(346,98,ls),
(314,48,o),
(283,18,o),
(214,18,cs),
(132,18,o),
(90,55,o),
(86,140,c),
(62,136,l),
(62,134,o),
(62,131,o),
(62,129,cs),
(62,35,o),
(126,-7,o),
(210,-7,cs),
(290,-7,o),
(333,23,o),
(385,115,c),
(438,13,o),
(453,0,o),
(499,0,cs)
);
}
);
width = 522;
},
{
anchors = (
{
name = bottom;
pos = (334,-98);
},
{
name = top;
pos = (390,448);
}
);
layerId = "7FDEFC05-49C3-46A7-9C1D-65D39809C804";
shapes = (
{
closed = 1;
nodes = (
(721,0,l),
(721,185,l),
(676,185,o),
(657,195,o),
(651,199,c),
(643,210,o),
(630,237,o),
(623,253,cs),
(603,297,o),
(584,331,o),
(536,331,cs),
(496,331,o),
(476,314,o),
(454,276,cs),
(441,253,ls),
(414,204,o),
(387,174,o),
(322,174,cs),
(224,174,o),
(193,235,o),
(185,300,c),
(47,297,l),
(45,282,o),
(45,261,o),
(45,255,cs),
(45,72,o),
(157,-5,o),
(303,-5,cs),
(378,-5,o),
(457,9,o),
(515,49,c),
(576,7,o),
(633,0,o),
(705,0,cs)
);
}
);
width = 721;
}
);
note = uni071D.fina;
},
{
glyphname = uni071D.medi;
lastChange = "2022-12-16 12:05:34 +0000";
layers = (
{
anchors = (
{
name = bottom;
pos = (168,-98);
},
{
name = top;
pos = (174,338);
}
);
layerId = m01;
shapes = (
{
closed = 1;
nodes = (
(325,0,l),
(325,76,l),
(308,76,o),
(286,79,o),
(276,82,c),
(267,89,o),
(244,129,o),
(233,149,cs),
(206,196,o),
(196,203,o),
(170,203,cs),
(147,203,o),
(137,193,o),
(125,175,cs),
(94,129,ls),
(70,93,o),
(48,76,o),
(0,76,cs),
(-21,76,o),
(-39,61,o),
(-39,38,cs),
(-39,14,o),
(-21,0,o),
(0,0,cs),
(62,0,o),
(104,16,o),
(143,48,cs),
(151,55,o),
(158,62,o),
(165,70,c),
(205,17,o),
(235,0,o),
(320,0,cs)
);
}
);
width = 325;
},
{
anchors = (
{
name = bottom;
pos = (123,-98);
},
{
name = top;
pos = (144,282);
}
);
layerId = "8E9A709A-C666-43E5-8831-9AE42D64DE83";
shapes = (
{
closed = 1;
nodes = (
(277,0,l),
(277,25,l),
(264,25,o),
(244,25,o),
(233,26,cs),
(223,28,o),
(208,43,o),
(178,98,cs),
(155,140,o),
(153,143,o),
(141,143,cs),
(132,143,o),
(127,141,o),
(113,117,cs),
(99,94,ls),
(71,48,o),
(52,25,o),
(0,25,cs),
(-18,25,o),
(-40,21,o),
(-40,13,cs),
(-40,4,o),
(-18,0,o),
(0,0,cs),
(62,0,o),
(90,30,o),
(115,72,cs),
(123,86,o),
(132,101,o),
(140,115,c),
(193,13,o),
(208,0,o),
(254,0,cs)
);
}
);
width = 277;
},
{
anchors = (
{
name = bottom;
pos = (179,-98);
},
{
name = top;
pos = (195,470);
}
);
layerId = "7FDEFC05-49C3-46A7-9C1D-65D39809C804";
shapes = (
{
closed = 1;
nodes = (
(370,0,l),
(370,185,l),
(337,185,o),
(316,195,o),
(310,199,c),
(302,210,o),
(289,237,o),
(282,253,cs),
(262,297,o),
(243,331,o),
(195,331,cs),
(155,331,o),
(135,314,o),
(113,276,cs),
(100,253,ls),
(69,198,o),
(56,185,o),
(0,185,cs),
(-24,185,o),
(-40,141,o),
(-40,92,cs),
(-40,42,o),
(-24,0,o),
(0,0,cs),
(41,0,o),
(95,7,o),
(145,32,cs),
(155,37,o),
(164,42,o),
(174,49,c),
(235,7,o),
(284,0,o),
(355,0,cs)
);
}
);
width = 370;
}
);
note = uni071D.medi;
},
{
glyphname = uni071D.init;
lastChange = "2022-12-16 12:05:34 +0000";
layers = (
{
anchors = (
{
name = bottom;
pos = (157,-98);
},
{
name = top;
pos = (175,341);
}
);
layerId = m01;
shapes = (
{
closed = 1;
nodes = (
(90,0,ls),
(130,0,o),
(168,12,o),
(195,34,cs),
(220,54,o),
(235,83,o),
(235,121,cs),
(235,164,o),
(219,210,o),
(184,210,cs),
(165,210,o),
(149,203,o),
(137,175,cs),
(126,150,o),
(105,93,o),
(98,79,c),
(80,77,o),
(69,76,o),
(0,76,cs),
(-21,76,o),
(-39,61,o),
(-39,38,cs),
(-39,14,o),
(-21,0,o),
(0,0,cs)
);
}
);
width = 309;
},
{
anchors = (
{
name = bottom;
pos = (119,-98);
},
{
name = top;
pos = (147,278);
}
);
layerId = "8E9A709A-C666-43E5-8831-9AE42D64DE83";
shapes = (
{
closed = 1;
nodes = (
(26,0,ls),
(83,0,o),
(114,6,o),
(128,16,cs),
(150,31,o),
(159,72,o),
(159,111,cs),
(159,128,o),
(158,146,o),
(145,146,cs),
(137,146,o),
(131,142,o),
(128,124,cs),
(119,73,o),
(113,47,o),
(108,35,c),
(101,30,o),
(72,25,o),
(0,25,cs),
(-19,25,o),
(-40,21,o),
(-40,13,cs),
(-40,4,o),
(-19,0,o),
(0,0,cs)
);
}
);
width = 229;
},
{
anchors = (
{
name = bottom;
pos = (176,-98);
},
{
name = top;
pos = (190,471);
}
);
layerId = "7FDEFC05-49C3-46A7-9C1D-65D39809C804";
shapes = (
{
closed = 1;
nodes = (
(11,0,ls),
(95,0,o),
(136,4,o),
(173,16,cs),
(256,43,o),
(296,119,o),
(296,198,cs),
(296,271,o),
(266,339,o),
(200,339,cs),
(154,339,o),
(129,311,o),
(113,268,cs),
(103,241,o),
(94,215,o),
(84,188,c),
(56,185,o),
(53,185,o),
(0,185,cs),
(-24,185,o),
(-40,141,o),
(-40,92,cs),
(-40,42,o),
(-24,0,o),
(0,0,cs)
);
}
);
width = 351;
}
);
note = uni071D.init;
},
{
glyphname = uni071E;
lastChange = "2022-12-16 14:42:46 +0000";
layers = (
{
layerId = m01;
shapes = (
{
closed = 1;
nodes = (
(338,709,o),
(358,693,o),
(387,693,cs),
(420,693,o),
(439,712,o),
(439,749,cs),
(439,786,o),
(420,806,o),
(387,806,cs),
(356,806,o),
(338,786,o),
(338,749,cs)
);
},
{
closed = 1;
nodes = (
(264,570,o),
(284,554,o),
(313,554,cs),
(346,554,o),
(365,573,o),
(365,610,cs),
(365,647,o),
(346,667,o),
(313,667,cs),
(282,667,o),
(264,647,o),
(264,610,cs)
);
},
{
closed = 1;
nodes = (
(411,570,o),
(431,554,o),
(460,554,cs),
(493,554,o),
(512,573,o),
(512,610,cs),
(512,647,o),
(493,667,o),
(460,667,cs),
(429,667,o),
(411,647,o),
(411,610,cs)
);
},
{
closed = 1;
nodes = (
(139,417,o),
(45,337,o),
(45,211,cs),
(45,87,o),
(132,0,o),
(260,0,cs),
(372,0,o),
(456,62,o),
(477,158,c),
(508,195,o),
(544,244,o),
(562,279,c),
(566,280,l),
(570,266,o),
(575,229,o),
(575,189,cs),
(575,121,o),
(564,43,o),
(556,4,c),
(620,-7,l),
(624,8,o),
(628,23,o),
(631,39,c),
(634,39,l),
(652,15,o),
(683,0,o),
(742,0,cs),
(772,0,o),
(802,0,o),
(832,0,cs),
(872,0,o),
(910,12,o),
(937,34,cs),
(962,54,o),
(977,83,o),
(977,121,cs),
(977,164,o),
(961,210,o),
(926,210,cs),
(907,210,o),
(891,203,o),
(879,175,cs),
(868,150,o),
(847,93,o),
(840,79,c),
(822,77,o),
(811,76,o),
(742,76,cs),
(711,76,o),
(645,81,o),
(641,113,c),
(643,141,o),
(644,169,o),
(644,201,cs),
(644,261,o),
(630,346,o),
(606,399,c),
(549,387,l),
(527,344,o),
(501,295,o),
(475,260,c),
(472,260,l),
(449,354,o),
(366,417,o),
(251,417,cs)
);
},
{
closed = 1;
nodes = (
(173,76,o),
(117,137,o),
(117,216,cs),
(117,294,o),
(178,344,o),
(251,344,cs),
(348,344,o),
(409,286,o),
(409,208,cs),
(409,119,o),
(343,76,o),
(270,76,cs)
);
},
{
closed = 1;
nodes = (
(339,-194,o),
(359,-210,o),
(388,-210,cs),
(421,-210,o),
(440,-191,o),
(440,-154,cs),
(440,-117,o),
(421,-97,o),
(388,-97,cs),
(357,-97,o),
(339,-117,o),
(339,-154,cs)
);
}
);
width = 1050;
},
{
layerId = "8E9A709A-C666-43E5-8831-9AE42D64DE83";
shapes = (
{
closed = 1;
nodes = (
(335,642,o),
(339,629,o),
(357,629,cs),
(379,629,o),
(381,642,o),
(381,657,cs),
(381,671,o),
(379,685,o),
(357,685,cs),
(339,685,o),
(335,671,o),
(335,657,cs)
);
},
{
closed = 1;
nodes = (
(267,503,o),
(271,490,o),
(289,490,cs),
(311,490,o),
(313,503,o),
(313,518,cs),
(313,532,o),
(311,546,o),
(289,546,cs),
(271,546,o),
(267,532,o),
(267,518,cs)
);
},
{
closed = 1;
nodes = (
(402,503,o),
(406,490,o),
(424,490,cs),
(446,490,o),
(448,503,o),
(448,518,cs),
(448,532,o),
(446,546,o),
(424,546,cs),
(406,546,o),
(402,532,o),
(402,518,cs)
);
},
{
closed = 1;
nodes = (
(154,377,o),
(69,294,o),
(69,185,cs),
(69,80,o),
(148,-4,o),
(270,-4,cs),
(369,-4,o),
(443,56,o),
(462,145,c),
(515,203,o),
(550,258,o),
(582,320,c),
(584,320,l),
(591,298,o),
(603,240,o),
(603,177,cs),
(603,117,o),
(601,64,o),
(588,0,c),
(612,-4,l),
(616,11,o),
(619,26,o),
(621,42,c),
(623,42,l),
(643,5,o),
(703,0,o),
(745,0,cs),
(754,0,o),
(762,0,o),
(771,0,cs),
(828,0,o),
(859,6,o),
(873,16,cs),
(895,31,o),
(904,72,o),
(904,111,cs),
(904,128,o),
(903,146,o),
(890,146,cs),
(882,146,o),
(876,142,o),
(873,124,cs),
(864,73,o),
(858,47,o),
(853,35,c),
(846,30,o),
(817,25,o),
(745,25,cs),
(690,25,o),
(633,35,o),
(626,87,c),
(628,116,o),
(629,146,o),
(629,179,cs),
(629,240,o),
(616,309,o),
(599,360,c),
(573,355,l),
(556,318,o),
(519,246,o),
(468,185,c),
(466,185,l),
(466,295,o),
(383,377,o),
(261,377,cs)
);
},
{
closed = 1;
nodes = (
(159,21,o),
(96,96,o),
(96,187,cs),
(96,280,o),
(169,352,o),
(260,352,cs),
(370,352,o),
(440,283,o),
(440,186,cs),
(440,77,o),
(357,21,o),
(273,21,cs)
);
},
{
closed = 1;
nodes = (
(336,-140,o),
(340,-153,o),
(358,-153,cs),
(380,-153,o),
(382,-140,o),
(382,-125,cs),
(382,-111,o),
(380,-97,o),
(358,-97,cs),
(340,-97,o),
(336,-111,o),
(336,-125,cs)
);
}
);
width = 974;
},
{
layerId = "7FDEFC05-49C3-46A7-9C1D-65D39809C804";
shapes = (
{
closed = 1;
nodes = (
(355,750,o),
(388,733,o),
(423,733,cs),
(457,733,o),
(492,750,o),
(492,794,cs),
(492,839,o),
(457,856,o),
(423,856,cs),
(388,856,o),
(355,839,o),
(355,794,cs)
);
},
{
closed = 1;
nodes = (
(238,593,o),
(277,572,o),
(320,572,cs),
(362,572,o),
(403,593,o),
(403,648,cs),
(403,705,o),
(362,725,o),
(320,725,cs),
(277,725,o),
(238,705,o),
(238,648,cs)
);
},
{
closed = 1;
nodes = (
(443,593,o),
(482,572,o),
(525,572,cs),
(567,572,o),
(608,593,o),
(608,648,cs),
(608,705,o),
(567,725,o),
(525,725,cs),
(482,725,o),
(443,705,o),
(443,648,cs)
);
},
{
closed = 1;
nodes = (
(155,500,o),
(30,419,o),
(30,254,cs),
(30,84,o),
(155,-5,o),
(287,-5,cs),
(418,-5,o),
(497,61,o),
(537,157,c),
(573,207,o),
(609,257,o),
(622,294,c),
(626,293,l),
(626,261,o),
(623,197,o),
(619,148,cs),
(615,98,o),
(609,47,o),
(601,11,c),
(745,-12,l),
(750,10,o),
(755,33,o),
(759,57,c),
(763,57,l),
(779,23,o),
(818,0,o),
(881,0,cs),
(902,0,o),
(921,0,o),
(937,1,cs),
(986,3,o),
(1015,7,o),
(1043,16,cs),
(1126,43,o),
(1166,119,o),
(1166,198,cs),
(1166,271,o),
(1136,339,o),
(1070,339,cs),
(1024,339,o),
(999,311,o),
(983,268,cs),
(973,241,o),
(964,215,o),
(954,188,c),
(926,185,o),
(923,185,o),
(870,185,cs),
(825,185,o),
(787,191,o),
(774,220,c),
(776,243,o),
(776,246,o),
(776,265,cs),
(776,323,o),
(767,422,o),
(738,491,c),
(602,473,l),
(597,456,o),
(560,391,o),
(532,350,c),
(528,350,l),
(483,456,o),
(383,500,o),
(274,500,cs)
);
},
{
closed = 1;
nodes = (
(230,175,o),
(188,214,o),
(188,260,cs),
(188,306,o),
(228,330,o),
(282,330,cs),
(360,330,o),
(405,289,o),
(405,251,cs),
(405,204,o),
(359,175,o),
(302,175,cs)
);
},
{
closed = 1;
nodes = (
(311,-235,o),
(356,-259,o),
(404,-259,cs),
(451,-259,o),
(498,-235,o),
(498,-175,cs),
(498,-113,o),
(451,-90,o),
(404,-90,cs),
(356,-90,o),
(311,-113,o),
(311,-175,cs)
);
}
);
width = 1221;
}
);
note = uni071E;
unicode = 1822;
},
{
glyphname = uni071F;
lastChange = "2022-12-16 14:43:08 +0000";
layers = (
{
anchors = (
{
name = bottom;
pos = (366,-244);
},
{
name = bottomright;
pos = (468,-65);
},
{
name = top;
pos = (263,378);
},
{
name = topright;
pos = (472,279);
}
);
layerId = m01;
shapes = (
{
closed = 1;
nodes = (
(61,194,l),
(60,189,o),
(59,177,o),
(59,173,cs),
(59,67,o),
(141,14,o),
(264,2,cs),
(267,2,o),
(271,1,o),
(274,1,c),
(82,-369,l),
(143,-399,l),
(354,0,l),
(413,8,o),
(466,30,o),
(466,114,cs),
(466,162,o),
(450,203,o),
(411,203,cs),
(375,203,o),
(356,169,o),
(318,96,cs),
(306,73,l),
(304,73,o),
(303,73,o),
(301,73,cs),
(203,73,o),
(130,110,o),
(126,198,c)
);
}
);
width = 540;
},
{
anchors = (
{
name = bottom;
pos = (317,-244);
},
{
name = bottomright;
pos = (419,-65);
},
{
name = top;
pos = (231,329);
},
{
name = topright;
pos = (420,275);
}
);
layerId = "8E9A709A-C666-43E5-8831-9AE42D64DE83";
shapes = (
{
closed = 1;
nodes = (
(62,147,l),
(62,144,o),
(62,140,o),
(62,137,cs),
(62,64,o),
(118,0,o),
(243,0,cs),
(252,0,o),
(266,1,o),
(280,4,c),
(90,-360,l),
(111,-371,l),
(310,10,l),
(345,28,o),
(381,91,o),
(381,126,cs),
(381,137,o),
(376,144,o),
(367,144,cs),
(353,144,o),
(345,132,o),
(306,56,cs),
(292,29,l),
(284,26,o),
(258,25,o),
(251,25,cs),
(175,25,o),
(86,45,o),
(86,150,c)
);
}
);
width = 451;
},
{
anchors = (
{
name = bottom;
pos = (495,-280);
},
{
name = bottomright;
pos = (570,-76);
},
{
name = top;
pos = (320,510);
},
{
name = topright;
pos = (598,411);
}
);
layerId = "7FDEFC05-49C3-46A7-9C1D-65D39809C804";
shapes = (
{
closed = 1;
nodes = (
(47,308,l),
(45,293,o),
(45,280,o),
(45,275,cs),
(45,126,o),
(122,48,o),
(233,14,cs),
(249,9,o),
(266,5,o),
(283,2,c),
(102,-349,l),
(245,-410,l),
(454,0,l),
(565,12,o),
(620,78,o),
(620,177,cs),
(620,251,o),
(578,335,o),
(505,335,cs),
(447,335,o),
(421,306,o),
(363,198,cs),
(356,185,l),
(353,185,o),
(350,185,o),
(347,185,cs),
(252,185,o),
(193,246,o),
(185,311,c)
);
}
);
width = 677;
}
);
note = uni071F;
unicode = 1823;
},
{
glyphname = uni071F.fina;
lastChange = "2022-12-16 12:05:34 +0000";
layers = (
{
anchors = (
{
name = bottom;
pos = (367,-243);
},
{
name = bottomright;
pos = (469,-65);
},
{
name = top;
pos = (262,377);
},
{
name = topright;
pos = (472,279);
}
);
layerId = m01;
shapes = (
{
closed = 1;
nodes = (
(61,194,l),
(60,189,o),
(59,177,o),
(59,173,cs),
(59,66,o),
(150,8,o),
(273,-1,c),
(82,-369,l),
(143,-399,l),
(353,0,l),
(549,0,l),
(549,76,l),
(460,76,l),
(463,85,o),
(466,104,o),
(466,118,cs),
(466,161,o),
(450,203,o),
(411,203,cs),
(375,203,o),
(356,169,o),
(318,96,cs),
(306,73,l),
(300,73,ls),
(197,73,o),
(130,110,o),
(126,198,c)
);
}
);
width = 549;
},
{
anchors = (
{
name = bottom;
pos = (317,-243);
},
{
name = bottomright;
pos = (419,-65);
},
{
name = top;
pos = (262,377);
},
{
name = topright;
pos = (420,279);
}
);
layerId = "8E9A709A-C666-43E5-8831-9AE42D64DE83";
shapes = (
{
closed = 1;
nodes = (
(63,147,l),
(62,140,o),
(62,139,o),
(62,137,cs),
(62,59,o),
(124,0,o),
(278,0,c),
(90,-360,l),
(111,-371,l),
(305,0,l),
(472,0,l),
(472,25,l),
(330,25,l),
(347,39,o),
(381,91,o),
(381,126,cs),
(381,137,o),
(376,144,o),
(367,144,cs),
(353,144,o),
(346,133,o),
(306,56,cs),
(290,25,l),
(278,25,ls),
(187,25,o),
(86,46,o),
(86,148,c)
);
}
);
width = 472;
},
{
anchors = (
{
name = bottom;
pos = (495,-281);
},
{
name = bottomright;
pos = (570,-76);
},
{
name = top;
pos = (321,510);
},
{
name = topright;
pos = (600,411);
}
);
layerId = "7FDEFC05-49C3-46A7-9C1D-65D39809C804";
shapes = (
{
closed = 1;
nodes = (
(47,308,l),
(45,293,o),
(45,280,o),
(45,275,cs),
(45,104,o),
(173,25,o),
(283,2,c),
(102,-349,l),
(245,-410,l),
(454,0,l),
(684,0,l),
(684,185,l),
(620,185,l),
(620,194,o),
(619,203,o),
(617,212,cs),
(606,275,o),
(566,335,o),
(505,335,cs),
(447,335,o),
(421,306,o),
(363,198,cs),
(356,185,l),
(347,185,ls),
(252,185,o),
(193,246,o),
(185,311,c)
);
}
);
width = 684;
}
);
note = uni071F.fina;
},
{
glyphname = uni071F.medi;
lastChange = "2022-12-16 12:05:34 +0000";
layers = (
{
anchors = (
{
name = bottom;
pos = (241,-98);
},
{
name = bottomright;
pos = (486,-98);
},
{
name = top;
pos = (257,537);
},
{
name = topright;
pos = (504,447);
}
);
layerId = m01;
shapes = (
{
closed = 1;
nodes = (
(562,0,l),
(562,76,l),
(543,76,ls),
(523,76,o),
(499,76,o),
(475,74,c),
(474,78,l),
(493,99,o),
(499,134,o),
(499,169,cs),
(499,340,o),
(388,436,o),
(271,436,cs),
(166,436,o),
(78,358,o),
(56,251,c),
(120,238,l),
(146,319,o),
(208,360,o),
(272,360,cs),
(360,360,o),
(425,279,o),
(425,168,cs),
(425,108,o),
(401,76,o),
(327,76,cs),
(0,76,ls),
(-21,76,o),
(-39,61,o),
(-39,38,cs),
(-39,14,o),
(-21,0,o),
(0,0,cs)
);
}
);
width = 562;
},
{
anchors = (
{
name = bottom;
pos = (215,-98);
},
{
name = bottomright;
pos = (459,-100);
},
{
name = top;
pos = (248,508);
},
{
name = topright;
pos = (493,417);
}
);
layerId = "8E9A709A-C666-43E5-8831-9AE42D64DE83";
shapes = (
{
closed = 1;
nodes = (
(519,0,l),
(519,25,l),
(478,25,ls),
(458,25,o),
(429,24,o),
(409,21,c),
(409,23,l),
(461,44,o),
(473,112,o),
(473,157,cs),
(473,322,o),
(369,404,o),
(261,404,cs),
(175,404,o),
(104,351,o),
(69,255,c),
(92,249,l),
(129,338,o),
(192,379,o),
(261,379,cs),
(366,379,o),
(446,296,o),
(446,156,cs),
(446,71,o),
(407,25,o),
(324,25,cs),
(0,25,ls),
(-19,25,o),
(-40,21,o),
(-40,13,cs),
(-40,4,o),
(-19,0,o),
(0,0,cs)
);
}
);
width = 519;
},
{
anchors = (
{
name = bottom;
pos = (249,-98);
},
{
name = bottomright;
pos = (493,-100);
},
{
name = top;
pos = (275,613);
},
{
name = topright;
pos = (544,522);
}
);
layerId = "7FDEFC05-49C3-46A7-9C1D-65D39809C804";
shapes = (
{
closed = 1;
nodes = (
(610,0,l),
(610,185,l),
(583,185,ls),
(578,185,o),
(555,185,o),
(546,183,c),
(546,185,ls),
(547,190,o),
(548,218,o),
(548,221,cs),
(548,421,o),
(427,511,o),
(291,511,cs),
(183,511,o),
(68,444,o),
(41,308,c),
(180,278,l),
(201,328,o),
(242,341,o),
(286,341,cs),
(346,341,o),
(393,297,o),
(393,221,cs),
(393,188,o),
(377,185,o),
(353,185,cs),
(0,185,ls),
(-24,185,o),
(-40,141,o),
(-40,92,cs),
(-40,42,o),
(-24,0,o),
(0,0,cs)
);
}
);
width = 610;
}
);
note = uni071F.medi;
},
{
glyphname = uni071F.init;
lastChange = "2022-12-16 12:05:34 +0000";
layers = (
{
anchors = (
{
name = bottom;
pos = (241,-98);
},
{
name = bottomright;
pos = (486,-75);
},
{
name = top;
pos = (258,537);
},
{
name = topright;
pos = (503,447);
}
);
layerId = m01;
shapes = (
{
closed = 1;
nodes = (
(318,0,ls),
(455,0,o),
(499,67,o),
(499,159,cs),
(499,340,o),
(388,436,o),
(271,436,cs),
(166,436,o),
(78,358,o),
(56,251,c),
(120,238,l),
(146,319,o),
(208,360,o),
(272,360,cs),
(360,360,o),
(425,279,o),
(425,168,cs),
(425,108,o),
(401,76,o),
(327,76,cs),
(0,76,ls),
(-21,76,o),
(-39,61,o),
(-39,38,cs),
(-39,14,o),
(-21,0,o),
(0,0,cs)
);
}
);
width = 567;
},
{
anchors = (
{
name = bottom;
pos = (215,-98);
},
{
name = bottomright;
pos = (459,-75);
},
{
name = top;
pos = (249,507);
},
{
name = topright;
pos = (494,418);
}
);
layerId = "8E9A709A-C666-43E5-8831-9AE42D64DE83";
shapes = (
{
closed = 1;
nodes = (
(313,0,ls),
(435,0,o),
(473,62,o),
(473,157,cs),
(473,322,o),
(369,404,o),
(261,404,cs),
(175,404,o),
(104,351,o),
(69,255,c),
(92,249,l),
(129,338,o),
(192,379,o),
(261,379,cs),
(366,379,o),
(446,296,o),
(446,156,cs),
(446,66,o),
(406,25,o),
(323,25,cs),
(0,25,ls),
(-19,25,o),
(-40,21,o),
(-40,13,cs),
(-40,4,o),
(-19,0,o),
(0,0,cs)
);
}
);
width = 551;
},
{
anchors = (
{
name = bottom;
pos = (249,-98);
},
{
name = bottomright;
pos = (492,-75);
},
{
name = top;
pos = (275,613);
},
{
name = topright;
pos = (544,522);
}
);
layerId = "7FDEFC05-49C3-46A7-9C1D-65D39809C804";
shapes = (
{
closed = 1;
nodes = (
(344,0,ls),
(477,0,o),
(549,82,o),
(549,209,cs),
(549,414,o),
(428,511,o),
(291,511,cs),
(183,511,o),
(68,444,o),
(41,308,c),
(180,278,l),
(201,328,o),
(242,341,o),
(286,341,cs),
(346,341,o),
(393,297,o),
(393,221,cs),
(393,188,o),
(377,185,o),
(353,185,cs),
(0,185,ls),
(-24,185,o),
(-40,141,o),
(-40,92,cs),
(-40,42,o),
(-24,0,o),
(0,0,cs)
);
}
);
width = 609;
}
);
note = uni071F.init;
},
{
glyphname = uni0720;
lastChange = "2022-12-16 12:05:34 +0000";
layers = (
{
anchors = (
{
name = bottom;
pos = (423,-98);
},
{
name = top;
pos = (126,752);
}
);
layerId = m01;
shapes = (
{
closed = 1;
nodes = (
(511,-17,o),
(548,40,o),
(557,82,c),
(560,82,l),
(641,-12,l),
(700,38,l),
(125,693,l),
(68,642,l),
(491,160,ls),
(499,150,o),
(505,138,o),
(505,123,cs),
(505,90,o),
(477,59,o),
(431,59,cs),
(390,59,o),
(361,88,o),
(330,124,cs),
(-136,654,l),
(-193,603,l),
(264,82,ls),
(328,9,o),
(376,-17,o),
(427,-17,cs)
);
}
);
width = 749;
},
{
anchors = (
{
name = bottom;
pos = (471,-98);
},
{
name = top;
pos = (122,719);
}
);
layerId = "8E9A709A-C666-43E5-8831-9AE42D64DE83";
shapes = (
{
closed = 1;
nodes = (
(537,-15,o),
(588,22,o),
(588,90,c),
(590,90,l),
(666,0,l),
(689,17,l),
(121,660,l),
(101,643,l),
(537,151,ls),
(559,126,o),
(564,107,o),
(564,86,cs),
(564,43,o),
(528,10,o),
(457,10,cs),
(402,10,o),
(355,42,o),
(310,92,cs),
(-157,620,l),
(-177,603,l),
(283,83,ls),
(354,2,o),
(404,-15,o),
(456,-15,cs)
);
}
);
width = 748;
},
{
anchors = (
{
name = bottom;
pos = (423,-98);
},
{
name = top;
pos = (208,786);
}
);
layerId = "7FDEFC05-49C3-46A7-9C1D-65D39809C804";
shapes = (
{
closed = 1;
nodes = (
(523,-21,o),
(563,42,o),
(573,78,c),
(577,78,l),
(659,-16,l),
(786,82,l),
(207,744,l),
(86,642,l),
(451,224,ls),
(470,203,o),
(472,194,o),
(472,184,cs),
(472,166,o),
(455,151,o),
(432,151,cs),
(410,151,o),
(392,162,o),
(370,186,cs),
(-104,706,l),
(-226,606,l),
(254,76,ls),
(321,2,o),
(368,-21,o),
(432,-21,cs)
);
}
);
width = 820;
}
);
note = uni0720;
unicode = 1824;
},
{
glyphname = uni0720.fina;
lastChange = "2022-12-16 12:05:34 +0000";
layers = (
{
anchors = (
{
name = bottom;
pos = (423,-98);
},
{
name = top;
pos = (126,752);
}
);
layerId = m01;
shapes = (
{
closed = 1;
nodes = (
(511,-17,o),
(548,40,o),
(557,82,c),
(560,82,l),
(603,29,o),
(643,0,o),
(696,0,c),
(696,76,l),
(675,76,o),
(656,87,o),
(637,109,cs),
(125,693,l),
(68,642,l),
(492,159,ls),
(500,150,o),
(505,137,o),
(505,123,cs),
(505,90,o),
(477,59,o),
(431,59,cs),
(390,59,o),
(361,88,o),
(330,124,cs),
(-136,654,l),
(-193,603,l),
(264,82,ls),
(328,9,o),
(376,-17,o),
(427,-17,cs)
);
}
);
width = 696;
},
{
anchors = (
{
name = bottom;
pos = (471,-98);
},
{
name = top;
pos = (121,719);
}
);
layerId = "8E9A709A-C666-43E5-8831-9AE42D64DE83";
shapes = (
{
closed = 1;
nodes = (
(537,-15,o),
(588,22,o),
(588,91,c),
(591,91,l),
(658,12,o),
(687,0,o),
(735,0,c),
(735,25,l),
(693,25,o),
(672,37,o),
(625,90,cs),
(121,660,l),
(101,643,l),
(537,151,ls),
(559,126,o),
(564,107,o),
(564,86,cs),
(564,43,o),
(528,10,o),
(457,10,cs),
(402,10,o),
(355,42,o),
(310,92,cs),
(-157,620,l),
(-177,603,l),
(283,83,ls),
(354,2,o),
(404,-15,o),
(456,-15,cs)
);
}
);
width = 735;
},
{
anchors = (
{
name = bottom;
pos = (424,-102);
},
{
name = top;
pos = (208,785);
}
);
layerId = "7FDEFC05-49C3-46A7-9C1D-65D39809C804";
shapes = (
{
closed = 1;
nodes = (
(522,-21,o),
(565,42,o),
(574,83,c),
(578,83,l),
(636,23,o),
(703,0,o),
(751,0,c),
(751,185,l),
(711,185,o),
(683,200,o),
(657,230,cs),
(207,744,l),
(86,642,l),
(450,224,ls),
(469,203,o),
(471,194,o),
(471,184,cs),
(471,166,o),
(454,151,o),
(431,151,cs),
(409,151,o),
(391,162,o),
(369,186,cs),
(-104,706,l),
(-226,606,l),
(253,76,ls),
(320,2,o),
(367,-21,o),
(431,-21,cs)
);
}
);
width = 751;
}
);
note = uni0720.fina;
},
{
glyphname = uni0720.medi;
lastChange = "2022-12-16 12:05:34 +0000";
layers = (
{
anchors = (
{
name = bottom;
pos = (192,-98);
},
{
name = top;
pos = (-58,752);
}
);
layerId = m01;
shapes = (
{
closed = 1;
nodes = (
(0,76,ls),
(-21,76,o),
(-39,61,o),
(-39,38,cs),
(-39,14,o),
(-21,0,o),
(0,0,cs),
(295,0,ls),
(366,0,o),
(403,11,o),
(422,35,c),
(447,14,o),
(475,0,o),
(514,0,c),
(514,76,l),
(493,76,o),
(474,87,o),
(455,109,cs),
(-57,693,l),
(-114,642,l),
(373,87,l),
(353,77,o),
(330,76,o),
(306,76,cs)
);
}
);
width = 514;
},
{
anchors = (
{
name = bottom;
pos = (192,-98);
},
{
name = top;
pos = (-115,718);
}
);
layerId = "8E9A709A-C666-43E5-8831-9AE42D64DE83";
shapes = (
{
closed = 1;
nodes = (
(0,25,ls),
(-19,25,o),
(-40,21,o),
(-40,13,cs),
(-40,4,o),
(-19,0,o),
(0,0,cs),
(266,0,ls),
(331,0,o),
(369,16,o),
(393,48,c),
(430,13,o),
(450,0,o),
(498,0,c),
(498,25,l),
(456,25,o),
(435,37,o),
(388,90,cs),
(-115,660,l),
(-135,643,l),
(376,65,l),
(347,26,o),
(301,25,o),
(270,25,cs)
);
}
);
width = 498;
},
{
anchors = (
{
name = bottom;
pos = (203,-98);
},
{
name = top;
pos = (47,786);
}
);
layerId = "7FDEFC05-49C3-46A7-9C1D-65D39809C804";
shapes = (
{
closed = 1;
nodes = (
(0,185,ls),
(-24,185,o),
(-40,141,o),
(-40,92,cs),
(-40,42,o),
(-24,0,o),
(0,0,cs),
(230,0,ls),
(321,0,o),
(384,18,o),
(433,68,c),
(481,20,o),
(547,0,o),
(591,0,c),
(591,185,l),
(560,185,o),
(525,197,o),
(490,237,cs),
(47,744,l),
(-78,642,l),
(311,200,l),
(304,192,o),
(260,185,o),
(216,185,cs)
);
}
);
width = 591;
}
);
note = uni0720.medi;
},
{
glyphname = uni0720.init;
lastChange = "2022-12-16 12:05:34 +0000";
layers = (
{
anchors = (
{
name = bottom;
pos = (192,-98);
},
{
name = top;
pos = (-57,752);
}
);
layerId = m01;
shapes = (
{
closed = 1;
nodes = (
(518,38,l),
(-57,693,l),
(-114,642,l),
(373,87,l),
(355,77,o),
(331,76,o),
(306,76,cs),
(0,76,ls),
(-21,76,o),
(-39,61,o),
(-39,38,cs),
(-39,14,o),
(-21,0,o),
(0,0,cs),
(295,0,ls),
(363,0,o),
(400,10,o),
(420,33,c),
(459,-12,l)
);
}
);
width = 566;
},
{
anchors = (
{
name = bottom;
pos = (192,-98);
},
{
name = top;
pos = (-115,719);
}
);
layerId = "8E9A709A-C666-43E5-8831-9AE42D64DE83";
shapes = (
{
closed = 1;
nodes = (
(454,15,l),
(-114,660,l),
(-134,643,l),
(376,65,l),
(347,26,o),
(301,25,o),
(270,25,cs),
(0,25,ls),
(-19,25,o),
(-40,21,o),
(-40,13,cs),
(-40,4,o),
(-19,0,o),
(0,0,cs),
(266,0,ls),
(331,0,o),
(368,15,o),
(392,47,c),
(435,-2,l)
);
}
);
width = 513;
},
{
anchors = (
{
name = bottom;
pos = (192,-98);
},
{
name = top;
pos = (47,786);
}
);
layerId = "7FDEFC05-49C3-46A7-9C1D-65D39809C804";
shapes = (
{
closed = 1;
nodes = (
(619,91,l),
(47,744,l),
(-78,642,l),
(311,200,l),
(304,192,o),
(260,185,o),
(216,185,cs),
(0,185,ls),
(-24,185,o),
(-40,141,o),
(-40,92,cs),
(-40,42,o),
(-24,0,o),
(0,0,cs),
(212,0,ls),
(303,0,o),
(374,18,o),
(423,68,c),
(494,-7,l)
);
}
);
width = 655;
}
);
note = uni0720.init;
},
{
glyphname = uni0721;
lastChange = "2022-12-16 12:05:34 +0000";
layers = (
{
anchors = (
{
name = bottom;
pos = (421,-98);
},
{
name = top;
pos = (352,520);
}
);
layerId = m01;
shapes = (
{
closed = 1;
nodes = (
(287,422,o),
(212,375,o),
(189,301,c),
(184,301,l),
(163,355,o),
(139,406,o),
(109,448,c),
(49,406,l),
(127,264,o),
(172,158,o),
(172,-22,cs),
(172,-176,o),
(130,-310,o),
(101,-381,c),
(171,-399,l),
(221,-288,o),
(243,-171,o),
(243,-55,cs),
(243,-7,o),
(237,35,o),
(229,69,c),
(233,70,l),
(266,21,o),
(312,-4,o),
(383,-4,cs),
(497,-4,o),
(595,72,o),
(595,209,cs),
(595,330,o),
(517,422,o),
(375,422,cs)
);
},
{
closed = 1;
nodes = (
(277,69,o),
(222,165,o),
(222,224,cs),
(222,296,o),
(287,349,o),
(375,349,cs),
(472,349,o),
(521,294,o),
(521,210,cs),
(521,117,o),
(459,69,o),
(383,69,cs)
);
}
);
width = 653;
},
{
anchors = (
{
name = bottom;
pos = (387,-98);
},
{
name = top;
pos = (331,520);
}
);
layerId = "8E9A709A-C666-43E5-8831-9AE42D64DE83";
shapes = (
{
closed = 1;
nodes = (
(272,382,o),
(174,346,o),
(154,233,c),
(152,233,l),
(135,291,o),
(101,360,o),
(81,394,c),
(59,382,l),
(127,257,o),
(172,133,o),
(172,-55,cs),
(172,-179,o),
(133,-308,o),
(106,-375,c),
(129,-382,l),
(171,-278,o),
(198,-165,o),
(198,-55,cs),
(198,-9,o),
(196,30,o),
(186,83,c),
(188,83,l),
(229,19,o),
(290,-4,o),
(350,-4,cs),
(450,-4,o),
(545,72,o),
(545,193,cs),
(545,302,o),
(468,382,o),
(343,382,cs)
);
},
{
closed = 1;
nodes = (
(228,21,o),
(174,132,o),
(174,200,cs),
(174,288,o),
(243,357,o),
(343,357,cs),
(455,357,o),
(519,290,o),
(519,193,cs),
(519,83,o),
(438,21,o),
(350,21,cs)
);
}
);
width = 610;
},
{
anchors = (
{
name = bottom;
pos = (529,-98);
},
{
name = top;
pos = (411,588);
}
);
layerId = "7FDEFC05-49C3-46A7-9C1D-65D39809C804";
shapes = (
{
closed = 1;
nodes = (
(366,490,o),
(288,455,o),
(254,390,c),
(250,390,l),
(231,434,o),
(210,467,o),
(173,518,c),
(30,433,l),
(119,295,o),
(172,170,o),
(172,4,cs),
(172,-163,o),
(135,-287,o),
(105,-369,c),
(263,-410,l),
(294,-337,o),
(328,-191,o),
(328,-56,cs),
(328,-28,o),
(328,4,o),
(324,37,c),
(328,39,l),
(350,17,o),
(391,-4,o),
(452,-4,cs),
(564,-4,o),
(680,72,o),
(680,237,cs),
(680,379,o),
(593,490,o),
(426,490,cs)
);
},
{
closed = 1;
nodes = (
(349,167,o),
(303,214,o),
(303,254,cs),
(303,298,o),
(343,331,o),
(413,331,cs),
(481,331,o),
(525,298,o),
(525,247,cs),
(525,193,o),
(488,167,o),
(430,167,cs)
);
}
);
width = 735;
}
);
note = uni0721;
unicode = 1825;
},
{
glyphname = uni0721.fina;
lastChange = "2022-12-16 12:05:34 +0000";
layers = (
{
anchors = (
{
name = bottom;
pos = (423,-98);
},
{
name = top;
pos = (352,519);
}
);
layerId = m01;
shapes = (
{
closed = 1;
nodes = (
(668,76,l),
(634,76,ls),
(612,76,o),
(561,74,o),
(542,72,c),
(542,77,l),
(576,108,o),
(595,152,o),
(595,209,cs),
(595,330,o),
(517,422,o),
(375,422,cs),
(292,422,o),
(215,380,o),
(189,301,c),
(184,301,l),
(155,375,o),
(121,433,o),
(109,448,c),
(49,406,l),
(127,264,o),
(172,158,o),
(172,-22,cs),
(172,-176,o),
(130,-310,o),
(101,-381,c),
(171,-399,l),
(221,-288,o),
(243,-171,o),
(243,-55,cs),
(243,-7,o),
(237,35,o),
(229,69,c),
(234,71,l),
(271,24,o),
(328,0,o),
(422,0,cs),
(668,0,l)
);
},
{
closed = 1;
nodes = (
(277,74,o),
(222,165,o),
(222,224,cs),
(222,296,o),
(287,349,o),
(375,349,cs),
(472,349,o),
(521,294,o),
(521,210,cs),
(521,116,o),
(459,74,o),
(383,74,cs)
);
}
);
width = 668;
},
{
anchors = (
{
name = bottom;
pos = (388,-98);
},
{
name = top;
pos = (331,518);
}
);
layerId = "8E9A709A-C666-43E5-8831-9AE42D64DE83";
shapes = (
{
closed = 1;
nodes = (
(618,25,l),
(511,25,ls),
(489,25,o),
(462,22,o),
(445,21,c),
(445,23,l),
(503,53,o),
(545,112,o),
(545,193,cs),
(545,302,o),
(468,382,o),
(343,382,cs),
(272,382,o),
(174,346,o),
(154,233,c),
(152,233,l),
(135,291,o),
(101,360,o),
(81,394,c),
(59,382,l),
(127,257,o),
(172,133,o),
(172,-55,cs),
(172,-179,o),
(133,-308,o),
(106,-375,c),
(129,-382,l),
(171,-278,o),
(198,-165,o),
(198,-55,cs),
(198,-9,o),
(197,33,o),
(187,86,c),
(189,86,l),
(230,20,o),
(302,0,o),
(367,0,cs),
(618,0,l)
);
},
{
closed = 1;
nodes = (
(236,25,o),
(174,127,o),
(174,200,cs),
(174,288,o),
(243,357,o),
(343,357,cs),
(455,357,o),
(519,290,o),
(519,193,cs),
(519,83,o),
(439,25,o),
(355,25,cs)
);
}
);
width = 618;
},
{
anchors = (
{
name = bottom;
pos = (531,-98);
},
{
name = top;
pos = (412,587);
}
);
layerId = "7FDEFC05-49C3-46A7-9C1D-65D39809C804";
shapes = (
{
closed = 1;
nodes = (
(735,185,l),
(721,185,ls),
(702,185,o),
(684,185,o),
(657,183,c),
(657,185,l),
(670,204,o),
(679,242,o),
(679,272,cs),
(679,378,o),
(598,490,o),
(431,490,cs),
(364,490,o),
(287,455,o),
(253,390,c),
(249,390,l),
(230,434,o),
(209,467,o),
(172,518,c),
(29,433,l),
(118,295,o),
(171,170,o),
(171,4,cs),
(171,-163,o),
(134,-287,o),
(104,-369,c),
(262,-410,l),
(293,-337,o),
(327,-191,o),
(327,-56,cs),
(327,-28,o),
(327,14,o),
(323,47,c),
(327,49,l),
(378,18,o),
(444,0,o),
(569,0,cs),
(735,0,l)
);
},
{
closed = 1;
nodes = (
(348,167,o),
(302,214,o),
(302,254,cs),
(302,298,o),
(342,331,o),
(412,331,cs),
(480,331,o),
(524,296,o),
(524,251,cs),
(524,197,o),
(487,167,o),
(429,167,cs)
);
}
);
width = 735;
}
);
note = uni0721.fina;
},
{
glyphname = uni0721.medi;
lastChange = "2022-12-16 12:05:34 +0000";
layers = (
{
anchors = (
{
name = bottom;
pos = (377,-98);
},
{
name = top;
pos = (385,507);
}
);
layerId = m01;
shapes = (
{
closed = 1;
nodes = (
(64,455,l),
(6,404,l),
(278,109,l),
(274,77,o),
(218,76,o),
(195,76,cs),
(0,76,ls),
(-21,76,o),
(-39,61,o),
(-39,38,cs),
(-39,14,o),
(-21,0,o),
(0,0,cs),
(185,0,ls),
(274,0,o),
(314,22,o),
(333,61,c),
(335,61,l),
(380,18,o),
(439,0,o),
(517,0,cs),
(763,0,l),
(763,76,l),
(733,76,ls),
(711,76,o),
(670,75,o),
(646,74,c),
(646,77,l),
(671,104,o),
(691,145,o),
(691,195,cs),
(691,310,o),
(602,405,o),
(466,405,cs),
(385,405,o),
(293,366,o),
(272,253,cs),
(270,243,o),
(269,232,o),
(268,220,c),
(265,220,l),
(255,235,o),
(241,254,o),
(219,279,cs)
);
},
{
closed = 1;
nodes = (
(404,74,o),
(333,147,o),
(333,206,cs),
(333,292,o),
(396,332,o),
(466,332,cs),
(558,332,o),
(618,272,o),
(618,192,cs),
(618,107,o),
(559,74,o),
(493,74,cs)
);
}
);
width = 763;
},
{
anchors = (
{
name = bottom;
pos = (377,-98);
},
{
name = top;
pos = (388,508);
}
);
layerId = "8E9A709A-C666-43E5-8831-9AE42D64DE83";
shapes = (
{
closed = 1;
nodes = (
(62,397,l),
(43,382,l),
(310,95,l),
(303,26,o),
(230,25,o),
(200,25,cs),
(0,25,ls),
(-19,25,o),
(-40,21,o),
(-40,13,cs),
(-40,4,o),
(-19,0,o),
(0,0,cs),
(190,0,ls),
(268,0,o),
(318,18,o),
(329,76,c),
(331,76,l),
(375,32,o),
(426,0,o),
(512,0,cs),
(741,0,l),
(741,25,l),
(662,25,ls),
(642,25,o),
(608,23,o),
(580,21,c),
(580,23,l),
(652,54,o),
(669,138,o),
(669,177,cs),
(669,278,o),
(591,361,o),
(467,361,cs),
(402,361,o),
(287,324,o),
(287,189,cs),
(287,176,o),
(289,161,o),
(297,142,c),
(295,142,l),
(271,172,o),
(257,188,o),
(206,242,cs)
);
},
{
closed = 1;
nodes = (
(405,25,o),
(312,104,o),
(312,186,cs),
(312,291,o),
(386,336,o),
(467,336,cs),
(575,336,o),
(643,269,o),
(643,176,cs),
(643,75,o),
(578,25,o),
(498,25,cs)
);
}
);
width = 741;
},
{
anchors = (
{
name = bottom;
pos = (420,-98);
},
{
name = top;
pos = (440,603);
}
);
layerId = "7FDEFC05-49C3-46A7-9C1D-65D39809C804";
shapes = (
{
closed = 1;
nodes = (
(132,555,l),
(11,453,l),
(240,195,l),
(236,186,o),
(188,185,o),
(160,185,cs),
(0,185,ls),
(-24,185,o),
(-38,141,o),
(-38,92,cs),
(-38,42,o),
(-24,0,o),
(0,0,cs),
(91,0,ls),
(196,0,o),
(296,13,o),
(356,57,c),
(360,57,l),
(427,11,o),
(512,0,o),
(571,0,cs),
(828,0,l),
(828,185,l),
(800,185,ls),
(784,185,o),
(774,185,o),
(745,183,c),
(745,185,l),
(758,200,o),
(768,240,o),
(768,276,cs),
(768,399,o),
(682,500,o),
(522,500,cs),
(415,500,o),
(343,439,o),
(317,372,cs),
(315,367,o),
(312,358,o),
(311,352,c),
(306,352,l),
(291,370,o),
(272,393,o),
(255,412,cs)
);
},
{
closed = 1;
nodes = (
(466,185,o),
(411,223,o),
(411,267,cs),
(411,317,o),
(461,342,o),
(510,342,cs),
(582,342,o),
(618,299,o),
(618,258,cs),
(618,206,o),
(577,185,o),
(527,185,cs)
);
}
);
width = 826;
}
);
note = uni0721.medi;
},
{
glyphname = uni0721.init;
lastChange = "2022-12-16 12:05:34 +0000";
layers = (
{
anchors = (
{
name = bottom;
pos = (375,-98);
},
{
name = top;
pos = (385,507);
}
);
layerId = m01;
shapes = (
{
closed = 1;
nodes = (
(64,455,l),
(6,404,l),
(278,109,l),
(274,77,o),
(218,76,o),
(195,76,cs),
(0,76,ls),
(-21,76,o),
(-39,61,o),
(-39,38,cs),
(-39,14,o),
(-21,0,o),
(0,0,cs),
(185,0,ls),
(274,0,o),
(315,22,o),
(333,61,c),
(336,61,l),
(379,20,o),
(437,0,o),
(502,0,cs),
(624,0,o),
(691,86,o),
(691,190,cs),
(691,308,o),
(602,405,o),
(466,405,cs),
(385,405,o),
(293,366,o),
(272,253,cs),
(270,243,o),
(269,232,o),
(268,220,c),
(265,220,l),
(255,235,o),
(241,254,o),
(219,279,cs)
);
},
{
closed = 1;
nodes = (
(404,74,o),
(333,147,o),
(333,206,cs),
(333,292,o),
(396,332,o),
(466,332,cs),
(558,332,o),
(618,272,o),
(618,192,cs),
(618,107,o),
(559,74,o),
(493,74,cs)
);
}
);
width = 741;
},
{
anchors = (
{
name = bottom;
pos = (376,-98);
},
{
name = top;
pos = (390,507);
}
);
layerId = "8E9A709A-C666-43E5-8831-9AE42D64DE83";
shapes = (
{
closed = 1;
nodes = (
(62,397,l),
(43,382,l),
(310,95,l),
(303,26,o),
(230,25,o),
(200,25,cs),
(0,25,ls),
(-19,25,o),
(-40,21,o),
(-40,13,cs),
(-40,4,o),
(-19,0,o),
(0,0,cs),
(190,0,ls),
(268,0,o),
(318,18,o),
(329,76,c),
(331,76,l),
(375,32,o),
(429,0,o),
(498,0,cs),
(626,0,o),
(669,91,o),
(669,177,cs),
(669,278,o),
(591,361,o),
(467,361,cs),
(402,361,o),
(287,324,o),
(287,189,cs),
(287,176,o),
(289,161,o),
(297,142,c),
(295,142,l),
(271,172,o),
(257,188,o),
(206,242,cs)
);
},
{
closed = 1;
nodes = (
(408,25,o),
(312,101,o),
(312,186,cs),
(312,291,o),
(386,336,o),
(467,336,cs),
(575,336,o),
(643,269,o),
(643,176,cs),
(643,72,o),
(578,25,o),
(498,25,cs)
);
}
);
width = 724;
},
{
anchors = (
{
name = bottom;
pos = (421,-98);
},
{
name = top;
pos = (438,603);
}
);
layerId = "7FDEFC05-49C3-46A7-9C1D-65D39809C804";
shapes = (
{
closed = 1;
nodes = (
(132,555,l),
(11,453,l),
(240,195,l),
(236,186,o),
(189,185,o),
(160,185,cs),
(0,185,ls),
(-24,185,o),
(-38,141,o),
(-38,92,cs),
(-38,42,o),
(-24,0,o),
(0,0,cs),
(91,0,ls),
(196,0,o),
(296,13,o),
(356,57,c),
(360,57,l),
(414,11,o),
(479,-4,o),
(538,-4,cs),
(668,-4,o),
(770,100,o),
(770,236,cs),
(770,378,o),
(662,500,o),
(509,500,cs),
(411,500,o),
(341,437,o),
(317,372,cs),
(315,367,o),
(312,358,o),
(311,352,c),
(306,352,l),
(286,374,o),
(272,391,o),
(255,411,cs)
);
},
{
closed = 1;
nodes = (
(477,185,o),
(411,217,o),
(411,268,cs),
(411,318,o),
(461,342,o),
(510,342,cs),
(582,342,o),
(618,299,o),
(618,258,cs),
(618,206,o),
(577,185,o),
(526,185,cs)
);
}
);
width = 820;
}
);
note = uni0721.init;
},
{
glyphname = uni0722;
lastChange = "2022-12-16 12:05:34 +0000";
layers = (
{
anchors = (
{
name = bottom;
pos = (177,-370);
},
{
name = top;
pos = (164,365);
}
);
layerId = m01;
shapes = (
{
closed = 1;
nodes = (
(468,-343,l),
(329,-166,o),
(200,19,o),
(93,179,c),
(28,137,l),
(112,1,o),
(323,-287,o),
(408,-384,c)
);
}
);
width = 332;
},
{
anchors = (
{
name = bottom;
pos = (142,-342);
},
{
name = top;
pos = (135,308);
}
);
layerId = "8E9A709A-C666-43E5-8831-9AE42D64DE83";
shapes = (
{
closed = 1;
nodes = (
(407,-356,l),
(275,-189,o),
(156,-32,o),
(50,120,c),
(28,105,l),
(119,-30,o),
(306,-270,o),
(387,-371,c)
);
}
);
width = 274;
},
{
anchors = (
{
name = bottom;
pos = (254,-387);
},
{
name = top;
pos = (239,503);
}
);
layerId = "7FDEFC05-49C3-46A7-9C1D-65D39809C804";
shapes = (
{
closed = 1;
nodes = (
(618,-316,l),
(462,-115,o),
(285,139,o),
(168,316,c),
(28,219,l),
(106,93,o),
(410,-327,o),
(486,-410,c)
);
}
);
width = 481;
}
);
note = uni0722;
unicode = 1826;
},
{
glyphname = uni0722.fina;
lastChange = "2022-12-16 12:05:34 +0000";
layers = (
{
anchors = (
{
name = bottom;
pos = (130,-412);
},
{
name = top;
pos = (132,332);
}
);
layerId = m01;
shapes = (
{
closed = 1;
nodes = (
(406,-367,l),
(305,-249,o),
(168,-63,o),
(107,25,c),
(114,29,l),
(145,4,o),
(194,0,o),
(243,0,cs),
(252,0,l),
(252,76,l),
(242,76,ls),
(203,76,o),
(186,79,o),
(170,84,cs),
(161,87,o),
(148,92,o),
(120,119,cs),
(100,139,o),
(88,143,o),
(69,143,cs),
(35,143,o),
(20,108,o),
(20,70,cs),
(20,45,o),
(32,7,o),
(52,-23,cs),
(121,-125,o),
(258,-301,o),
(351,-405,c)
);
}
);
width = 252;
},
{
anchors = (
{
name = bottom;
pos = (132,-379);
},
{
name = top;
pos = (124,268);
}
);
layerId = "8E9A709A-C666-43E5-8831-9AE42D64DE83";
shapes = (
{
closed = 1;
nodes = (
(374,-356,l),
(279,-244,o),
(139,-68,o),
(74,27,c),
(78,27,l),
(111,2,o),
(175,0,o),
(216,0,cs),
(225,0,l),
(225,25,l),
(221,25,ls),
(152,25,o),
(106,31,o),
(86,50,cs),
(82,54,o),
(80,57,o),
(76,62,cs),
(61,80,o),
(57,81,o),
(49,81,cs),
(41,81,o),
(34,74,o),
(34,61,cs),
(34,45,o),
(46,24,o),
(54,13,cs),
(111,-70,o),
(262,-268,o),
(354,-371,c)
);
}
);
width = 225;
},
{
anchors = (
{
name = bottom;
pos = (154,-417);
},
{
name = top;
pos = (149,474);
}
);
layerId = "7FDEFC05-49C3-46A7-9C1D-65D39809C804";
shapes = (
{
closed = 1;
nodes = (
(490,-322,l),
(399,-212,o),
(269,-36,o),
(220,34,c),
(226,37,l),
(270,5,o),
(314,0,o),
(362,0,cs),
(366,0,l),
(366,185,l),
(341,185,ls),
(320,185,o),
(288,186,o),
(265,193,cs),
(249,198,o),
(240,203,o),
(210,227,cs),
(183,249,o),
(162,254,o),
(130,254,cs),
(58,254,o),
(25,191,o),
(25,111,cs),
(25,50,o),
(65,-29,o),
(97,-76,cs),
(182,-199,o),
(280,-317,o),
(368,-410,c)
);
}
);
width = 366;
}
);
note = uni0722.fina;
},
{
glyphname = uni0722.medi;
lastChange = "2022-12-16 12:05:34 +0000";
layers = (
{
anchors = (
{
name = bottom;
pos = (163,-98);
},
{
name = top;
pos = (160,490);
}
);
layerId = m01;
shapes = (
{
closed = 1;
nodes = (
(316,76,l),
(259,76,o),
(218,85,o),
(202,101,c),
(213,137,o),
(215,179,o),
(215,229,cs),
(215,255,o),
(212,334,o),
(208,364,c),
(138,358,l),
(141,325,o),
(142,251,o),
(142,243,cs),
(142,202,o),
(142,143,o),
(133,121,cs),
(121,92,o),
(101,76,o),
(60,76,cs),
(0,76,ls),
(-21,76,o),
(-39,61,o),
(-39,38,cs),
(-39,14,o),
(-21,0,o),
(0,0,cs),
(39,0,ls),
(92,0,o),
(138,12,o),
(169,42,c),
(191,13,o),
(248,0,o),
(316,0,c)
);
}
);
width = 316;
},
{
anchors = (
{
name = bottom;
pos = (144,-98);
},
{
name = top;
pos = (147,447);
}
);
layerId = "8E9A709A-C666-43E5-8831-9AE42D64DE83";
shapes = (
{
closed = 1;
nodes = (
(293,25,l),
(209,25,o),
(180,33,o),
(162,67,c),
(173,99,o),
(174,164,o),
(174,196,cs),
(174,234,o),
(172,292,o),
(169,318,c),
(145,316,l),
(147,289,o),
(149,247,o),
(149,195,cs),
(149,130,o),
(146,90,o),
(136,69,cs),
(120,35,o),
(84,25,o),
(24,25,cs),
(0,25,ls),
(-19,25,o),
(-40,21,o),
(-40,13,cs),
(-40,4,o),
(-19,0,o),
(0,0,cs),
(24,0,ls),
(76,0,o),
(122,6,o),
(149,43,c),
(176,5,o),
(205,0,o),
(293,0,c)
);
}
);
width = 293;
},
{
anchors = (
{
name = bottom;
pos = (213,-98);
},
{
name = top;
pos = (205,576);
}
);
layerId = "7FDEFC05-49C3-46A7-9C1D-65D39809C804";
shapes = (
{
closed = 1;
nodes = (
(422,185,l),
(361,185,o),
(321,194,o),
(304,210,c),
(309,235,o),
(311,287,o),
(311,305,cs),
(311,333,o),
(309,410,o),
(300,454,c),
(144,440,l),
(148,389,o),
(149,349,o),
(149,316,cs),
(149,290,o),
(149,248,o),
(135,224,cs),
(120,198,o),
(96,185,o),
(48,185,cs),
(0,185,ls),
(-24,185,o),
(-38,141,o),
(-38,92,cs),
(-38,42,o),
(-24,0,o),
(0,0,cs),
(20,0,ls),
(125,0,o),
(184,24,o),
(229,63,c),
(271,25,o),
(340,0,o),
(422,0,c)
);
}
);
width = 422;
}
);
note = uni0722.medi;
},
{
glyphname = uni0722.init;
lastChange = "2022-12-16 12:05:34 +0000";
layers = (
{
anchors = (
{
name = bottom;
pos = (147,-98);
},
{
name = top;
pos = (160,491);
}
);
layerId = m01;
shapes = (
{
closed = 1;
nodes = (
(140,358,l),
(143,325,o),
(144,255,o),
(144,247,cs),
(144,226,o),
(144,155,o),
(134,130,cs),
(122,99,o),
(91,76,o),
(45,76,cs),
(0,76,ls),
(-21,76,o),
(-39,61,o),
(-39,38,cs),
(-39,14,o),
(-21,0,o),
(0,0,cs),
(14,0,ls),
(103,0,o),
(162,26,o),
(193,90,cs),
(209,123,o),
(217,166,o),
(217,221,cs),
(217,246,o),
(215,333,o),
(210,364,c)
);
}
);
width = 297;
},
{
anchors = (
{
name = bottom;
pos = (125,-98);
},
{
name = top;
pos = (147,447);
}
);
layerId = "8E9A709A-C666-43E5-8831-9AE42D64DE83";
shapes = (
{
closed = 1;
nodes = (
(145,316,l),
(148,273,o),
(149,234,o),
(149,201,cs),
(149,150,o),
(145,110,o),
(138,88,cs),
(123,40,o),
(92,25,o),
(37,25,cs),
(0,25,ls),
(-19,25,o),
(-40,21,o),
(-40,13,cs),
(-40,4,o),
(-19,0,o),
(0,0,cs),
(38,0,ls),
(114,0,o),
(147,33,o),
(162,81,cs),
(173,115,o),
(174,157,o),
(174,200,cs),
(174,222,o),
(173,280,o),
(169,318,c)
);
}
);
width = 276;
},
{
anchors = (
{
name = bottom;
pos = (202,-98);
},
{
name = top;
pos = (206,575);
}
);
layerId = "7FDEFC05-49C3-46A7-9C1D-65D39809C804";
shapes = (
{
closed = 1;
nodes = (
(144,440,l),
(148,389,o),
(149,344,o),
(149,316,cs),
(149,290,o),
(149,248,o),
(135,224,cs),
(120,198,o),
(96,185,o),
(48,185,cs),
(0,185,ls),
(-24,185,o),
(-38,141,o),
(-38,92,cs),
(-38,42,o),
(-24,0,o),
(0,0,cs),
(44,0,ls),
(152,0,o),
(233,48,o),
(274,121,cs),
(304,174,o),
(311,239,o),
(311,305,cs),
(311,333,o),
(309,410,o),
(300,454,c)
);
}
);
width = 386;
}
);
note = uni0722.init;
},
{
glyphname = uni0723;
lastChange = "2022-12-16 12:05:34 +0000";
layers = (
{
anchors = (
{
name = bottom;
pos = (551,-98);
},
{
name = top;
pos = (681,477);
}
);
layerId = m01;
shapes = (
{
closed = 1;
nodes = (
(794,0,ls),
(929,0,o),
(1016,66,o),
(1016,203,cs),
(1016,322,o),
(941,403,o),
(827,403,cs),
(767,403,o),
(711,376,o),
(682,320,c),
(679,320,l),
(647,370,o),
(592,399,o),
(521,399,cs),
(423,399,o),
(336,335,o),
(336,212,cs),
(336,156,o),
(352,113,o),
(385,78,c),
(385,74,l),
(364,76,o),
(339,76,o),
(324,76,cs),
(287,76,ls),
(173,76,o),
(127,125,o),
(127,198,cs),
(127,206,l),
(61,202,l),
(60,196,o),
(59,175,o),
(59,171,cs),
(59,62,o),
(142,0,o),
(278,0,cs)
);
},
{
closed = 1;
nodes = (
(782,76,o),
(751,83,o),
(731,110,cs),
(717,129,o),
(708,158,o),
(708,202,cs),
(708,295,o),
(773,330,o),
(827,330,cs),
(903,330,o),
(945,285,o),
(945,209,cs),
(945,110,o),
(875,76,o),
(812,76,cs)
);
},
{
closed = 1;
nodes = (
(450,76,o),
(407,138,o),
(407,216,cs),
(407,292,o),
(462,326,o),
(522,326,cs),
(609,326,o),
(652,266,o),
(652,168,cs),
(652,142,o),
(646,124,o),
(636,110,cs),
(614,79,o),
(571,76,o),
(534,76,cs)
);
}
);
width = 1075;
},
{
anchors = (
{
name = bottom;
pos = (482,-98);
},
{
name = top;
pos = (610,428);
}
);
layerId = "8E9A709A-C666-43E5-8831-9AE42D64DE83";
shapes = (
{
closed = 1;
nodes = (
(702,0,ls),
(840,0,o),
(913,76,o),
(913,187,cs),
(913,287,o),
(846,354,o),
(749,354,cs),
(695,354,o),
(634,324,o),
(611,248,c),
(609,248,l),
(587,323,o),
(521,352,o),
(457,352,cs),
(373,352,o),
(299,285,o),
(299,182,cs),
(299,132,o),
(316,56,o),
(390,23,c),
(390,21,l),
(369,24,o),
(334,25,o),
(316,25,cs),
(260,25,ls),
(135,25,o),
(86,81,o),
(86,162,cs),
(86,168,l),
(63,167,l),
(62,158,o),
(62,156,o),
(62,154,cs),
(62,55,o),
(127,0,o),
(255,0,cs)
);
},
{
closed = 1;
nodes = (
(645,25,o),
(640,25,o),
(630,35,cs),
(621,44,o),
(620,58,o),
(620,154,cs),
(620,263,o),
(669,329,o),
(748,329,cs),
(835,329,o),
(886,276,o),
(886,187,cs),
(886,70,o),
(803,25,o),
(706,25,cs)
);
},
{
closed = 1;
nodes = (
(377,25,o),
(326,91,o),
(326,184,cs),
(326,274,o),
(387,327,o),
(456,327,cs),
(553,327,o),
(596,266,o),
(596,155,cs),
(596,59,o),
(595,44,o),
(586,35,cs),
(576,25,o),
(562,25,o),
(501,25,cs)
);
}
);
width = 978;
},
{
anchors = (
{
name = bottom;
pos = (603,-98);
},
{
name = top;
pos = (734,579);
}
);
layerId = "7FDEFC05-49C3-46A7-9C1D-65D39809C804";
shapes = (
{
closed = 1;
nodes = (
(760,0,ls),
(963,0,o),
(1107,66,o),
(1107,258,cs),
(1107,393,o),
(1023,489,o),
(888,489,cs),
(829,489,o),
(771,464,o),
(736,413,c),
(732,413,l),
(697,453,o),
(652,483,o),
(573,483,cs),
(462,483,o),
(359,424,o),
(359,282,cs),
(359,249,o),
(366,214,o),
(384,185,c),
(384,183,l),
(355,185,o),
(351,185,o),
(343,185,cs),
(330,185,ls),
(232,185,o),
(190,234,o),
(190,295,cs),
(190,300,l),
(47,297,l),
(45,282,o),
(45,257,o),
(45,251,cs),
(45,87,o),
(176,0,o),
(357,0,cs)
);
},
{
closed = 1;
nodes = (
(845,174,o),
(818,183,o),
(801,201,cs),
(789,214,o),
(782,231,o),
(782,254,cs),
(782,302,o),
(828,334,o),
(883,334,cs),
(942,334,o),
(973,296,o),
(973,253,cs),
(973,195,o),
(915,174,o),
(877,174,cs)
);
},
{
closed = 1;
nodes = (
(526,174,o),
(494,210,o),
(494,255,cs),
(494,294,o),
(526,328,o),
(581,328,cs),
(650,328,o),
(683,293,o),
(683,250,cs),
(683,234,o),
(681,216,o),
(668,201,cs),
(655,186,o),
(632,174,o),
(591,174,cs)
);
}
);
width = 1167;
}
);
note = uni0723;
unicode = 1827;
},
{
glyphname = uni0723.fina;
lastChange = "2022-12-16 12:05:34 +0000";
layers = (
{
anchors = (
{
name = bottom;
pos = (551,-98);
},
{
name = top;
pos = (682,477);
}
);
layerId = m01;
shapes = (
{
closed = 1;
nodes = (
(767,403,o),
(711,376,o),
(682,320,c),
(679,320,l),
(647,370,o),
(592,399,o),
(521,399,cs),
(423,399,o),
(336,335,o),
(336,212,cs),
(336,156,o),
(352,113,o),
(385,78,c),
(385,74,l),
(364,76,o),
(339,76,o),
(324,76,cs),
(287,76,ls),
(173,76,o),
(127,125,o),
(127,198,cs),
(127,206,l),
(61,202,l),
(60,196,o),
(59,175,o),
(59,171,cs),
(59,62,o),
(142,0,o),
(278,0,cs),
(1089,0,l),
(1089,76,l),
(1024,76,ls),
(1007,76,o),
(985,76,o),
(963,74,c),
(963,78,l),
(995,105,o),
(1016,156,o),
(1016,208,cs),
(1016,327,o),
(941,403,o),
(827,403,cs)
);
},
{
closed = 1;
nodes = (
(782,76,o),
(751,83,o),
(731,110,cs),
(717,129,o),
(708,158,o),
(708,202,cs),
(708,295,o),
(773,330,o),
(827,330,cs),
(903,330,o),
(945,285,o),
(945,209,cs),
(945,110,o),
(875,76,o),
(812,76,cs)
);
},
{
closed = 1;
nodes = (
(450,76,o),
(407,138,o),
(407,216,cs),
(407,292,o),
(462,326,o),
(522,326,cs),
(609,326,o),
(652,266,o),
(652,168,cs),
(652,142,o),
(646,124,o),
(636,110,cs),
(614,79,o),
(571,76,o),
(534,76,cs)
);
}
);
width = 1089;
},
{
anchors = (
{
name = bottom;
pos = (482,-98);
},
{
name = top;
pos = (610,427);
}
);
layerId = "8E9A709A-C666-43E5-8831-9AE42D64DE83";
shapes = (
{
closed = 1;
nodes = (
(695,354,o),
(634,324,o),
(611,248,c),
(609,248,l),
(587,323,o),
(521,352,o),
(457,352,cs),
(373,352,o),
(299,285,o),
(299,182,cs),
(299,132,o),
(316,56,o),
(390,23,c),
(390,21,l),
(369,24,o),
(334,25,o),
(316,25,cs),
(260,25,ls),
(135,25,o),
(86,81,o),
(86,162,cs),
(86,168,l),
(63,167,l),
(62,158,o),
(62,156,o),
(62,154,cs),
(62,55,o),
(127,0,o),
(255,0,cs),
(986,0,l),
(986,25,l),
(896,25,ls),
(873,25,o),
(843,24,o),
(816,21,c),
(816,23,l),
(880,47,o),
(913,110,o),
(913,189,cs),
(913,289,o),
(846,354,o),
(749,354,cs)
);
},
{
closed = 1;
nodes = (
(672,25,o),
(640,25,o),
(630,35,cs),
(621,44,o),
(620,58,o),
(620,154,cs),
(620,263,o),
(669,329,o),
(748,329,cs),
(835,329,o),
(886,276,o),
(886,187,cs),
(886,70,o),
(809,25,o),
(733,25,cs)
);
},
{
closed = 1;
nodes = (
(377,25,o),
(326,91,o),
(326,184,cs),
(326,274,o),
(387,327,o),
(456,327,cs),
(553,327,o),
(596,266,o),
(596,155,cs),
(596,59,o),
(595,44,o),
(586,35,cs),
(576,25,o),
(562,25,o),
(501,25,cs)
);
}
);
width = 986;
},
{
anchors = (
{
name = bottom;
pos = (602,-98);
},
{
name = top;
pos = (734,579);
}
);
layerId = "7FDEFC05-49C3-46A7-9C1D-65D39809C804";
shapes = (
{
closed = 1;
nodes = (
(840,488,o),
(771,464,o),
(736,413,c),
(732,413,l),
(697,453,o),
(652,483,o),
(573,483,cs),
(462,483,o),
(359,417,o),
(359,288,cs),
(359,259,o),
(366,214,o),
(384,185,c),
(384,183,l),
(355,185,o),
(351,185,o),
(343,185,cs),
(330,185,ls),
(232,185,o),
(190,234,o),
(190,295,cs),
(190,300,l),
(47,297,l),
(45,282,o),
(45,257,o),
(45,251,cs),
(45,87,o),
(176,0,o),
(357,0,cs),
(1166,0,l),
(1166,185,l),
(1151,185,ls),
(1135,185,o),
(1112,185,o),
(1083,183,c),
(1083,185,l),
(1099,214,o),
(1106,258,o),
(1106,286,cs),
(1106,396,o),
(1034,488,o),
(899,488,cs)
);
},
{
closed = 1;
nodes = (
(845,174,o),
(818,183,o),
(801,201,cs),
(789,214,o),
(782,231,o),
(782,254,cs),
(782,302,o),
(828,334,o),
(883,334,cs),
(942,334,o),
(973,296,o),
(973,253,cs),
(973,195,o),
(915,174,o),
(877,174,cs)
);
},
{
closed = 1;
nodes = (
(526,174,o),
(494,210,o),
(494,255,cs),
(494,294,o),
(526,328,o),
(581,328,cs),
(650,328,o),
(683,293,o),
(683,250,cs),
(683,234,o),
(681,216,o),
(668,201,cs),
(655,186,o),
(632,174,o),
(591,174,cs)
);
}
);
width = 1166;
}
);
note = uni0723.fina;
},
{
glyphname = uni0723.medi;
lastChange = "2022-12-16 12:05:34 +0000";
layers = (
{
anchors = (
{
name = bottom;
pos = (412,-98);
},
{
name = top;
pos = (418,477);
}
);
layerId = m01;
shapes = (
{
closed = 1;
nodes = (
(504,403,o),
(449,375,o),
(420,320,c),
(417,320,l),
(386,370,o),
(330,399,o),
(259,399,cs),
(161,399,o),
(74,335,o),
(74,212,cs),
(74,156,o),
(89,113,o),
(123,78,c),
(123,74,l),
(102,76,o),
(80,76,o),
(61,76,cs),
(0,76,ls),
(-21,76,o),
(-39,61,o),
(-39,38,cs),
(-39,14,o),
(-21,0,o),
(0,0,cs),
(827,0,l),
(827,76,l),
(762,76,ls),
(745,76,o),
(722,76,o),
(700,74,c),
(700,78,l),
(732,105,o),
(754,156,o),
(754,208,cs),
(754,327,o),
(679,403,o),
(564,403,cs)
);
},
{
closed = 1;
nodes = (
(520,76,o),
(489,83,o),
(469,110,cs),
(455,129,o),
(446,158,o),
(446,202,cs),
(446,295,o),
(511,330,o),
(564,330,cs),
(640,330,o),
(683,285,o),
(683,209,cs),
(683,110,o),
(612,76,o),
(549,76,cs)
);
},
{
closed = 1;
nodes = (
(187,76,o),
(145,138,o),
(145,216,cs),
(145,292,o),
(199,326,o),
(259,326,cs),
(347,326,o),
(390,266,o),
(390,168,cs),
(390,142,o),
(384,123,o),
(374,110,cs),
(351,80,o),
(311,76,o),
(271,76,cs)
);
}
);
width = 827;
},
{
anchors = (
{
name = bottom;
pos = (380,-98);
},
{
name = top;
pos = (393,429);
}
);
layerId = "8E9A709A-C666-43E5-8831-9AE42D64DE83";
shapes = (
{
closed = 1;
nodes = (
(471,354,o),
(410,324,o),
(387,248,c),
(385,248,l),
(363,323,o),
(297,352,o),
(233,352,cs),
(149,352,o),
(75,285,o),
(75,182,cs),
(75,132,o),
(92,56,o),
(166,23,c),
(166,21,l),
(145,24,o),
(110,25,o),
(92,25,cs),
(0,25,ls),
(-19,25,o),
(-40,21,o),
(-40,13,cs),
(-40,4,o),
(-19,0,o),
(0,0,cs),
(762,0,l),
(762,25,l),
(672,25,ls),
(649,25,o),
(619,24,o),
(592,21,c),
(592,23,l),
(656,47,o),
(689,110,o),
(689,189,cs),
(689,289,o),
(622,354,o),
(525,354,cs)
);
},
{
closed = 1;
nodes = (
(448,25,o),
(416,25,o),
(406,35,cs),
(397,44,o),
(396,58,o),
(396,154,cs),
(396,263,o),
(445,329,o),
(524,329,cs),
(611,329,o),
(662,276,o),
(662,187,cs),
(662,70,o),
(585,25,o),
(509,25,cs)
);
},
{
closed = 1;
nodes = (
(153,25,o),
(102,91,o),
(102,184,cs),
(102,274,o),
(163,327,o),
(232,327,cs),
(329,327,o),
(372,266,o),
(372,155,cs),
(372,59,o),
(371,44,o),
(362,35,cs),
(352,25,o),
(338,25,o),
(277,25,cs)
);
}
);
width = 762;
},
{
anchors = (
{
name = bottom;
pos = (429,-98);
},
{
name = top;
pos = (436,579);
}
);
layerId = "7FDEFC05-49C3-46A7-9C1D-65D39809C804";
shapes = (
{
closed = 1;
nodes = (
(541,488,o),
(472,464,o),
(437,413,c),
(433,413,l),
(398,453,o),
(353,483,o),
(274,483,cs),
(163,483,o),
(60,416,o),
(60,288,cs),
(60,258,o),
(67,214,o),
(85,185,c),
(85,183,l),
(56,185,o),
(52,185,o),
(44,185,cs),
(0,185,ls),
(-24,185,o),
(-40,141,o),
(-40,92,cs),
(-40,42,o),
(-24,0,o),
(0,0,cs),
(867,0,l),
(867,185,l),
(852,185,ls),
(836,185,o),
(813,185,o),
(784,183,c),
(784,185,l),
(800,214,o),
(807,258,o),
(807,286,cs),
(807,396,o),
(735,488,o),
(600,488,cs)
);
},
{
closed = 1;
nodes = (
(546,174,o),
(519,183,o),
(502,201,cs),
(490,214,o),
(483,232,o),
(483,254,cs),
(483,302,o),
(529,334,o),
(584,334,cs),
(643,334,o),
(674,296,o),
(674,253,cs),
(674,195,o),
(616,174,o),
(578,174,cs)
);
},
{
closed = 1;
nodes = (
(227,174,o),
(195,210,o),
(195,255,cs),
(195,294,o),
(227,328,o),
(282,328,cs),
(351,328,o),
(384,293,o),
(384,250,cs),
(384,234,o),
(382,216,o),
(369,201,cs),
(356,186,o),
(333,174,o),
(292,174,cs)
);
}
);
width = 867;
}
);
note = uni0723.medi;
},
{
glyphname = uni0723.init;
lastChange = "2022-12-16 12:05:34 +0000";
layers = (
{
anchors = (
{
name = bottom;
pos = (414,-98);
},
{
name = top;
pos = (417,477);
}
);
layerId = m01;
shapes = (
{
closed = 1;
nodes = (
(504,403,o),
(449,376,o),
(420,320,c),
(417,320,l),
(386,370,o),
(330,399,o),
(259,399,cs),
(161,399,o),
(74,335,o),
(74,212,cs),
(74,156,o),
(89,113,o),
(123,78,c),
(123,74,l),
(102,76,o),
(80,76,o),
(61,76,cs),
(0,76,ls),
(-21,76,o),
(-39,61,o),
(-39,38,cs),
(-39,14,o),
(-21,0,o),
(0,0,cs),
(532,0,ls),
(666,0,o),
(754,66,o),
(754,203,cs),
(754,322,o),
(679,403,o),
(564,403,cs)
);
},
{
closed = 1;
nodes = (
(520,76,o),
(489,83,o),
(469,110,cs),
(455,129,o),
(446,158,o),
(446,202,cs),
(446,295,o),
(511,330,o),
(564,330,cs),
(640,330,o),
(683,285,o),
(683,209,cs),
(683,110,o),
(612,76,o),
(549,76,cs)
);
},
{
closed = 1;
nodes = (
(187,76,o),
(145,138,o),
(145,216,cs),
(145,292,o),
(199,326,o),
(259,326,cs),
(347,326,o),
(390,266,o),
(390,168,cs),
(390,142,o),
(384,123,o),
(374,110,cs),
(351,79,o),
(308,76,o),
(271,76,cs)
);
}
);
width = 812;
},
{
anchors = (
{
name = bottom;
pos = (381,-98);
},
{
name = top;
pos = (393,427);
}
);
layerId = "8E9A709A-C666-43E5-8831-9AE42D64DE83";
shapes = (
{
closed = 1;
nodes = (
(471,354,o),
(410,324,o),
(387,248,c),
(385,248,l),
(363,323,o),
(297,352,o),
(233,352,cs),
(149,352,o),
(75,285,o),
(75,182,cs),
(75,132,o),
(92,56,o),
(166,23,c),
(166,21,l),
(145,24,o),
(110,25,o),
(92,25,cs),
(0,25,ls),
(-19,25,o),
(-40,21,o),
(-40,13,cs),
(-40,4,o),
(-19,0,o),
(0,0,cs),
(478,0,ls),
(616,0,o),
(689,76,o),
(689,187,cs),
(689,287,o),
(622,354,o),
(525,354,cs)
);
},
{
closed = 1;
nodes = (
(421,25,o),
(416,25,o),
(406,35,cs),
(397,44,o),
(396,58,o),
(396,154,cs),
(396,263,o),
(445,329,o),
(524,329,cs),
(611,329,o),
(662,276,o),
(662,187,cs),
(662,70,o),
(579,25,o),
(482,25,cs)
);
},
{
closed = 1;
nodes = (
(153,25,o),
(102,91,o),
(102,184,cs),
(102,274,o),
(163,327,o),
(232,327,cs),
(329,327,o),
(372,266,o),
(372,155,cs),
(372,59,o),
(371,44,o),
(362,35,cs),
(352,25,o),
(338,25,o),
(277,25,cs)
);
}
);
width = 754;
},
{
anchors = (
{
name = bottom;
pos = (430,-98);
},
{
name = top;
pos = (436,579);
}
);
layerId = "7FDEFC05-49C3-46A7-9C1D-65D39809C804";
shapes = (
{
closed = 1;
nodes = (
(530,489,o),
(472,464,o),
(437,413,c),
(433,413,l),
(398,453,o),
(353,483,o),
(274,483,cs),
(163,483,o),
(60,416,o),
(60,288,cs),
(60,255,o),
(67,214,o),
(85,185,c),
(85,183,l),
(56,185,o),
(52,185,o),
(44,185,cs),
(0,185,ls),
(-24,185,o),
(-40,141,o),
(-40,92,cs),
(-40,42,o),
(-24,0,o),
(0,0,cs),
(461,0,ls),
(664,0,o),
(808,66,o),
(808,258,cs),
(808,393,o),
(724,489,o),
(589,489,cs)
);
},
{
closed = 1;
nodes = (
(546,174,o),
(519,183,o),
(502,201,cs),
(490,214,o),
(483,232,o),
(483,254,cs),
(483,302,o),
(529,334,o),
(584,334,cs),
(643,334,o),
(674,296,o),
(674,253,cs),
(674,195,o),
(616,174,o),
(578,174,cs)
);
},
{
closed = 1;
nodes = (
(227,174,o),
(195,210,o),
(195,255,cs),
(195,294,o),
(227,328,o),
(282,328,cs),
(351,328,o),
(384,293,o),
(384,250,cs),
(384,234,o),
(382,216,o),
(369,201,cs),
(356,186,o),
(333,174,o),
(292,174,cs)
);
}
);
width = 868;
}
);
note = uni0723.init;
},
{
glyphname = uni0724;
lastChange = "2023-01-03 11:51:12 +0000";
layers = (
{
anchors = (
{
name = bottom;
pos = (382,-243);
},
{
name = top;
pos = (405,476);
}
);
layerId = m01;
shapes = (
{
closed = 1;
nodes = (
(491,403,o),
(435,376,o),
(406,320,c),
(402,320,l),
(371,370,o),
(316,399,o),
(245,399,cs),
(147,399,o),
(60,335,o),
(60,212,cs),
(60,91,o),
(130,0,o),
(284,0,cs),
(368,0,l),
(365,-55,o),
(360,-113,o),
(356,-159,c),
(422,-159,l),
(428,-114,o),
(434,-59,o),
(438,0,c),
(518,0,ls),
(652,0,o),
(740,66,o),
(740,203,cs),
(740,322,o),
(665,403,o),
(550,403,cs)
);
},
{
closed = 1;
nodes = (
(626,330,o),
(669,285,o),
(669,209,cs),
(669,109,o),
(598,71,o),
(536,71,cs),
(522,71,o),
(507,73,o),
(493,78,cs),
(483,82,o),
(474,88,o),
(465,96,cs),
(457,104,o),
(449,114,o),
(444,127,cs),
(436,146,o),
(432,170,o),
(432,202,cs),
(432,295,o),
(497,330,o),
(551,330,cs)
);
},
{
closed = 1;
nodes = (
(333,326,o),
(376,266,o),
(376,168,cs),
(376,152,o),
(374,138,o),
(370,127,cs),
(365,114,o),
(358,104,o),
(349,96,cs),
(338,86,o),
(324,80,o),
(309,76,cs),
(292,72,o),
(274,71,o),
(257,71,cs),
(174,71,o),
(131,138,o),
(131,216,cs),
(131,292,o),
(186,326,o),
(246,326,cs)
);
}
);
width = 800;
},
{
anchors = (
{
name = bottom;
pos = (361,-211);
},
{
name = top;
pos = (381,428);
}
);
layerId = "8E9A709A-C666-43E5-8831-9AE42D64DE83";
shapes = (
{
closed = 1;
nodes = (
(461,354,o),
(400,324,o),
(377,248,c),
(375,248,l),
(353,323,o),
(287,352,o),
(223,352,cs),
(139,352,o),
(65,285,o),
(65,182,cs),
(65,46,o),
(148,0,o),
(266,0,cs),
(360,0,l),
(358,-36,o),
(357,-73,o),
(353,-126,c),
(377,-126,l),
(381,-85,o),
(383,-34,o),
(385,0,c),
(468,0,ls),
(606,0,o),
(679,76,o),
(679,187,cs),
(679,287,o),
(612,354,o),
(515,354,cs)
);
},
{
closed = 1;
nodes = (
(601,329,o),
(652,276,o),
(652,187,cs),
(652,70,o),
(569,25,o),
(472,25,cs),
(452,25,o),
(431,25,o),
(411,25,cs),
(393,25,o),
(390,31,o),
(388,35,cs),
(386,39,o),
(386,46,o),
(386,74,cs),
(386,101,o),
(386,127,o),
(386,154,cs),
(386,263,o),
(435,329,o),
(514,329,cs)
);
},
{
closed = 1;
nodes = (
(319,327,o),
(362,266,o),
(362,155,cs),
(362,128,o),
(362,101,o),
(362,74,cs),
(362,46,o),
(362,39,o),
(360,35,cs),
(358,31,o),
(355,25,o),
(337,25,cs),
(314,25,o),
(290,25,o),
(267,25,cs),
(143,25,o),
(92,85,o),
(92,184,cs),
(92,274,o),
(153,327,o),
(222,327,cs)
);
}
);
width = 744;
},
{
anchors = (
{
name = bottom;
pos = (415,-267);
},
{
name = top;
pos = (438,579);
}
);
layerId = "7FDEFC05-49C3-46A7-9C1D-65D39809C804";
shapes = (
{
closed = 1;
nodes = (
(538,489,o),
(477,464,o),
(442,413,c),
(438,413,l),
(403,453,o),
(355,483,o),
(276,483,cs),
(157,483,o),
(60,384,o),
(60,242,cs),
(60,161,o),
(91,0,o),
(351,0,cs),
(358,0,l),
(353,-69,o),
(346,-145,o),
(342,-182,c),
(502,-182,l),
(510,-133,o),
(518,-62,o),
(523,0,c),
(547,0,ls),
(678,0,o),
(819,69,o),
(819,251,cs),
(819,386,o),
(732,489,o),
(597,489,cs)
);
},
{
closed = 1;
nodes = (
(647,334,o),
(678,296,o),
(678,253,cs),
(678,195,o),
(628,174,o),
(586,174,cs),
(570,174,o),
(556,176,o),
(543,179,cs),
(530,182,o),
(518,187,o),
(509,195,cs),
(501,202,o),
(495,210,o),
(491,220,cs),
(488,228,o),
(487,236,o),
(487,247,cs),
(487,295,o),
(528,334,o),
(588,334,cs)
);
},
{
closed = 1;
nodes = (
(355,328,o),
(388,289,o),
(388,246,cs),
(388,237,o),
(387,227,o),
(385,220,cs),
(382,211,o),
(377,202,o),
(370,195,cs),
(363,188,o),
(354,183,o),
(341,179,cs),
(329,175,o),
(314,174,o),
(296,174,cs),
(231,174,o),
(199,207,o),
(199,253,cs),
(199,292,o),
(231,328,o),
(286,328,cs)
);
}
);
width = 879;
}
);
note = uni0724;
unicode = 1828;
},
{
glyphname = uni0724.fina;
lastChange = "2023-01-03 11:51:47 +0000";
layers = (
{
anchors = (
{
name = bottom;
pos = (384,-244);
},
{
name = top;
pos = (405,477);
}
);
layerId = m01;
shapes = (
{
closed = 1;
nodes = (
(490,403,o),
(435,375,o),
(406,320,c),
(402,320,l),
(371,370,o),
(316,399,o),
(245,399,cs),
(147,399,o),
(60,335,o),
(60,212,cs),
(60,91,o),
(130,0,o),
(284,0,cs),
(368,0,l),
(365,-55,o),
(360,-113,o),
(356,-159,c),
(422,-159,l),
(428,-114,o),
(434,-59,o),
(438,0,c),
(813,0,l),
(813,76,l),
(748,76,ls),
(731,76,o),
(709,76,o),
(687,74,c),
(687,78,l),
(719,105,o),
(740,156,o),
(740,208,cs),
(740,327,o),
(665,403,o),
(550,403,cs)
);
},
{
closed = 1;
nodes = (
(626,330,o),
(669,285,o),
(669,209,cs),
(669,110,o),
(598,71,o),
(536,71,cs),
(522,71,o),
(507,73,o),
(493,78,cs),
(483,82,o),
(474,88,o),
(465,96,cs),
(457,104,o),
(449,114,o),
(444,127,cs),
(436,146,o),
(432,170,o),
(432,202,cs),
(432,295,o),
(497,330,o),
(551,330,cs)
);
},
{
closed = 1;
nodes = (
(333,326,o),
(376,266,o),
(376,168,cs),
(376,152,o),
(374,138,o),
(370,127,cs),
(365,114,o),
(358,104,o),
(349,96,cs),
(338,86,o),
(324,80,o),
(309,76,cs),
(292,72,o),
(274,71,o),
(257,71,cs),
(174,71,o),
(131,138,o),
(131,216,cs),
(131,292,o),
(186,326,o),
(246,326,cs)
);
}
);
width = 813;
},
{
anchors = (
{
name = bottom;
pos = (361,-211);
},
{
name = top;
pos = (382,427);
}
);
layerId = "8E9A709A-C666-43E5-8831-9AE42D64DE83";
shapes = (
{
closed = 1;
nodes = (
(461,354,o),
(400,324,o),
(377,248,c),
(375,248,l),
(353,323,o),
(287,352,o),
(223,352,cs),
(139,352,o),
(65,285,o),
(65,182,cs),
(65,46,o),
(148,0,o),
(266,0,cs),
(360,0,l),
(358,-36,o),
(357,-73,o),
(353,-126,c),
(377,-126,l),
(381,-85,o),
(383,-34,o),
(385,0,c),
(752,0,l),
(752,25,l),
(662,25,ls),
(639,25,o),
(609,24,o),
(582,21,c),
(582,23,l),
(646,47,o),
(679,110,o),
(679,189,cs),
(679,289,o),
(612,354,o),
(515,354,cs)
);
},
{
closed = 1;
nodes = (
(601,329,o),
(652,276,o),
(652,187,cs),
(652,70,o),
(575,25,o),
(499,25,cs),
(470,25,o),
(440,25,o),
(411,25,cs),
(393,25,o),
(390,31,o),
(388,35,cs),
(386,39,o),
(386,46,o),
(386,74,cs),
(386,101,o),
(386,127,o),
(386,154,cs),
(386,263,o),
(435,329,o),
(514,329,cs)
);
},
{
closed = 1;
nodes = (
(319,327,o),
(362,266,o),
(362,155,cs),
(362,128,o),
(362,101,o),
(362,74,cs),
(362,46,o),
(362,39,o),
(360,35,cs),
(358,31,o),
(355,25,o),
(337,25,cs),
(314,25,o),
(290,25,o),
(267,25,cs),
(143,25,o),
(92,85,o),
(92,184,cs),
(92,274,o),
(153,327,o),
(222,327,cs)
);
}
);
width = 752;
},
{
anchors = (
{
name = bottom;
pos = (414,-267);
},
{
name = top;
pos = (438,579);
}
);
layerId = "7FDEFC05-49C3-46A7-9C1D-65D39809C804";
shapes = (
{
closed = 1;
nodes = (
(545,488,o),
(476,464,o),
(441,413,c),
(437,413,l),
(402,453,o),
(356,483,o),
(277,483,cs),
(166,483,o),
(60,391,o),
(60,249,cs),
(60,168,o),
(91,0,o),
(351,0,cs),
(358,0,l),
(353,-69,o),
(346,-145,o),
(342,-182,c),
(502,-182,l),
(510,-133,o),
(518,-62,o),
(523,0,c),
(871,0,l),
(871,185,l),
(856,185,ls),
(840,185,o),
(817,185,o),
(788,183,c),
(788,185,l),
(804,214,o),
(811,258,o),
(811,286,cs),
(811,396,o),
(739,488,o),
(604,488,cs)
);
},
{
closed = 1;
nodes = (
(647,334,o),
(678,296,o),
(678,253,cs),
(678,195,o),
(628,174,o),
(586,174,cs),
(570,174,o),
(556,176,o),
(543,179,cs),
(530,182,o),
(518,187,o),
(509,195,cs),
(501,202,o),
(495,210,o),
(491,220,cs),
(488,228,o),
(487,236,o),
(487,247,cs),
(487,295,o),
(528,334,o),
(588,334,cs)
);
},
{
closed = 1;
nodes = (
(355,328,o),
(388,289,o),
(388,246,cs),
(388,237,o),
(388,228,o),
(385,220,cs),
(382,211,o),
(377,202,o),
(370,195,cs),
(363,188,o),
(354,183,o),
(341,179,cs),
(329,175,o),
(314,174,o),
(296,174,cs),
(231,174,o),
(199,207,o),
(199,253,cs),
(199,292,o),
(231,328,o),
(286,328,cs)
);
}
);
width = 871;
}
);
note = uni0724.fina;
},
{
glyphname = uni0724.medi;
lastChange = "2022-12-16 12:05:34 +0000";
layers = (
{
anchors = (
{
name = bottom;
pos = (412,-98);
},
{
name = top;
pos = (416,477);
}
);
layerId = m01;
shapes = (
{
closed = 1;
nodes = (
(504,403,o),
(449,375,o),
(420,320,c),
(417,320,l),
(386,370,o),
(330,399,o),
(259,399,cs),
(161,399,o),
(74,335,o),
(74,212,cs),
(74,156,o),
(89,113,o),
(123,78,c),
(123,74,l),
(102,76,o),
(80,76,o),
(61,76,cs),
(0,76,ls),
(-21,76,o),
(-39,61,o),
(-39,38,cs),
(-39,14,o),
(-21,0,o),
(0,0,cs),
(827,0,l),
(827,76,l),
(762,76,ls),
(745,76,o),
(722,76,o),
(700,74,c),
(700,78,l),
(732,105,o),
(754,156,o),
(754,208,cs),
(754,327,o),
(679,403,o),
(564,403,cs)
);
},
{
closed = 1;
nodes = (
(520,76,o),
(489,83,o),
(469,110,cs),
(455,129,o),
(446,158,o),
(446,202,cs),
(446,295,o),
(511,330,o),
(564,330,cs),
(640,330,o),
(683,285,o),
(683,209,cs),
(683,110,o),
(612,76,o),
(549,76,cs)
);
},
{
closed = 1;
nodes = (
(187,76,o),
(145,138,o),
(145,216,cs),
(145,292,o),
(199,326,o),
(259,326,cs),
(347,326,o),
(390,266,o),
(390,168,cs),
(390,142,o),
(384,123,o),
(374,110,cs),
(351,80,o),
(311,76,o),
(271,76,cs)
);
}
);
width = 827;
},
{
anchors = (
{
name = bottom;
pos = (380,-98);
},
{
name = top;
pos = (391,428);
}
);
layerId = "8E9A709A-C666-43E5-8831-9AE42D64DE83";
shapes = (
{
closed = 1;
nodes = (
(471,354,o),
(410,324,o),
(387,248,c),
(385,248,l),
(363,323,o),
(297,352,o),
(233,352,cs),
(149,352,o),
(75,285,o),
(75,182,cs),
(75,132,o),
(92,56,o),
(166,23,c),
(166,21,l),
(145,24,o),
(110,25,o),
(92,25,cs),
(0,25,ls),
(-19,25,o),
(-40,21,o),
(-40,13,cs),
(-40,4,o),
(-19,0,o),
(0,0,cs),
(762,0,l),
(762,25,l),
(672,25,ls),
(649,25,o),
(619,24,o),
(592,21,c),
(592,23,l),
(656,47,o),
(689,110,o),
(689,189,cs),
(689,289,o),
(622,354,o),
(525,354,cs)
);
},
{
closed = 1;
nodes = (
(448,25,o),
(416,25,o),
(406,35,cs),
(397,44,o),
(396,58,o),
(396,154,cs),
(396,263,o),
(445,329,o),
(524,329,cs),
(611,329,o),
(662,276,o),
(662,187,cs),
(662,70,o),
(585,25,o),
(509,25,cs)
);
},
{
closed = 1;
nodes = (
(153,25,o),
(102,91,o),
(102,184,cs),
(102,274,o),
(163,327,o),
(232,327,cs),
(329,327,o),
(372,266,o),
(372,155,cs),
(372,59,o),
(371,44,o),
(362,35,cs),
(352,25,o),
(338,25,o),
(277,25,cs)
);
}
);
width = 762;
},
{
anchors = (
{
name = bottom;
pos = (430,-98);
},
{
name = top;
pos = (437,579);
}
);
layerId = "7FDEFC05-49C3-46A7-9C1D-65D39809C804";
shapes = (
{
closed = 1;
nodes = (
(541,488,o),
(472,464,o),
(437,413,c),
(433,413,l),
(398,453,o),
(353,483,o),
(274,483,cs),
(163,483,o),
(60,416,o),
(60,288,cs),
(60,258,o),
(67,214,o),
(85,185,c),
(85,183,l),
(56,185,o),
(52,185,o),
(44,185,cs),
(0,185,ls),
(-24,185,o),
(-40,141,o),
(-40,92,cs),
(-40,42,o),
(-24,0,o),
(0,0,cs),
(867,0,l),
(867,185,l),
(852,185,ls),
(836,185,o),
(813,185,o),
(784,183,c),
(784,185,l),
(800,214,o),
(807,258,o),
(807,286,cs),
(807,396,o),
(735,488,o),
(600,488,cs)
);
},
{
closed = 1;
nodes = (
(546,174,o),
(519,183,o),
(502,201,cs),
(490,214,o),
(483,232,o),
(483,254,cs),
(483,302,o),
(529,334,o),
(584,334,cs),
(643,334,o),
(674,296,o),
(674,253,cs),
(674,195,o),
(616,174,o),
(578,174,cs)
);
},
{
closed = 1;
nodes = (
(227,174,o),
(195,210,o),
(195,255,cs),
(195,294,o),
(227,328,o),
(282,328,cs),
(351,328,o),
(384,293,o),
(384,250,cs),
(384,234,o),
(382,216,o),
(369,201,cs),
(356,186,o),
(333,174,o),
(292,174,cs)
);
}
);
width = 867;
}
);
note = uni0724.medi;
},
{
glyphname = uni0724.init;
lastChange = "2022-12-16 12:05:34 +0000";
layers = (
{
anchors = (
{
name = bottom;
pos = (414,-98);
},
{
name = top;
pos = (417,477);
}
);
layerId = m01;
shapes = (
{
closed = 1;
nodes = (
(504,403,o),
(449,376,o),
(420,320,c),
(417,320,l),
(386,370,o),
(330,399,o),
(259,399,cs),
(161,399,o),
(74,335,o),
(74,212,cs),
(74,156,o),
(89,113,o),
(123,78,c),
(123,74,l),
(102,76,o),
(80,76,o),
(61,76,cs),
(0,76,ls),
(-21,76,o),
(-39,61,o),
(-39,38,cs),
(-39,14,o),
(-21,0,o),
(0,0,cs),
(532,0,ls),
(666,0,o),
(754,66,o),
(754,203,cs),
(754,322,o),
(679,403,o),
(564,403,cs)
);
},
{
closed = 1;
nodes = (
(520,76,o),
(489,83,o),
(469,110,cs),
(455,129,o),
(446,158,o),
(446,202,cs),
(446,295,o),
(511,330,o),
(564,330,cs),
(640,330,o),
(683,285,o),
(683,209,cs),
(683,110,o),
(612,76,o),
(549,76,cs)
);
},
{
closed = 1;
nodes = (
(187,76,o),
(145,138,o),
(145,216,cs),
(145,292,o),
(199,326,o),
(259,326,cs),
(347,326,o),
(390,266,o),
(390,168,cs),
(390,142,o),
(384,123,o),
(374,110,cs),
(351,79,o),
(308,76,o),
(271,76,cs)
);
}
);
width = 812;
},
{
anchors = (
{
name = bottom;
pos = (381,-98);
},
{
name = top;
pos = (391,428);
}
);
layerId = "8E9A709A-C666-43E5-8831-9AE42D64DE83";
shapes = (
{
closed = 1;
nodes = (
(471,354,o),
(410,324,o),
(387,248,c),
(385,248,l),
(363,323,o),
(297,352,o),
(233,352,cs),
(149,352,o),
(75,285,o),
(75,182,cs),
(75,132,o),
(92,56,o),
(166,23,c),
(166,21,l),
(145,24,o),
(110,25,o),
(92,25,cs),
(0,25,ls),
(-19,25,o),
(-40,21,o),
(-40,13,cs),
(-40,4,o),
(-19,0,o),
(0,0,cs),
(478,0,ls),
(616,0,o),
(689,76,o),
(689,187,cs),
(689,287,o),
(622,354,o),
(525,354,cs)
);
},
{
closed = 1;
nodes = (
(421,25,o),
(416,25,o),
(406,35,cs),
(397,44,o),
(396,58,o),
(396,154,cs),
(396,263,o),
(445,329,o),
(524,329,cs),
(611,329,o),
(662,276,o),
(662,187,cs),
(662,70,o),
(579,25,o),
(482,25,cs)
);
},
{
closed = 1;
nodes = (
(153,25,o),
(102,91,o),
(102,184,cs),
(102,274,o),
(163,327,o),
(232,327,cs),
(329,327,o),
(372,266,o),
(372,155,cs),
(372,59,o),
(371,44,o),
(362,35,cs),
(352,25,o),
(338,25,o),
(277,25,cs)
);
}
);
width = 754;
},
{
anchors = (
{
name = bottom;
pos = (429,-98);
},
{
name = top;
pos = (436,579);
}
);
layerId = "7FDEFC05-49C3-46A7-9C1D-65D39809C804";
shapes = (
{
closed = 1;
nodes = (
(530,489,o),
(472,464,o),
(437,413,c),
(433,413,l),
(398,453,o),
(353,483,o),
(274,483,cs),
(163,483,o),
(60,416,o),
(60,288,cs),
(60,255,o),
(67,214,o),
(85,185,c),
(85,183,l),
(56,185,o),
(52,185,o),
(44,185,cs),
(0,185,ls),
(-24,185,o),
(-40,141,o),
(-40,92,cs),
(-40,42,o),
(-24,0,o),
(0,0,cs),
(461,0,ls),
(664,0,o),
(808,66,o),
(808,258,cs),
(808,393,o),
(724,489,o),
(589,489,cs)
);
},
{
closed = 1;
nodes = (
(546,174,o),
(519,183,o),
(502,201,cs),
(490,214,o),
(483,232,o),
(483,254,cs),
(483,302,o),
(529,334,o),
(584,334,cs),
(643,334,o),
(674,296,o),
(674,253,cs),
(674,195,o),
(616,174,o),
(578,174,cs)
);
},
{
closed = 1;
nodes = (
(227,174,o),
(195,210,o),
(195,255,cs),
(195,294,o),
(227,328,o),
(282,328,cs),
(351,328,o),
(384,293,o),
(384,250,cs),
(384,234,o),
(382,216,o),
(369,201,cs),
(356,186,o),
(333,174,o),
(292,174,cs)
);
}
);
width = 868;
}
);
note = uni0724.init;
},
{
glyphname = uni0725;
lastChange = "2022-12-16 12:05:34 +0000";
layers = (
{
anchors = (
{
name = bottom;
pos = (414,-98);
},
{
name = top;
pos = (314,525);
}
);
layerId = m01;
shapes = (
{
closed = 1;
nodes = (
(478,-17,o),
(511,39,o),
(521,82,c),
(524,82,l),
(561,39,o),
(617,-4,o),
(682,-10,c),
(701,56,l),
(655,67,o),
(621,85,o),
(562,153,cs),
(314,436,l),
(257,384,l),
(457,156,ls),
(466,146,o),
(469,135,o),
(469,123,cs),
(469,90,o),
(440,59,o),
(394,59,cs),
(357,59,o),
(329,88,o),
(298,124,cs),
(57,397,l),
(0,346,l),
(232,82,ls),
(296,9,o),
(339,-17,o),
(390,-17,cs)
);
}
);
width = 750;
},
{
anchors = (
{
name = bottom;
pos = (414,-98);
},
{
name = top;
pos = (280,480);
}
);
layerId = "8E9A709A-C666-43E5-8831-9AE42D64DE83";
shapes = (
{
closed = 1;
nodes = (
(460,-14,o),
(510,16,o),
(510,89,c),
(513,89,l),
(566,28,o),
(600,6,o),
(636,-6,c),
(645,18,l),
(616,29,o),
(585,46,o),
(544,92,cs),
(280,390,l),
(260,373,l),
(460,148,ls),
(482,123,o),
(488,104,o),
(488,83,cs),
(488,40,o),
(455,11,o),
(397,11,cs),
(349,11,o),
(307,50,o),
(270,93,cs),
(37,364,l),
(18,346,l),
(244,84,ls),
(306,12,o),
(347,-14,o),
(396,-14,cs)
);
}
);
width = 704;
},
{
anchors = (
{
name = bottom;
pos = (499,-98);
},
{
name = top;
pos = (425,636);
}
);
layerId = "7FDEFC05-49C3-46A7-9C1D-65D39809C804";
shapes = (
{
closed = 1;
nodes = (
(567,-21,o),
(610,43,o),
(620,79,c),
(624,79,l),
(675,30,o),
(737,-11,o),
(829,-16,c),
(872,130,l),
(805,145,o),
(756,167,o),
(666,270,cs),
(425,546,l),
(304,444,l),
(496,224,ls),
(515,203,o),
(517,194,o),
(517,184,cs),
(517,166,o),
(500,151,o),
(477,151,cs),
(455,151,o),
(437,162,o),
(415,186,cs),
(122,508,l),
(0,408,l),
(298,76,ls),
(365,2,o),
(412,-21,o),
(476,-21,cs)
);
}
);
width = 908;
}
);
note = uni0725;
unicode = 1829;
},
{
glyphname = uni0725.fina;
lastChange = "2022-12-16 12:05:34 +0000";
layers = (
{
anchors = (
{
name = bottom;
pos = (415,-98);
},
{
name = top;
pos = (317,525);
}
);
layerId = m01;
shapes = (
{
closed = 1;
nodes = (
(477,-17,o),
(510,39,o),
(520,82,c),
(522,82,l),
(565,33,o),
(603,0,o),
(659,0,c),
(659,76,l),
(638,76,o),
(620,87,o),
(600,109,cs),
(314,436,l),
(257,384,l),
(457,156,ls),
(464,148,o),
(469,136,o),
(469,123,cs),
(469,90,o),
(440,59,o),
(394,59,cs),
(357,59,o),
(329,88,o),
(298,124,cs),
(57,397,l),
(0,346,l),
(232,82,ls),
(296,9,o),
(339,-17,o),
(390,-17,cs)
);
}
);
width = 659;
},
{
anchors = (
{
name = bottom;
pos = (415,-98);
},
{
name = top;
pos = (280,479);
}
);
layerId = "8E9A709A-C666-43E5-8831-9AE42D64DE83";
shapes = (
{
closed = 1;
nodes = (
(460,-14,o),
(510,16,o),
(510,89,c),
(513,89,l),
(579,7,o),
(611,0,o),
(655,0,c),
(655,25,l),
(613,25,o),
(592,37,o),
(544,91,cs),
(280,390,l),
(260,373,l),
(460,148,ls),
(482,123,o),
(488,104,o),
(488,83,cs),
(488,40,o),
(455,11,o),
(397,11,cs),
(349,11,o),
(307,50,o),
(270,93,cs),
(37,364,l),
(18,346,l),
(244,84,ls),
(306,12,o),
(347,-14,o),
(396,-14,cs)
);
}
);
width = 655;
},
{
anchors = (
{
name = bottom;
pos = (499,-101);
},
{
name = top;
pos = (426,636);
}
);
layerId = "7FDEFC05-49C3-46A7-9C1D-65D39809C804";
shapes = (
{
closed = 1;
nodes = (
(553,-4,o),
(598,49,o),
(609,91,c),
(613,91,l),
(674,25,o),
(732,0,o),
(796,0,c),
(796,185,l),
(765,185,o),
(730,197,o),
(695,237,cs),
(425,546,l),
(304,444,l),
(487,234,ls),
(506,213,o),
(508,204,o),
(508,194,cs),
(508,176,o),
(491,161,o),
(468,161,cs),
(446,161,o),
(428,172,o),
(406,196,cs),
(122,508,l),
(0,408,l),
(290,86,ls),
(357,12,o),
(398,-4,o),
(462,-4,cs)
);
}
);
width = 796;
}
);
note = uni0725.fina;
},
{
glyphname = uni0725.medi;
lastChange = "2022-12-16 12:05:34 +0000";
layers = (
{
anchors = (
{
name = bottom;
pos = (220,-98);
},
{
name = top;
pos = (220,513);
}
);
layerId = m01;
shapes = (
{
closed = 1;
nodes = (
(96,436,l),
(39,384,l),
(300,87,l),
(284,76,o),
(249,76,o),
(233,76,cs),
(0,76,ls),
(-21,76,o),
(-39,61,o),
(-39,38,cs),
(-39,14,o),
(-21,0,o),
(0,0,cs),
(222,0,ls),
(293,0,o),
(330,11,o),
(349,35,c),
(374,14,o),
(402,0,o),
(441,0,c),
(441,76,l),
(420,76,o),
(401,87,o),
(382,109,cs)
);
}
);
width = 441;
},
{
anchors = (
{
name = bottom;
pos = (220,-98);
},
{
name = top;
pos = (179,468);
}
);
layerId = "8E9A709A-C666-43E5-8831-9AE42D64DE83";
shapes = (
{
closed = 1;
nodes = (
(54,390,l),
(34,373,l),
(306,65,l),
(277,26,o),
(231,25,o),
(200,25,cs),
(0,25,ls),
(-19,25,o),
(-40,21,o),
(-40,13,cs),
(-40,4,o),
(-19,0,o),
(0,0,cs),
(196,0,ls),
(261,0,o),
(299,16,o),
(323,48,c),
(360,13,o),
(380,0,o),
(428,0,c),
(428,25,l),
(386,25,o),
(365,37,o),
(318,90,cs)
);
}
);
width = 428;
},
{
anchors = (
{
name = bottom;
pos = (220,-98);
},
{
name = top;
pos = (253,624);
}
);
layerId = "7FDEFC05-49C3-46A7-9C1D-65D39809C804";
shapes = (
{
closed = 1;
nodes = (
(128,546,l),
(7,444,l),
(219,200,l),
(212,192,o),
(168,185,o),
(124,185,cs),
(0,185,ls),
(-24,185,o),
(-40,141,o),
(-40,92,cs),
(-40,42,o),
(-24,0,o),
(0,0,cs),
(138,0,ls),
(229,0,o),
(291,18,o),
(339,69,c),
(387,20,o),
(455,0,o),
(499,0,c),
(499,185,l),
(468,185,o),
(433,197,o),
(398,237,cs)
);
}
);
width = 499;
}
);
note = uni0725.medi;
},
{
glyphname = uni0725.init;
lastChange = "2022-12-16 12:05:34 +0000";
layers = (
{
anchors = (
{
name = bottom;
pos = (219,-98);
},
{
name = top;
pos = (222,513);
}
);
layerId = m01;
shapes = (
{
closed = 1;
nodes = (
(0,76,ls),
(-21,76,o),
(-39,61,o),
(-39,38,cs),
(-39,14,o),
(-21,0,o),
(0,0,cs),
(227,0,ls),
(299,0,o),
(336,12,o),
(354,37,c),
(384,12,o),
(417,-6,o),
(464,-10,c),
(483,56,l),
(437,67,o),
(403,85,o),
(344,153,cs),
(96,436,l),
(39,384,l),
(301,85,l),
(284,76,o),
(252,76,o),
(237,76,cs)
);
}
);
width = 532;
},
{
anchors = (
{
name = bottom;
pos = (219,-98);
},
{
name = top;
pos = (179,468);
}
);
layerId = "8E9A709A-C666-43E5-8831-9AE42D64DE83";
shapes = (
{
closed = 1;
nodes = (
(0,25,ls),
(-19,25,o),
(-40,21,o),
(-40,13,cs),
(-40,4,o),
(-19,0,o),
(0,0,cs),
(196,0,ls),
(261,0,o),
(299,16,o),
(323,48,c),
(352,22,o),
(374,6,o),
(408,-6,c),
(417,18,l),
(388,29,o),
(357,46,o),
(316,92,cs),
(54,390,l),
(34,373,l),
(306,65,l),
(277,26,o),
(231,25,o),
(200,25,cs)
);
}
);
width = 476;
},
{
anchors = (
{
name = bottom;
pos = (219,-98);
},
{
name = top;
pos = (255,622);
}
);
layerId = "7FDEFC05-49C3-46A7-9C1D-65D39809C804";
shapes = (
{
closed = 1;
nodes = (
(0,185,ls),
(-24,185,o),
(-40,141,o),
(-40,92,cs),
(-40,42,o),
(-24,0,o),
(0,0,cs),
(128,0,ls),
(219,0,o),
(291,18,o),
(339,69,c),
(378,31,o),
(440,-11,o),
(532,-16,c),
(575,130,l),
(508,145,o),
(459,167,o),
(369,270,cs),
(128,546,l),
(7,444,l),
(219,200,l),
(212,192,o),
(168,185,o),
(124,185,cs)
);
}
);
width = 613;
}
);
note = uni0725.init;
},
{
glyphname = uni0726;
lastChange = "2022-12-16 12:05:34 +0000";
layers = (
{
anchors = (
{
name = bottom;
pos = (417,-98);
},
{
name = bottomright;
pos = (700,-69);
},
{
name = top;
pos = (501,633);
},
{
name = topright;
pos = (743,547);
}
);
layerId = m01;
shapes = (
{
closed = 1;
nodes = (
(697,103,o),
(613,76,o),
(523,76,cs),
(301,76,ls),
(183,76,o),
(125,137,o),
(125,216,cs),
(125,220,l),
(61,216,l),
(59,210,o),
(59,194,o),
(59,190,cs),
(59,76,o),
(145,0,o),
(297,0,cs),
(517,0,ls),
(671,0,o),
(769,61,o),
(769,208,cs),
(769,401,o),
(632,533,o),
(503,533,cs),
(397,533,o),
(303,464,o),
(303,349,cs),
(303,229,o),
(400,187,o),
(500,187,cs),
(567,187,o),
(642,215,o),
(690,264,c),
(693,264,l),
(696,248,o),
(697,231,o),
(697,214,cs)
);
},
{
closed = 1;
nodes = (
(572,457,o),
(637,410,o),
(672,333,c),
(631,285,o),
(562,260,o),
(502,260,cs),
(422,260,o),
(376,293,o),
(376,356,cs),
(376,416,o),
(431,457,o),
(503,457,cs)
);
}
);
width = 837;
},
{
anchors = (
{
name = bottom;
pos = (379,-98);
},
{
name = bottomright;
pos = (615,-69);
},
{
name = top;
pos = (433,576);
},
{
name = topright;
pos = (675,493);
}
);
layerId = "8E9A709A-C666-43E5-8831-9AE42D64DE83";
shapes = (
{
closed = 1;
nodes = (
(658,61,o),
(572,25,o),
(461,25,cs),
(280,25,ls),
(156,25,o),
(86,69,o),
(86,177,cs),
(86,181,l),
(63,179,l),
(62,173,o),
(62,168,o),
(62,165,cs),
(62,45,o),
(151,0,o),
(272,0,cs),
(455,0,ls),
(610,0,o),
(683,64,o),
(683,192,cs),
(683,374,o),
(555,479,o),
(439,479,cs),
(347,479,o),
(261,425,o),
(261,324,cs),
(261,222,o),
(341,181,o),
(441,181,cs),
(505,181,o),
(580,206,o),
(645,275,c),
(647,275,l),
(656,244,o),
(658,213,o),
(658,192,cs)
);
},
{
closed = 1;
nodes = (
(517,454,o),
(594,412,o),
(639,302,c),
(587,238,o),
(507,206,o),
(441,206,cs),
(347,206,o),
(287,245,o),
(287,328,cs),
(287,404,o),
(354,454,o),
(439,454,cs)
);
}
);
width = 761;
},
{
anchors = (
{
name = bottom;
pos = (451,-98);
},
{
name = bottomright;
pos = (758,-70);
},
{
name = top;
pos = (568,716);
},
{
name = topright;
pos = (836,629);
}
);
layerId = "7FDEFC05-49C3-46A7-9C1D-65D39809C804";
shapes = (
{
closed = 1;
nodes = (
(726,197,o),
(622,185,o),
(563,185,cs),
(366,185,ls),
(238,185,o),
(190,239,o),
(190,307,cs),
(190,311,l),
(47,308,l),
(45,293,o),
(45,271,o),
(45,265,cs),
(45,81,o),
(182,0,o),
(368,0,cs),
(517,0,ls),
(728,0,o),
(865,95,o),
(865,280,cs),
(865,498,o),
(721,615,o),
(571,615,cs),
(447,615,o),
(332,533,o),
(332,410,cs),
(332,270,o),
(443,225,o),
(543,225,cs),
(615,225,o),
(677,248,o),
(720,287,c),
(723,287,l),
(725,283,o),
(726,276,o),
(726,273,cs)
);
},
{
closed = 1;
nodes = (
(616,463,o),
(667,443,o),
(692,397,c),
(667,377,o),
(613,362,o),
(561,362,cs),
(502,362,o),
(475,381,o),
(475,410,cs),
(475,440,o),
(506,463,o),
(560,463,cs)
);
}
);
width = 917;
}
);
note = uni0726;
unicode = 1830;
},
{
glyphname = uni0726.fina;
lastChange = "2022-12-16 12:05:34 +0000";
layers = (
{
anchors = (
{
name = bottom;
pos = (416,-98);
},
{
name = bottomright;
pos = (700,-104);
},
{
name = top;
pos = (501,633);
},
{
name = topright;
pos = (743,547);
}
);
layerId = m01;
shapes = (
{
closed = 1;
nodes = (
(851,0,l),
(851,76,l),
(780,76,ls),
(761,76,o),
(736,76,o),
(712,74,c),
(711,78,l),
(750,108,o),
(769,157,o),
(769,217,cs),
(769,401,o),
(632,533,o),
(503,533,cs),
(397,533,o),
(303,464,o),
(303,349,cs),
(303,229,o),
(400,187,o),
(500,187,cs),
(567,187,o),
(642,215,o),
(690,264,c),
(693,264,l),
(696,248,o),
(697,231,o),
(697,214,cs),
(697,103,o),
(613,76,o),
(523,76,cs),
(301,76,ls),
(183,76,o),
(125,137,o),
(125,216,cs),
(125,220,l),
(61,216,l),
(59,210,o),
(59,194,o),
(59,190,cs),
(59,76,o),
(145,0,o),
(297,0,cs)
);
},
{
closed = 1;
nodes = (
(422,260,o),
(376,293,o),
(376,356,cs),
(376,416,o),
(431,457,o),
(503,457,cs),
(572,457,o),
(637,410,o),
(672,333,c),
(631,285,o),
(562,260,o),
(502,260,cs)
);
}
);
width = 851;
},
{
anchors = (
{
name = bottom;
pos = (379,-98);
},
{
name = bottomright;
pos = (616,-104);
},
{
name = top;
pos = (433,576);
},
{
name = topright;
pos = (676,493);
}
);
layerId = "8E9A709A-C666-43E5-8831-9AE42D64DE83";
shapes = (
{
closed = 1;
nodes = (
(746,0,l),
(746,25,l),
(658,25,ls),
(639,25,o),
(607,24,o),
(585,23,c),
(585,24,l),
(653,53,o),
(683,109,o),
(683,192,cs),
(683,374,o),
(555,479,o),
(439,479,cs),
(347,479,o),
(261,425,o),
(261,324,cs),
(261,222,o),
(341,181,o),
(441,181,cs),
(505,181,o),
(580,206,o),
(645,275,c),
(647,275,l),
(655,244,o),
(658,212,o),
(658,192,cs),
(658,65,o),
(579,25,o),
(468,25,cs),
(280,25,ls),
(156,25,o),
(86,69,o),
(86,177,cs),
(86,181,l),
(63,179,l),
(62,173,o),
(62,168,o),
(62,165,cs),
(62,45,o),
(151,0,o),
(272,0,cs)
);
},
{
closed = 1;
nodes = (
(347,206,o),
(287,245,o),
(287,328,cs),
(287,404,o),
(354,454,o),
(439,454,cs),
(517,454,o),
(594,412,o),
(639,302,c),
(587,238,o),
(507,206,o),
(441,206,cs)
);
}
);
width = 746;
},
{
anchors = (
{
name = bottom;
pos = (450,-98);
},
{
name = bottomright;
pos = (757,-104);
},
{
name = top;
pos = (568,716);
},
{
name = topright;
pos = (837,627);
}
);
layerId = "7FDEFC05-49C3-46A7-9C1D-65D39809C804";
shapes = (
{
closed = 1;
nodes = (
(943,0,l),
(943,185,l),
(920,185,ls),
(901,185,o),
(869,184,o),
(842,183,c),
(842,185,l),
(858,214,o),
(867,261,o),
(867,298,cs),
(867,493,o),
(723,615,o),
(573,615,cs),
(446,615,o),
(332,533,o),
(332,410,cs),
(332,270,o),
(443,225,o),
(543,225,cs),
(615,225,o),
(677,248,o),
(720,287,c),
(723,287,l),
(725,274,o),
(726,263,o),
(726,256,cs),
(726,195,o),
(638,185,o),
(579,185,cs),
(368,185,ls),
(240,185,o),
(190,239,o),
(190,307,cs),
(190,311,l),
(47,308,l),
(45,293,o),
(45,271,o),
(45,265,cs),
(45,81,o),
(184,0,o),
(370,0,cs)
);
},
{
closed = 1;
nodes = (
(502,362,o),
(475,381,o),
(475,410,cs),
(475,440,o),
(506,463,o),
(562,463,cs),
(618,463,o),
(667,443,o),
(692,397,c),
(667,377,o),
(613,362,o),
(561,362,cs)
);
}
);
width = 943;
}
);
note = uni0726.fina;
},
{
glyphname = uni0726.medi;
lastChange = "2022-12-16 12:05:34 +0000";
layers = (
{
anchors = (
{
name = bottom;
pos = (238,-98);
},
{
name = bottomright;
pos = (485,-103);
},
{
name = top;
pos = (256,633);
},
{
name = topright;
pos = (498,547);
}
);
layerId = m01;
shapes = (
{
closed = 1;
nodes = (
(153,533,o),
(59,464,o),
(59,349,cs),
(59,229,o),
(155,187,o),
(255,187,cs),
(323,187,o),
(397,215,o),
(446,264,c),
(449,264,l),
(451,248,o),
(453,231,o),
(453,214,cs),
(453,103,o),
(368,76,o),
(278,76,cs),
(0,76,ls),
(-21,76,o),
(-39,61,o),
(-39,38,cs),
(-39,14,o),
(-21,0,o),
(0,0,cs),
(606,0,l),
(606,76,l),
(536,76,ls),
(516,76,o),
(491,76,o),
(468,74,c),
(466,78,l),
(505,108,o),
(524,157,o),
(524,217,cs),
(524,401,o),
(388,533,o),
(258,533,cs)
);
},
{
closed = 1;
nodes = (
(178,260,o),
(132,293,o),
(132,356,cs),
(132,416,o),
(186,457,o),
(258,457,cs),
(328,457,o),
(393,410,o),
(428,333,c),
(386,285,o),
(317,260,o),
(257,260,cs)
);
}
);
width = 606;
},
{
anchors = (
{
name = bottom;
pos = (185,-98);
},
{
name = bottomright;
pos = (421,-103);
},
{
name = top;
pos = (239,580);
},
{
name = topright;
pos = (481,493);
}
);
layerId = "8E9A709A-C666-43E5-8831-9AE42D64DE83";
shapes = (
{
closed = 1;
nodes = (
(153,479,o),
(67,425,o),
(67,324,cs),
(67,222,o),
(147,181,o),
(247,181,cs),
(311,181,o),
(386,206,o),
(451,275,c),
(453,275,l),
(462,243,o),
(464,213,o),
(464,192,cs),
(464,65,o),
(385,25,o),
(274,25,cs),
(0,25,ls),
(-19,25,o),
(-40,21,o),
(-40,13,cs),
(-40,4,o),
(-19,0,o),
(0,0,cs),
(552,0,l),
(552,25,l),
(464,25,ls),
(445,25,o),
(413,24,o),
(391,23,c),
(391,24,l),
(459,53,o),
(489,109,o),
(489,192,cs),
(489,374,o),
(361,479,o),
(245,479,cs)
);
},
{
closed = 1;
nodes = (
(153,206,o),
(93,245,o),
(93,328,cs),
(93,404,o),
(160,454,o),
(245,454,cs),
(323,454,o),
(400,412,o),
(445,302,c),
(393,238,o),
(313,206,o),
(247,206,cs)
);
}
);
width = 552;
},
{
anchors = (
{
name = bottom;
pos = (185,-98);
},
{
name = bottomright;
pos = (474,-103);
},
{
name = top;
pos = (284,716);
},
{
name = topright;
pos = (552,628);
}
);
layerId = "7FDEFC05-49C3-46A7-9C1D-65D39809C804";
shapes = (
{
closed = 1;
nodes = (
(161,615,o),
(47,533,o),
(47,410,cs),
(47,270,o),
(158,225,o),
(258,225,cs),
(330,225,o),
(392,248,o),
(435,287,c),
(438,287,l),
(440,274,o),
(441,263,o),
(441,257,cs),
(441,195,o),
(353,185,o),
(294,185,cs),
(0,185,ls),
(-24,185,o),
(-40,141,o),
(-40,92,cs),
(-40,42,o),
(-24,0,o),
(0,0,cs),
(658,0,l),
(658,185,l),
(635,185,ls),
(616,185,o),
(584,184,o),
(557,183,c),
(557,185,l),
(573,214,o),
(582,261,o),
(582,298,cs),
(582,494,o),
(438,615,o),
(288,615,cs)
);
},
{
closed = 1;
nodes = (
(217,362,o),
(190,381,o),
(190,410,cs),
(190,440,o),
(221,463,o),
(277,463,cs),
(333,463,o),
(382,443,o),
(407,397,c),
(382,377,o),
(328,362,o),
(276,362,cs)
);
}
);
width = 658;
}
);
note = uni0726.medi;
},
{
glyphname = uni0726.init;
lastChange = "2022-12-16 12:05:34 +0000";
layers = (
{
anchors = (
{
name = bottom;
pos = (236,-98);
},
{
name = bottomright;
pos = (485,-70);
},
{
name = top;
pos = (255,634);
},
{
name = topright;
pos = (498,547);
}
);
layerId = m01;
shapes = (
{
closed = 1;
nodes = (
(272,0,ls),
(427,0,o),
(524,61,o),
(524,208,cs),
(524,401,o),
(388,533,o),
(258,533,cs),
(153,533,o),
(59,464,o),
(59,349,cs),
(59,229,o),
(155,187,o),
(255,187,cs),
(323,187,o),
(397,215,o),
(446,264,c),
(449,264,l),
(451,248,o),
(453,231,o),
(453,214,cs),
(453,103,o),
(368,76,o),
(278,76,cs),
(0,76,ls),
(-21,76,o),
(-39,61,o),
(-39,38,cs),
(-39,14,o),
(-21,0,o),
(0,0,cs)
);
},
{
closed = 1;
nodes = (
(178,260,o),
(132,293,o),
(132,356,cs),
(132,416,o),
(186,457,o),
(258,457,cs),
(328,457,o),
(393,410,o),
(428,333,c),
(386,285,o),
(317,260,o),
(257,260,cs)
);
}
);
width = 592;
},
{
anchors = (
{
name = bottom;
pos = (185,-98);
},
{
name = bottomright;
pos = (421,-70);
},
{
name = top;
pos = (239,579);
},
{
name = topright;
pos = (481,493);
}
);
layerId = "8E9A709A-C666-43E5-8831-9AE42D64DE83";
shapes = (
{
closed = 1;
nodes = (
(261,0,ls),
(416,0,o),
(489,64,o),
(489,192,cs),
(489,374,o),
(361,479,o),
(245,479,cs),
(153,479,o),
(67,425,o),
(67,324,cs),
(67,222,o),
(147,181,o),
(247,181,cs),
(311,181,o),
(386,206,o),
(451,275,c),
(453,275,l),
(462,243,o),
(464,213,o),
(464,192,cs),
(464,61,o),
(378,25,o),
(267,25,cs),
(0,25,ls),
(-19,25,o),
(-40,21,o),
(-40,13,cs),
(-40,4,o),
(-19,0,o),
(0,0,cs)
);
},
{
closed = 1;
nodes = (
(153,206,o),
(93,245,o),
(93,328,cs),
(93,404,o),
(160,454,o),
(245,454,cs),
(323,454,o),
(400,412,o),
(445,302,c),
(393,238,o),
(313,206,o),
(247,206,cs)
);
}
);
width = 567;
},
{
anchors = (
{
name = bottom;
pos = (185,-98);
},
{
name = bottomright;
pos = (474,-70);
},
{
name = top;
pos = (284,717);
},
{
name = topright;
pos = (552,628);
}
);
layerId = "7FDEFC05-49C3-46A7-9C1D-65D39809C804";
shapes = (
{
closed = 1;
nodes = (
(231,0,ls),
(442,0,o),
(579,95,o),
(579,272,cs),
(579,498,o),
(435,615,o),
(285,615,cs),
(161,615,o),
(46,533,o),
(46,410,cs),
(46,270,o),
(157,225,o),
(257,225,cs),
(329,225,o),
(391,248,o),
(434,287,c),
(437,287,l),
(439,283,o),
(440,276,o),
(440,273,cs),
(440,197,o),
(336,185,o),
(277,185,cs),
(-1,185,ls),
(-25,185,o),
(-41,141,o),
(-41,92,cs),
(-41,42,o),
(-25,0,o),
(-1,0,cs)
);
},
{
closed = 1;
nodes = (
(216,362,o),
(189,381,o),
(189,410,cs),
(189,440,o),
(220,463,o),
(274,463,cs),
(330,463,o),
(381,443,o),
(406,397,c),
(381,377,o),
(327,362,o),
(275,362,cs)
);
}
);
width = 631;
}
);
note = uni0726.init;
},
{
glyphname = uni0727;
lastChange = "2022-12-16 12:05:34 +0000";
layers = (
{
anchors = (
{
name = bottom;
pos = (519,-98);
},
{
name = top;
pos = (564,622);
}
);
layerId = m01;
shapes = (
{
closed = 1;
nodes = (
(831,0,l),
(831,76,l),
(713,76,ls),
(562,76,o),
(395,77,o),
(395,259,cs),
(395,369,o),
(484,442,o),
(574,442,cs),
(666,442,o),
(714,401,o),
(714,340,cs),
(714,290,o),
(679,260,o),
(626,260,cs),
(593,260,o),
(556,279,o),
(551,324,c),
(491,317,l),
(491,243,o),
(551,194,o),
(629,194,cs),
(726,194,o),
(785,262,o),
(785,342,cs),
(785,436,o),
(706,518,o),
(571,518,cs),
(442,518,o),
(321,401,o),
(321,253,cs),
(321,164,o),
(351,110,o),
(405,77,c),
(404,74,l),
(381,75,o),
(357,76,o),
(336,76,cs),
(301,76,ls),
(178,76,o),
(127,140,o),
(125,220,c),
(61,216,l),
(59,210,o),
(59,194,o),
(59,190,cs),
(59,76,o),
(145,0,o),
(297,0,cs)
);
}
);
width = 890;
},
{
anchors = (
{
name = bottom;
pos = (509,-98);
},
{
name = top;
pos = (540,576);
}
);
layerId = "8E9A709A-C666-43E5-8831-9AE42D64DE83";
shapes = (
{
closed = 1;
nodes = (
(804,0,l),
(804,25,l),
(600,25,ls),
(495,25,o),
(334,26,o),
(334,218,cs),
(334,348,o),
(442,442,o),
(546,442,cs),
(655,442,o),
(709,384,o),
(709,320,cs),
(709,257,o),
(661,217,o),
(592,217,cs),
(550,217,o),
(499,234,o),
(484,289,c),
(460,286,l),
(470,230,o),
(521,192,o),
(592,192,cs),
(690,192,o),
(734,258,o),
(734,321,cs),
(734,397,o),
(669,467,o),
(546,467,cs),
(428,467,o),
(309,364,o),
(309,211,cs),
(309,118,o),
(349,51,o),
(431,24,c),
(431,22,l),
(388,25,o),
(377,25,o),
(354,25,cs),
(280,25,ls),
(156,25,o),
(86,69,o),
(86,181,c),
(63,179,l),
(62,173,o),
(62,168,o),
(62,165,cs),
(62,45,o),
(151,0,o),
(272,0,cs)
);
}
);
width = 868;
},
{
anchors = (
{
name = bottom;
pos = (555,-98);
},
{
name = top;
pos = (596,704);
}
);
layerId = "7FDEFC05-49C3-46A7-9C1D-65D39809C804";
shapes = (
{
closed = 1;
nodes = (
(927,0,l),
(927,185,l),
(675,185,ls),
(551,185,o),
(489,250,o),
(489,333,cs),
(489,394,o),
(527,458,o),
(606,458,cs),
(661,458,o),
(703,437,o),
(703,394,cs),
(703,376,o),
(693,366,o),
(677,366,cs),
(657,366,o),
(650,376,o),
(647,392,c),
(545,382,l),
(545,259,o),
(634,245,o),
(683,245,cs),
(773,245,o),
(844,296,o),
(844,396,cs),
(844,518,o),
(754,600,o),
(605,600,cs),
(452,600,o),
(338,484,o),
(338,347,cs),
(338,259,o),
(371,213,o),
(403,187,c),
(403,183,l),
(383,185,o),
(375,185,o),
(372,185,cs),
(324,185,ls),
(226,185,o),
(194,231,o),
(185,291,c),
(47,288,l),
(45,273,o),
(45,257,o),
(45,251,cs),
(45,77,o),
(171,0,o),
(357,0,cs)
);
}
);
width = 971;
}
);
note = uni0727;
unicode = 1831;
},
{
glyphname = uni0727.fina;
lastChange = "2022-12-16 12:05:34 +0000";
layers = (
{
anchors = (
{
name = bottom;
pos = (517,-98);
},
{
name = top;
pos = (563,622);
}
);
layerId = m01;
shapes = (
{
closed = 1;
nodes = (
(851,0,l),
(851,76,l),
(713,76,ls),
(562,76,o),
(395,77,o),
(395,259,cs),
(395,369,o),
(484,442,o),
(574,442,cs),
(666,442,o),
(714,401,o),
(714,340,cs),
(714,290,o),
(679,260,o),
(626,260,cs),
(593,260,o),
(556,279,o),
(551,324,c),
(491,317,l),
(491,243,o),
(551,194,o),
(629,194,cs),
(726,194,o),
(785,262,o),
(785,342,cs),
(785,436,o),
(706,518,o),
(571,518,cs),
(442,518,o),
(321,401,o),
(321,253,cs),
(321,164,o),
(351,110,o),
(405,77,c),
(404,74,l),
(381,75,o),
(357,76,o),
(336,76,cs),
(301,76,ls),
(178,76,o),
(127,140,o),
(125,220,c),
(61,216,l),
(59,210,o),
(59,194,o),
(59,190,cs),
(59,76,o),
(145,0,o),
(297,0,cs)
);
}
);
width = 851;
},
{
anchors = (
{
name = bottom;
pos = (508,-98);
},
{
name = top;
pos = (541,576);
}
);
layerId = "8E9A709A-C666-43E5-8831-9AE42D64DE83";
shapes = (
{
closed = 1;
nodes = (
(804,0,l),
(804,25,l),
(600,25,ls),
(495,25,o),
(334,26,o),
(334,218,cs),
(334,348,o),
(442,442,o),
(546,442,cs),
(655,442,o),
(709,384,o),
(709,320,cs),
(709,257,o),
(661,217,o),
(592,217,cs),
(550,217,o),
(499,234,o),
(484,289,c),
(460,286,l),
(470,230,o),
(521,192,o),
(592,192,cs),
(690,192,o),
(734,258,o),
(734,321,cs),
(734,397,o),
(669,467,o),
(546,467,cs),
(428,467,o),
(309,364,o),
(309,211,cs),
(309,118,o),
(349,51,o),
(431,24,c),
(431,22,l),
(388,25,o),
(377,25,o),
(354,25,cs),
(280,25,ls),
(156,25,o),
(86,69,o),
(86,181,c),
(63,179,l),
(62,173,o),
(62,168,o),
(62,165,cs),
(62,45,o),
(151,0,o),
(272,0,cs)
);
}
);
width = 804;
},
{
anchors = (
{
name = bottom;
pos = (555,-98);
},
{
name = top;
pos = (596,706);
}
);
layerId = "7FDEFC05-49C3-46A7-9C1D-65D39809C804";
shapes = (
{
closed = 1;
nodes = (
(912,0,l),
(912,185,l),
(675,185,ls),
(551,185,o),
(489,250,o),
(489,333,cs),
(489,394,o),
(527,458,o),
(606,458,cs),
(661,458,o),
(703,437,o),
(703,394,cs),
(703,376,o),
(693,366,o),
(677,366,cs),
(657,366,o),
(650,376,o),
(647,392,c),
(545,382,l),
(545,259,o),
(634,245,o),
(683,245,cs),
(773,245,o),
(844,296,o),
(844,396,cs),
(844,518,o),
(754,600,o),
(605,600,cs),
(452,600,o),
(338,484,o),
(338,347,cs),
(338,259,o),
(371,213,o),
(403,187,c),
(403,183,l),
(383,185,o),
(375,185,o),
(372,185,cs),
(324,185,ls),
(226,185,o),
(194,231,o),
(185,291,c),
(47,288,l),
(45,273,o),
(45,257,o),
(45,251,cs),
(45,77,o),
(171,0,o),
(357,0,cs)
);
}
);
width = 912;
}
);
note = uni0727.fina;
},
{
glyphname = uni0727.medi;
lastChange = "2022-12-16 12:05:34 +0000";
layers = (
{
anchors = (
{
name = bottom;
pos = (311,-98);
},
{
name = top;
pos = (331,621);
}
);
layerId = m01;
shapes = (
{
closed = 1;
nodes = (
(615,0,l),
(615,76,l),
(478,76,ls),
(327,76,o),
(160,77,o),
(160,259,cs),
(160,369,o),
(249,442,o),
(339,442,cs),
(431,442,o),
(479,401,o),
(479,340,cs),
(479,290,o),
(444,260,o),
(391,260,cs),
(358,260,o),
(321,279,o),
(315,324,c),
(256,317,l),
(256,243,o),
(316,194,o),
(394,194,cs),
(490,194,o),
(549,262,o),
(549,342,cs),
(549,436,o),
(471,518,o),
(336,518,cs),
(207,518,o),
(85,401,o),
(85,253,cs),
(85,164,o),
(116,110,o),
(170,78,c),
(168,74,l),
(146,76,o),
(122,76,o),
(101,76,cs),
(0,76,ls),
(-21,76,o),
(-39,61,o),
(-39,38,cs),
(-39,14,o),
(-21,0,o),
(0,0,cs)
);
}
);
width = 615;
},
{
anchors = (
{
name = bottom;
pos = (312,-98);
},
{
name = top;
pos = (321,576);
}
);
layerId = "8E9A709A-C666-43E5-8831-9AE42D64DE83";
shapes = (
{
closed = 1;
nodes = (
(585,0,l),
(585,25,l),
(381,25,ls),
(276,25,o),
(115,26,o),
(115,218,cs),
(115,348,o),
(223,442,o),
(327,442,cs),
(436,442,o),
(490,384,o),
(490,320,cs),
(490,257,o),
(442,217,o),
(373,217,cs),
(331,217,o),
(280,234,o),
(265,289,c),
(241,286,l),
(251,230,o),
(302,192,o),
(373,192,cs),
(471,192,o),
(515,258,o),
(515,321,cs),
(515,397,o),
(450,467,o),
(327,467,cs),
(209,467,o),
(90,364,o),
(90,211,cs),
(90,118,o),
(130,51,o),
(212,24,c),
(212,22,l),
(169,25,o),
(158,25,o),
(135,25,cs),
(0,25,ls),
(-19,25,o),
(-40,21,o),
(-40,13,cs),
(-40,4,o),
(-19,0,o),
(0,0,cs)
);
}
);
width = 585;
},
{
anchors = (
{
name = bottom;
pos = (312,-98);
},
{
name = top;
pos = (335,706);
}
);
layerId = "7FDEFC05-49C3-46A7-9C1D-65D39809C804";
shapes = (
{
closed = 1;
nodes = (
(651,0,l),
(651,185,l),
(414,185,ls),
(290,185,o),
(228,250,o),
(228,333,cs),
(228,394,o),
(266,458,o),
(345,458,cs),
(400,458,o),
(442,437,o),
(442,394,cs),
(442,376,o),
(432,366,o),
(416,366,cs),
(396,366,o),
(389,376,o),
(386,392,c),
(284,382,l),
(284,259,o),
(373,245,o),
(422,245,cs),
(512,245,o),
(583,296,o),
(583,396,cs),
(583,518,o),
(493,600,o),
(344,600,cs),
(191,600,o),
(77,484,o),
(77,347,cs),
(77,259,o),
(110,213,o),
(142,187,c),
(142,183,l),
(122,185,o),
(114,185,o),
(111,185,cs),
(0,185,ls),
(-24,185,o),
(-40,141,o),
(-40,92,cs),
(-40,42,o),
(-24,0,o),
(0,0,cs)
);
}
);
width = 651;
}
);
note = uni0727.medi;
},
